SplineFontDB: 3.0
FontName: WebAtlas-icons-outline
FullName: WebAtlas-icons-outline
FamilyName: WebAtlas-icons-outline
Weight: Regular
Copyright: MIT License 2018, Louis MORAES.
Version: 1.0.1
ItalicAngle: 0
UnderlinePosition: -170
UnderlineWidth: 50
Ascent: 800
Descent: 200
InvalidEm: 0
sfntRevision: 0x00010000
LayerCount: 2
Layer: 0 1 "Arri+AOgA-re" 1
Layer: 1 1 "Avant" 0
XUID: [1021 206 1625637039 27996]
StyleMap: 0x0040
FSType: 8
OS2Version: 3
OS2_WeightWidthSlopeOnly: 0
OS2_UseTypoMetrics: 0
CreationTime: 1375896762
ModificationTime: 1576622812
PfmFamily: 81
TTFWeight: 400
TTFWidth: 5
LineGap: 0
VLineGap: 0
Panose: 0 0 5 0 0 0 0 0 0 0
OS2TypoAscent: 700
OS2TypoAOffset: 0
OS2TypoDescent: -201
OS2TypoDOffset: 0
OS2TypoLinegap: 299
OS2WinAscent: 999
OS2WinAOffset: 0
OS2WinDescent: 201
OS2WinDOffset: 0
HheadAscent: 999
HheadAOffset: 0
HheadDescent: -201
HheadDOffset: 0
OS2SubXSize: 650
OS2SubYSize: 600
OS2SubXOff: 0
OS2SubYOff: 75
OS2SupXSize: 650
OS2SupYSize: 600
OS2SupXOff: 0
OS2SupYOff: 350
OS2StrikeYSize: 50
OS2StrikeYPos: 292
OS2CapHeight: 690
OS2XHeight: 487
OS2Vendor: 'UKWN'
OS2CodePages: 20000097.00000000
OS2UnicodeRanges: 00002eff.00000000.00000000.00000000
Lookup: 258 0 0 "'kern' Cr+AOkA-nage horizontal lookups0" { "'kern' Cr+AOkA-nage horizontal lookups0 per glyph data 0"  "'kern' Cr+AOkA-nage horizontal lookups0 classe de cr+AOkA-nage 1"  "'kern' Cr+AOkA-nage horizontal lookups0 classe de cr+AOkA-nage 2"  "'kern' Cr+AOkA-nage horizontal lookups0 classe de cr+AOkA-nage 3"  } ['kern' ('DFLT' <'dflt' > 'cyrl' <'dflt' > 'grek' <'dflt' > 'latn' <'dflt' > ) ]
MarkAttachClasses: 1
DEI: 91125
TtTable: prep
MPPEM
PUSHW_1
 200
GT
IF
PUSHB_2
 1
 1
INSTCTRL
EIF
PUSHW_2
 2048
 2048
MUL
DUP
PUSHB_1
 1
SWAP
WCVTP
DUP
PUSHB_1
 3
SWAP
WCVTF
PUSHB_1
 20
RCVT
DUP
DUP
MPPEM
PUSHB_1
 14
LTEQ
MPPEM
PUSHB_1
 6
GTEQ
AND
IF
PUSHB_1
 52
ELSE
PUSHB_1
 40
EIF
ADD
FLOOR
DUP
ROLL
NEQ
IF
PUSHB_1
 2
CINDEX
SUB
PUSHB_1
 1
RCVT
MUL
SWAP
DIV
PUSHB_1
 2
SWAP
WCVTP
PUSHB_4
 10
 10
 5
 4

StartChar: asterisk
Encoding: 42 42 3
Width: 604
VWidth: 0
GlyphClass: 2
Flags: W
LayerCount: 2
Fore
SplineSet
318.320618913 796.003690651 m 0,0,1
 352.477886538 797.598062046 352.477886538 797.598062046 352.988446674 760.196662901 c 0,2,3
 352.988446674 760.113151437 352.988446674 760.113151437 353.277373433 680.429427936 c 2,4,-1
 353.297174595 674.968423631 l 1,5,-1
 358.045144573 676.636473733 l 2,6,7
 423.003723645 697.591074149 423.003723645 697.591074149 433.608810806 701.028341398 c 0,8,9
 471.316854359 713.298502868 471.316854359 713.298502868 480.449262603 674.30607924 c 0,10,11
 487.989347828 642.131533758 487.989347828 642.131533758 456.135517701 631.770589675 c 0,12,13
 441.829516537 627.091823721 441.829516537 627.091823721 415.660383944 618.454708908 c 128,-1,14
 389.494398545 609.818644762 389.494398545 609.818644762 380.383065172 606.832286702 c 2,15,-1
 375.187139951 605.129252086 l 1,16,-1
 378.383556532 600.69293753 l 2,17,18
 417.326040832 546.644566302 417.326040832 546.644566302 425.030990207 536.042891643 c 0,19,20
 430.250672978 528.842688588 430.250672978 528.842688588 432.848811759 522.387162609 c 0,21,22
 444.074338585 494.495396169 444.074338585 494.495396169 403.45584615 478.723415523 c 0,23,24
 382.258577004 470.966892303 382.258577004 470.966892303 366.074467972 493.253018347 c 0,25,26
 357.69283251 505.282169571 357.69283251 505.282169571 342.937089035 527.314227279 c 128,-1,27
 328.182359052 549.356500036 328.182359052 549.356500036 322.694670469 557.569290668 c 2,28,-1
 319.747812265 561.979512843 l 1,29,-1
 316.800349346 557.569775419 l 2,30,31
 282.016604463 505.529364467 282.016604463 505.529364467 273.428096577 493.29908562 c 0,32,33
 251.841478894 465.26917365 251.841478894 465.26917365 223.195798801 486.090876984 c 128,-1,34
 194.539684978 506.92304816 194.539684978 506.92304816 214.55382966 536.090131505 c 0,35,36
 222.54146112 547.184064089 222.54146112 547.184064089 239.403388274 570.53765743 c 128,-1,37
 256.255239124 593.881806868 256.255239124 593.881806868 261.166210854 600.691531028 c 2,38,-1
 264.361320565 605.121981486 l 1,39,-1
 259.17302277 606.830543257 l 2,40,41
 195.081469163 627.936575082 195.081469163 627.936575082 183.430998199 631.761579103 c 0,42,43
 149.538879739 643.34736555 149.538879739 643.34736555 160.593692026 677.440955687 c 128,-1,44
 171.659407637 711.535608082 171.659407637 711.535608082 205.890445668 701.018398554 c 0,45,46
 217.447331576 697.251883107 217.447331576 697.251883107 243.169317339 689.033509351 c 128,-1,47
 268.875992616 680.820027414 268.875992616 680.820027414 281.439533462 676.640010625 c 2,48,-1
 286.199678885 674.951097079 l 1,49,-1
 286.217328504 680.43120324 l 2,50,51
 286.260122798 693.718587918 286.260122798 693.718587918 286.356421512 720.320071605 c 128,-1,52
 286.452717654 746.909037813 286.452717654 746.909037813 286.506130492 760.188242979 c 0,53,54
 286.968605284 794.514896713 286.968605284 794.514896713 318.320618913 796.003690651 c 0,0,1
EndSplineSet
EndChar

StartChar: plus
Encoding: 43 43 4
Width: 684
VWidth: 37
GlyphClass: 2
Flags: W
LayerCount: 2
Fore
SplineSet
345.370117188 587.790039062 m 0,0,1
 386.506835938 587.790039062 386.506835938 587.790039062 386.506835938 545.858398438 c 2,2,-1
 386.506835938 390.946289062 l 1,3,-1
 386.506835938 386.946289062 l 1,4,-1
 390.375976562 386.946289062 l 1,5,-1
 542.178710938 386.946289062 l 2,6,7
 584.122070312 386.946289062 584.122070312 386.946289062 584.122070312 345.014648438 c 128,-1,8
 584.122070312 303.0703125 584.122070312 303.0703125 542.178710938 303.0703125 c 2,9,-1
 390.375976562 303.0703125 l 1,10,-1
 386.506835938 303.0703125 l 1,11,-1
 386.506835938 299.0703125 l 1,12,-1
 386.506835938 144.796875 l 2,13,14
 386.506835938 101.959960938 386.506835938 101.959960938 345.948242188 101.959960938 c 128,-1,15
 305.389648438 101.959960938 305.389648438 101.959960938 305.389648438 143.891601562 c 2,16,-1
 305.404296875 299.0703125 l 1,17,-1
 305.404296875 303.0703125 l 1,18,-1
 301.53515625 303.0703125 l 1,19,-1
 149.821289062 303.0703125 l 2,20,21
 107.877929688 303.0703125 107.877929688 303.0703125 107.877929688 345.014648438 c 128,-1,22
 107.877929688 386.946289062 107.877929688 386.946289062 149.821289062 386.946289062 c 2,23,-1
 301.53515625 386.946289062 l 1,24,-1
 305.404296875 386.946289062 l 1,25,-1
 305.404296875 390.946289062 l 1,26,-1
 305.404296875 545.154296875 l 2,27,28
 305.390625 587.217773438 305.390625 587.217773438 345.370117188 587.790039062 c 0,0,1
EndSplineSet
EndChar

StartChar: hyphen
Encoding: 45 45 5
Width: 684
VWidth: 37
GlyphClass: 2
Flags: W
LayerCount: 2
Fore
SplineSet
148.563476562 390.049804688 m 2,0,-1
 540.747070312 390.049804688 l 2,1,2
 583.310546875 390.049804688 583.310546875 390.049804688 583.310546875 348.138671875 c 128,-1,3
 583.310546875 306.227539062 583.310546875 306.227539062 541.3984375 306.227539062 c 2,4,-1
 148.563476562 306.227539062 l 2,5,6
 106 306.227539062 106 306.227539062 106 348.138671875 c 128,-1,7
 106 390.049804688 106 390.049804688 148.563476562 390.049804688 c 2,0,-1
EndSplineSet
EndChar

StartChar: less
Encoding: 60 60 6
Width: 537
GlyphClass: 2
Flags: W
LayerCount: 2
Fore
SplineSet
447.870117188 577.111328125 m 0,0,1
 464.206054688 576.625976562 464.206054688 576.625976562 475.767578125 564.715820312 c 128,-1,2
 487.329101562 552.8046875 487.329101562 552.8046875 487.329101562 536.461914062 c 0,3,4
 487.329101562 525.802734375 487.329101562 525.802734375 480.510742188 515.032226562 c 128,-1,5
 473.692382812 504.262695312 473.692382812 504.262695312 464.05859375 499.703125 c 2,6,-1
 157.967773438 349.500976562 l 1,7,-1
 464.05859375 199.298828125 l 2,8,9
 473.70703125 194.744140625 473.70703125 194.744140625 480.536132812 183.96875 c 128,-1,10
 487.365234375 173.193359375 487.365234375 173.193359375 487.365234375 162.5234375 c 0,11,12
 487.365234375 145.686523438 487.365234375 145.686523438 475.44921875 133.771484375 c 128,-1,13
 463.534179688 121.85546875 463.534179688 121.85546875 446.697265625 121.85546875 c 0,14,15
 436.93359375 121.85546875 436.93359375 121.85546875 428.232421875 126.2890625 c 2,16,-1
 47.74609375 312.995117188 l 2,17,18
 38.3291015625 317.618164062 38.3291015625 317.618164062 31.6650390625 328.314453125 c 128,-1,19
 25 339.010742188 25 339.010742188 25 349.500976562 c 128,-1,20
 25 359.991210938 25 359.991210938 31.6650390625 370.6875 c 128,-1,21
 38.3291015625 381.383789062 38.3291015625 381.383789062 47.74609375 386.006835938 c 2,22,-1
 428.232421875 572.712890625 l 2,23,24
 436.920898438 577.129882812 436.920898438 577.129882812 446.6640625 577.129882812 c 0,25,26
 447.237304688 577.129882812 447.237304688 577.129882812 447.870117188 577.111328125 c 0,0,1
EndSplineSet
EndChar

StartChar: greater
Encoding: 62 62 7
Width: 537
GlyphClass: 2
Flags: W
LayerCount: 2
Fore
SplineSet
64.4951171875 577.111328125 m 0,0,1
 65.1279296875 577.129882812 65.1279296875 577.129882812 65.701171875 577.129882812 c 0,2,3
 75.4443359375 577.129882812 75.4443359375 577.129882812 84.1328125 572.712890625 c 2,4,-1
 464.619140625 386.006835938 l 2,5,6
 474.036132812 381.383789062 474.036132812 381.383789062 480.700195312 370.6875 c 128,-1,7
 487.365234375 359.991210938 487.365234375 359.991210938 487.365234375 349.500976562 c 128,-1,8
 487.365234375 339.010742188 487.365234375 339.010742188 480.700195312 328.314453125 c 128,-1,9
 474.036132812 317.618164062 474.036132812 317.618164062 464.619140625 312.995117188 c 2,10,-1
 84.1328125 126.2890625 l 2,11,12
 75.431640625 121.85546875 75.431640625 121.85546875 65.66796875 121.85546875 c 0,13,14
 48.8310546875 121.85546875 48.8310546875 121.85546875 36.916015625 133.771484375 c 128,-1,15
 25 145.686523438 25 145.686523438 25 162.5234375 c 0,16,17
 25 173.193359375 25 173.193359375 31.8291015625 183.96875 c 128,-1,18
 38.658203125 194.744140625 38.658203125 194.744140625 48.306640625 199.298828125 c 2,19,-1
 354.397460938 349.500976562 l 1,20,-1
 48.306640625 499.703125 l 2,21,22
 38.6728515625 504.262695312 38.6728515625 504.262695312 31.8544921875 515.032226562 c 128,-1,23
 25.0361328125 525.802734375 25.0361328125 525.802734375 25.0361328125 536.461914062 c 0,24,25
 25.0361328125 552.8046875 25.0361328125 552.8046875 36.59765625 564.715820312 c 128,-1,26
 48.1591796875 576.625976562 48.1591796875 576.625976562 64.4951171875 577.111328125 c 0,0,1
EndSplineSet
EndChar

StartChar: Amacron
Encoding: 256 256 8
Width: 1419
VWidth: 1100
GlyphClass: 2
Flags: W
LayerCount: 2
Fore
SplineSet
1090.46289062 899.943359375 m 0,0,1
 1130.47851562 896.19140625 1130.47851562 896.19140625 1158.99121094 868.8671875 c 2,2,-1
 1308 719.857421875 l 2,3,4
 1323.53710938 703.458984375 1323.53710938 703.458984375 1330.31152344 688.78125 c 0,5,6
 1341.8046875 662.66015625 1341.8046875 662.66015625 1338.18066406 632.404296875 c 128,-1,7
 1334.55664062 602.1484375 1334.55664062 602.1484375 1316.765625 579.61328125 c 0,8,9
 1315.17285156 577.224609375 1315.17285156 577.224609375 1308 570.051757812 c 2,10,-1
 668.934570312 -69.0146484375 l 2,11,12
 652.53125 -84.5537109375 652.53125 -84.5537109375 637.857421875 -91.326171875 c 0,13,14
 611.737304688 -102.819335938 611.737304688 -102.819335938 581.481445312 -99.1943359375 c 128,-1,15
 551.225585938 -95.5703125 551.225585938 -95.5703125 528.690429688 -77.779296875 c 0,16,17
 526.298828125 -76.185546875 526.298828125 -76.185546875 519.127929688 -69.0146484375 c 2,18,-1
 111.145507812 338.967773438 l 2,19,20
 97.599609375 353.310546875 97.599609375 353.310546875 92.021484375 364.466796875 c 0,21,22
 77.626953125 391.294921875 77.626953125 391.294921875 80.4677734375 423.333007812 c 128,-1,23
 83.30859375 455.37109375 83.30859375 455.37109375 102.380859375 479.211914062 c 0,24,25
 103.974609375 481.602539062 103.974609375 481.602539062 111.145507812 488.7734375 c 2,26,-1
 260.155273438 637.783203125 l 2,27,28
 274.498046875 651.329101562 274.498046875 651.329101562 285.654296875 656.907226562 c 0,29,30
 312.482421875 671.301757812 312.482421875 671.301757812 344.520507812 668.4609375 c 128,-1,31
 376.55859375 665.620117188 376.55859375 665.620117188 400.399414062 646.547851562 c 0,32,33
 402.790039062 644.955078125 402.790039062 644.955078125 409.9609375 637.783203125 c 2,34,-1
 594.03125 454.509765625 l 1,35,-1
 1009.18554688 868.8671875 l 2,36,37
 1014.1015625 872.525390625 1014.1015625 872.525390625 1022.41113281 877.905273438 c 128,-1,38
 1030.72070312 883.284179688 1030.72070312 883.284179688 1052.26953125 891.967773438 c 128,-1,39
 1073.81835938 900.651367188 1073.81835938 900.651367188 1090.46289062 899.943359375 c 0,0,1
594.03125 303.907226562 m 1,40,-1
 335.057617188 562.879882812 l 1,41,-1
 186.048828125 413.87109375 l 1,42,-1
 594.03125 5.888671875 l 1,43,-1
 1233.09765625 644.954101562 l 1,44,-1
 1084.08789062 793.963867188 l 1,45,46
 1029.63671875 739.512695312 1029.63671875 739.512695312 929.810546875 639.686523438 c 128,-1,47
 829.984375 539.860351562 829.984375 539.860351562 748.30859375 458.18359375 c 128,-1,48
 666.6328125 376.5078125 666.6328125 376.5078125 594.03125 303.907226562 c 1,40,-1
EndSplineSet
EndChar

StartChar: amacron
Encoding: 257 257 9
Width: 1158
VWidth: 1100
GlyphClass: 2
Flags: W
LayerCount: 2
Fore
SplineSet
845.987304688 899.944335938 m 0,0,1
 883.205078125 896.341796875 883.205078125 896.341796875 911.73828125 869.048828125 c 2,2,-1
 1047.99414062 732.791992188 l 2,3,4
 1062.45214844 718.334960938 1062.45214844 718.334960938 1070.17578125 700.3125 c 0,5,6
 1081.51171875 674.227539062 1081.51171875 674.227539062 1077.60253906 644.364257812 c 128,-1,7
 1073.69335938 614.5 1073.69335938 614.5 1055.91601562 592.575195312 c 0,8,9
 1052.75195312 588.619140625 1052.75195312 588.619140625 1047.99414062 583.861328125 c 2,10,-1
 864.999023438 400.073242188 l 1,11,-1
 1047.99414062 216.286132812 l 2,12,13
 1063.8515625 199.619140625 1063.8515625 199.619140625 1070.96777344 183.806640625 c 0,14,15
 1081.74609375 157.176757812 1081.74609375 157.176757812 1077.70117188 127.461914062 c 128,-1,16
 1073.65625 97.748046875 1073.65625 97.748046875 1055.91601562 75.27734375 c 0,17,18
 1052.39550781 70.8759765625 1052.39550781 70.8759765625 1047.99414062 67.35546875 c 2,19,-1
 911.73828125 -68.9013671875 l 2,20,21
 898.272460938 -82.3671875 898.272460938 -82.3671875 879.258789062 -91.875 c 0,22,23
 852.411132812 -103.075195312 852.411132812 -103.075195312 822.9140625 -98.9052734375 c 128,-1,24
 793.41796875 -94.7353515625 793.41796875 -94.7353515625 770.729492188 -76.8232421875 c 0,25,26
 766.325195312 -73.2998046875 766.325195312 -73.2998046875 762.807617188 -68.9013671875 c 2,27,-1
 579.811523438 114.09375 l 1,28,-1
 396.024414062 -68.9013671875 l 2,29,30
 379.357421875 -84.7578125 379.357421875 -84.7578125 363.544921875 -91.08203125 c 0,31,32
 336.829101562 -102.38671875 336.829101562 -102.38671875 307.200195312 -98.5087890625 c 128,-1,33
 277.572265625 -94.630859375 277.572265625 -94.630859375 255.015625 -76.8232421875 c 0,34,35
 250.611328125 -73.2998046875 250.611328125 -73.2998046875 247.09375 -68.9013671875 c 2,36,-1
 110.836914062 67.35546875 l 2,37,38
 96.029296875 83.087890625 96.029296875 83.087890625 91.0322265625 95.08203125 c 0,39,40
 77.353515625 121.801757812 77.353515625 121.801757812 80.634765625 153.208984375 c 128,-1,41
 83.916015625 184.615234375 83.916015625 184.615234375 102.915039062 208.364257812 c 0,42,43
 106.435546875 212.765625 106.435546875 212.765625 110.836914062 216.286132812 c 2,44,-1
 293.83203125 400.073242188 l 1,45,-1
 110.836914062 583.861328125 l 2,46,47
 94.98046875 600.528320312 94.98046875 600.528320312 88.65625 616.340820312 c 0,48,49
 77.3515625 643.056640625 77.3515625 643.056640625 81.2294921875 672.685546875 c 128,-1,50
 85.107421875 702.313476562 85.107421875 702.313476562 102.915039062 724.870117188 c 0,51,52
 106.438476562 729.274414062 106.438476562 729.274414062 110.836914062 732.791992188 c 2,53,-1
 247.09375 869.048828125 l 2,54,55
 261.549804688 883.505859375 261.549804688 883.505859375 279.573242188 891.229492188 c 0,56,57
 306.2890625 902.534179688 306.2890625 902.534179688 335.916992188 898.65625 c 128,-1,58
 365.544921875 894.778320312 365.544921875 894.778320312 388.102539062 876.970703125 c 0,59,60
 392.50390625 873.450195312 392.50390625 873.450195312 396.024414062 869.048828125 c 2,61,-1
 579.811523438 686.053710938 l 1,62,-1
 762.807617188 869.048828125 l 2,63,64
 767.873046875 872.685546875 767.873046875 872.685546875 776.418945312 878.034179688 c 128,-1,65
 784.96484375 883.381835938 784.96484375 883.381835938 807.026367188 892.015625 c 128,-1,66
 829.086914062 900.6484375 829.086914062 900.6484375 845.987304688 899.944335938 c 0,0,1
579.811523438 536.330078125 m 1,67,-1
 321.55859375 794.583007812 l 1,68,-1
 185.302734375 658.327148438 l 1,69,-1
 443.555664062 400.073242188 l 1,70,-1
 185.302734375 141.8203125 l 1,71,-1
 321.55859375 5.564453125 l 1,72,-1
 579.811523438 263.817382812 l 1,73,-1
 837.272460938 5.564453125 l 1,74,-1
 973.529296875 141.8203125 l 1,75,-1
 716.068359375 400.073242188 l 1,76,-1
 973.529296875 658.327148438 l 1,77,-1
 837.272460938 794.583007812 l 1,78,79
 794.481445312 751.395507812 794.481445312 751.395507812 708.529296875 665.443359375 c 128,-1,80
 622.577148438 579.491210938 622.577148438 579.491210938 579.811523438 536.330078125 c 1,67,-1
EndSplineSet
EndChar

StartChar: Abreve
Encoding: 258 258 10
Width: 1411
VWidth: 1100
GlyphClass: 2
Flags: W
LayerCount: 2
Fore
SplineSet
1073.859375 899.645507812 m 0,0,1
 1120.49902344 898.385742188 1120.49902344 898.385742188 1153.57519531 867.759765625 c 0,2,3
 1154.77050781 866.962890625 1154.77050781 866.962890625 1155.96679688 865.766601562 c 128,-1,4
 1157.16308594 864.5703125 1157.16308594 864.5703125 1158.35839844 863.7734375 c 0,5,6
 1249.17773438 771.359375 1249.17773438 771.359375 1295.46972656 725.067382812 c 0,7,8
 1330.82324219 689.104492188 1330.82324219 689.104492188 1331.14257812 636.881835938 c 128,-1,9
 1331.46191406 584.659179688 1331.46191406 584.659179688 1293.875 545.70703125 c 2,10,-1
 685.642578125 -63.3232421875 l 2,11,12
 665.670898438 -81.67578125 665.670898438 -81.67578125 644.189453125 -90.4267578125 c 0,13,14
 610.055664062 -105.318359375 610.055664062 -105.318359375 571.548828125 -97.302734375 c 128,-1,15
 533.041015625 -89.2861328125 533.041015625 -89.2861328125 505.484375 -61.7294921875 c 0,16,17
 448.513671875 -2.6220703125 448.513671875 -2.6220703125 384.5390625 61.5439453125 c 128,-1,18
 320.564453125 125.709960938 320.564453125 125.709960938 238.212890625 207.200195312 c 128,-1,19
 155.860351562 288.69140625 155.860351562 288.69140625 115.672851562 328.87890625 c 0,20,21
 80 365.157226562 80 365.157226562 80 418.065429688 c 128,-1,22
 80 470.973632812 80 470.973632812 117.267578125 508.240234375 c 0,23,24
 132.762695312 522.998046875 132.762695312 522.998046875 182.751953125 575.940429688 c 128,-1,25
 232.741210938 628.8828125 232.741210938 628.8828125 263.944335938 654.120117188 c 0,26,27
 298.522460938 682.3046875 298.522460938 682.3046875 345.752929688 681.024414062 c 128,-1,28
 392.983398438 679.744140625 392.983398438 679.744140625 428.159179688 649.337890625 c 2,29,-1
 432.145507812 645.3515625 l 1,30,-1
 595.563476562 481.13671875 l 1,31,-1
 980.591796875 866.165039062 l 1,32,33
 1024.51367188 899.645507812 1024.51367188 899.645507812 1064.29296875 899.645507812 c 0,34,35
 1065.10839844 900.440429688 1065.10839844 900.440429688 1073.859375 899.645507812 c 0,0,1
1069.07617188 793.623046875 m 2,36,-1
 1065.88769531 793.623046875 l 2,37,38
 1060.10742188 793.623046875 1060.10742188 793.623046875 1053.1328125 788.04296875 c 2,39,-1
 595.563476562 330.473632812 l 1,40,-1
 358.009765625 568.82421875 l 2,41,42
 342.06640625 583.173828125 342.06640625 583.173828125 328.514648438 569.62109375 c 0,43,44
 306.208007812 546.517578125 306.208007812 546.517578125 192.200195312 432.509765625 c 0,45,46
 177.0546875 417.36328125 177.0546875 417.36328125 192.200195312 402.217773438 c 0,47,48
 249.950195312 344.467773438 249.950195312 344.467773438 314.7265625 279.69140625 c 128,-1,49
 379.50390625 214.915039062 379.50390625 214.915039062 458.6875 135.73046875 c 128,-1,50
 537.872070312 56.5458984375 537.872070312 56.5458984375 581.213867188 13.2041015625 c 0,51,52
 587.192382812 7.2255859375 587.192382812 7.2255859375 596.360351562 7.2255859375 c 128,-1,53
 605.528320312 7.2255859375 605.528320312 7.2255859375 611.506835938 13.2041015625 c 0,54,55
 712.74609375 114.443359375 712.74609375 114.443359375 915.224609375 317.3203125 c 128,-1,56
 1117.703125 520.197265625 1117.703125 520.197265625 1218.94238281 621.436523438 c 0,57,58
 1234.08886719 636.583007812 1234.08886719 636.583007812 1218.94238281 651.728515625 c 2,59,-1
 1082.62792969 788.04296875 l 2,60,61
 1078.16503906 793.623046875 1078.16503906 793.623046875 1069.07617188 793.623046875 c 2,36,-1
1061.90136719 899.645507812 m 1,62,-1
 1061.90136719 899.645507812 l 1,62,-1
1064.29296875 899.645507812 m 1,63,-1
 1064.29296875 899.645507812 l 1,63,-1
EndSplineSet
EndChar

StartChar: abreve
Encoding: 259 259 11
Width: 1162
VWidth: 1100
GlyphClass: 2
Flags: W
LayerCount: 2
Fore
SplineSet
817.521484375 899.987304688 m 0,0,1
 865.801757812 898.717773438 865.801757812 898.717773438 900.543945312 867.569335938 c 2,2,-1
 904.498046875 863.615234375 l 1,3,-1
 1042.07910156 726.03515625 l 2,4,5
 1044.23046875 723.575195312 1044.23046875 723.575195312 1046.32421875 721.053710938 c 128,-1,6
 1048.41796875 718.53125 1048.41796875 718.53125 1049.69335938 717.046875 c 128,-1,7
 1050.96972656 715.5625 1050.96972656 715.5625 1052.35742188 714.173828125 c 0,8,9
 1078.80273438 680.172851562 1078.80273438 680.172851562 1077.36328125 633.622070312 c 128,-1,10
 1075.92382812 587.071289062 1075.92382812 587.071289062 1046.03222656 553.663085938 c 0,11,12
 1045.2421875 552.4765625 1045.2421875 552.4765625 1044.05566406 551.291015625 c 128,-1,13
 1042.86914062 550.10546875 1042.86914062 550.10546875 1042.07910156 548.918945312 c 2,14,-1
 894.21875 401.849609375 l 1,15,-1
 1043.66015625 252.408203125 l 2,16,17
 1072.93164062 223.078125 1072.93164062 223.078125 1080.82226562 185.19921875 c 0,18,19
 1086.12792969 155.135742188 1086.12792969 155.135742188 1076.328125 124.969726562 c 128,-1,20
 1066.52832031 94.8046875 1066.52832031 94.8046875 1044.45117188 72.1298828125 c 2,21,-1
 908.451171875 -64.66015625 l 2,22,23
 906.874023438 -66.2373046875 906.874023438 -66.2373046875 895.009765625 -75.73046875 c 0,24,25
 858.990234375 -103.163085938 858.990234375 -103.163085938 810.899414062 -99.6484375 c 128,-1,26
 762.80859375 -96.1337890625 762.80859375 -96.1337890625 729.75390625 -63.0791015625 c 2,27,-1
 578.731445312 87.9443359375 l 1,28,29
 562.38671875 71.3359375 562.38671875 71.3359375 510.409179688 19.7724609375 c 128,-1,30
 458.431640625 -31.791015625 458.431640625 -31.791015625 430.87109375 -60.70703125 c 0,31,32
 411.064453125 -79.7001953125 411.064453125 -79.7001953125 390.545898438 -88.380859375 c 0,33,34
 357.76953125 -103.06640625 357.76953125 -103.06640625 320.96484375 -96.880859375 c 128,-1,35
 284.16015625 -90.6953125 284.16015625 -90.6953125 256.127929688 -66.2412109375 c 0,36,37
 227.774414062 -40.6767578125 227.774414062 -40.6767578125 176.424804688 12.857421875 c 128,-1,38
 125.076171875 66.3916015625 125.076171875 66.3916015625 115.383789062 76.0830078125 c 0,39,40
 80 112.067382812 80 112.067382812 80 164.545898438 c 128,-1,41
 80 217.025390625 80 217.025390625 116.965820312 253.990234375 c 2,42,-1
 264.825195312 401.849609375 l 1,43,44
 168.360351562 498.314453125 168.360351562 498.314453125 120.127929688 547.337890625 c 0,45,46
 84.744140625 583.321289062 84.744140625 583.321289062 84.744140625 635.80078125 c 128,-1,47
 84.744140625 688.279296875 84.744140625 688.279296875 121.709960938 725.244140625 c 0,48,49
 148.681640625 750.8203125 148.681640625 750.8203125 197.868164062 801.100585938 c 128,-1,50
 247.0546875 851.379882812 247.0546875 851.379882812 256.127929688 860.453125 c 0,51,52
 292.872070312 895.9921875 292.872070312 895.9921875 345.377929688 896.626953125 c 128,-1,53
 397.8828125 897.26171875 397.8828125 897.26171875 436.40625 860.453125 c 2,54,-1
 578.731445312 717.336914062 l 1,55,-1
 725.80078125 863.615234375 l 2,56,57
 731.299804688 867.77734375 731.299804688 867.77734375 740.6171875 873.924804688 c 128,-1,58
 749.934570312 880.072265625 749.934570312 880.072265625 774.240234375 890.205078125 c 128,-1,59
 798.544921875 900.338867188 798.544921875 900.338867188 817.521484375 899.987304688 c 0,0,1
813.567382812 794.825195312 m 0,60,61
 806.451171875 794.825195312 806.451171875 794.825195312 800.125976562 788.5 c 2,62,-1
 578.731445312 567.895507812 l 1,63,64
 560.490234375 586.13671875 560.490234375 586.13671875 482.334960938 665.1484375 c 128,-1,65
 404.1796875 744.161132812 404.1796875 744.161132812 361.290039062 786.127929688 c 0,66,67
 355.360351562 792.057617188 355.360351562 792.057617188 346.267578125 792.057617188 c 128,-1,68
 337.173828125 792.057617188 337.173828125 792.057617188 331.244140625 786.127929688 c 0,69,70
 305.02734375 760.362304688 305.02734375 760.362304688 258.012695312 712.7265625 c 128,-1,71
 210.998046875 665.090820312 210.998046875 665.090820312 196.03515625 650.127929688 c 0,72,73
 187.073242188 641.166015625 187.073242188 641.166015625 188.127929688 632.732421875 c 0,74,75
 189.344726562 625.43359375 189.344726562 625.43359375 196.03515625 620.08203125 c 2,76,-1
 414.266601562 401.849609375 l 1,77,-1
 191.291015625 178.874023438 l 2,78,79
 185.221679688 172.8046875 185.221679688 172.8046875 185.064453125 164.147460938 c 128,-1,80
 184.90625 155.490234375 184.90625 155.490234375 191.291015625 148.827148438 c 0,81,82
 213.83984375 126.278320312 213.83984375 126.278320312 258.513671875 81.208984375 c 128,-1,83
 303.188476562 36.1396484375 303.188476562 36.1396484375 325.708984375 13.6181640625 c 0,84,85
 341.522460938 -0.61328125 341.522460938 -0.61328125 355.755859375 13.6181640625 c 2,86,-1
 578.731445312 236.594726562 l 1,87,88
 616.2890625 199.037109375 616.2890625 199.037109375 691.80078125 123.919921875 c 128,-1,89
 767.3125 48.8046875 767.3125 48.8046875 804.870117188 11.24609375 c 0,90,91
 810.80078125 5.31640625 810.80078125 5.31640625 819.893554688 5.31640625 c 128,-1,92
 828.986328125 5.31640625 828.986328125 5.31640625 834.916992188 11.24609375 c 0,93,94
 925.111328125 101.442382812 925.111328125 101.442382812 970.125 147.24609375 c 0,95,96
 975.802734375 152.923828125 975.802734375 152.923828125 975.95703125 161.379882812 c 128,-1,97
 976.110351562 169.834960938 976.110351562 169.834960938 969.334960938 177.291992188 c 2,98,-1
 744.77734375 401.849609375 l 1,99,-1
 966.171875 622.454101562 l 2,100,101
 972.102539062 628.9765625 972.102539062 628.9765625 972.102539062 637.7734375 c 128,-1,102
 972.102539062 646.569335938 972.102539062 646.569335938 966.171875 652.5 c 0,103,104
 844.92578125 773.74609375 844.92578125 773.74609375 829.381835938 788.5 c 0,105,106
 824.110351562 794.825195312 824.110351562 794.825195312 813.567382812 794.825195312 c 0,60,61
EndSplineSet
EndChar

StartChar: aogonek
Encoding: 261 261 12
Width: 1161
VWidth: 1100
GlyphClass: 2
Flags: W
LayerCount: 2
Fore
SplineSet
799.658203125 899.647460938 m 2,0,1
 813.94921875 898.853515625 813.94921875 898.853515625 825.84765625 896.47265625 c 0,2,3
 858.553710938 887.127929688 858.553710938 887.127929688 884.57421875 862.34765625 c 0,4,5
 911.159179688 836.158203125 911.159179688 836.158203125 963.934570312 783.384765625 c 128,-1,6
 1016.70800781 730.609375 1016.70800781 730.609375 1043.29394531 704.420898438 c 0,7,8
 1078.88476562 667.624023438 1078.88476562 667.624023438 1079.20507812 614.545898438 c 128,-1,9
 1079.52539062 561.466796875 1079.52539062 561.466796875 1042.50097656 523.479492188 c 2,10,-1
 917.905273438 398.883789062 l 1,11,12
 931.640625 385.149414062 931.640625 385.149414062 956.896484375 359.540039062 c 128,-1,13
 982.153320312 333.930664062 982.153320312 333.930664062 1002.98046875 313.103515625 c 128,-1,14
 1023.80761719 292.275390625 1023.80761719 292.275390625 1042.50097656 274.288085938 c 0,15,16
 1061.56542969 254.408203125 1061.56542969 254.408203125 1071.0703125 233.814453125 c 0,17,18
 1086.33105469 199.663085938 1086.33105469 199.663085938 1078.70898438 161.3984375 c 128,-1,19
 1071.08691406 123.1328125 1071.08691406 123.1328125 1044.08789062 94.9345703125 c 0,20,21
 1017.890625 68.3408203125 1017.890625 68.3408203125 965.116210938 15.5654296875 c 128,-1,22
 912.341796875 -37.208984375 912.341796875 -37.208984375 886.161132812 -63.7861328125 c 0,23,24
 849.36328125 -99.376953125 849.36328125 -99.376953125 796.28515625 -99.6962890625 c 128,-1,25
 743.20703125 -100.015625 743.20703125 -100.015625 705.219726562 -62.9921875 c 2,26,-1
 580.624023438 61.6025390625 l 1,27,28
 496.5546875 -22.466796875 496.5546875 -22.466796875 453.647460938 -64.580078125 c 0,29,30
 418.110351562 -99.5146484375 418.110351562 -99.5146484375 366.3515625 -99.994140625 c 128,-1,31
 314.592773438 -100.473632812 314.592773438 -100.473632812 276.673828125 -64.580078125 c 0,32,33
 250.096679688 -38.3994140625 250.096679688 -38.3994140625 197.322265625 14.3759765625 c 128,-1,34
 144.547851562 67.150390625 144.547851562 67.150390625 117.954101562 93.3466796875 c 0,35,36
 82.4404296875 130.064453125 82.4404296875 130.064453125 82.4404296875 184.508789062 c 128,-1,37
 82.4404296875 238.954101562 82.4404296875 238.954101562 119.541015625 274.288085938 c 2,38,-1
 243.342773438 398.883789062 l 1,39,40
 229.616210938 412.610351562 229.616210938 412.610351562 204.353515625 438.225585938 c 128,-1,41
 179.090820312 463.841796875 179.090820312 463.841796875 158.265625 484.666992188 c 128,-1,42
 137.44140625 505.491210938 137.44140625 505.491210938 118.747070312 523.479492188 c 0,43,44
 99.6826171875 543.359375 99.6826171875 543.359375 90.177734375 563.953125 c 0,45,46
 74.9169921875 598.104492188 74.9169921875 598.104492188 82.5390625 636.369140625 c 128,-1,47
 90.1611328125 674.634765625 90.1611328125 674.634765625 117.16015625 702.833984375 c 0,48,49
 143.340820312 729.411132812 143.340820312 729.411132812 196.115234375 782.185546875 c 128,-1,50
 248.889648438 834.9609375 248.889648438 834.9609375 275.086914062 861.5546875 c 0,51,52
 311.536132812 896.807617188 311.536132812 896.807617188 364.86328125 896.96875 c 128,-1,53
 418.190429688 897.129882812 418.190429688 897.129882812 455.234375 861.5546875 c 2,54,-1
 580.624023438 736.165039062 l 1,55,56
 594.350585938 749.891601562 594.350585938 749.891601562 619.965820312 775.154296875 c 128,-1,57
 645.58203125 800.41796875 645.58203125 800.41796875 666.407226562 821.2421875 c 128,-1,58
 687.231445312 842.067382812 687.231445312 842.067382812 705.219726562 860.760742188 c 0,59,60
 747.359375 897.271484375 747.359375 897.271484375 787.75390625 899.647460938 c 2,61,-1
 799.658203125 899.647460938 l 2,0,1
795.690429688 794.09765625 m 0,62,63
 788.547851562 794.09765625 788.547851562 794.09765625 780.612304688 786.162109375 c 2,64,-1
 580.624023438 586.173828125 l 1,65,66
 402.57421875 764.223632812 402.57421875 764.223632812 379.842773438 786.162109375 c 0,67,68
 373.890625 792.11328125 373.890625 792.11328125 365.161132812 792.11328125 c 128,-1,69
 356.430664062 792.11328125 356.430664062 792.11328125 350.479492188 786.162109375 c 0,70,71
 279.658203125 717.456054688 279.658203125 717.456054688 192.552734375 629.028320312 c 0,72,73
 186.854492188 623.330078125 186.854492188 623.330078125 186.69921875 614.84375 c 128,-1,74
 186.544921875 606.356445312 186.544921875 606.356445312 193.345703125 598.872070312 c 2,75,-1
 393.333984375 398.883789062 l 1,76,77
 360.002929688 365.552734375 360.002929688 365.552734375 293.33984375 298.890625 c 128,-1,78
 226.676757812 232.227539062 226.676757812 232.227539062 193.345703125 198.896484375 c 0,79,80
 187.3203125 192.870117188 187.3203125 192.870117188 186.997070312 183.818359375 c 128,-1,81
 186.673828125 174.765625 186.673828125 174.765625 192.552734375 168.739257812 c 0,82,83
 270.921875 89.1826171875 270.921875 89.1826171875 350.479492188 10.8125 c 0,84,85
 356.177734375 5.1142578125 356.177734375 5.1142578125 364.665039062 4.9599609375 c 128,-1,86
 373.15234375 4.8056640625 373.15234375 4.8056640625 380.635742188 11.6064453125 c 2,87,-1
 580.624023438 211.59375 l 1,88,89
 625.065429688 167.15234375 625.065429688 167.15234375 649.508789062 142.708984375 c 128,-1,90
 673.951171875 118.266601562 673.951171875 118.266601562 711.727539062 80.4912109375 c 128,-1,91
 749.502929688 42.7158203125 749.502929688 42.7158203125 780.612304688 11.6064453125 c 0,92,93
 786.637695312 5.580078125 786.637695312 5.580078125 795.690429688 5.2568359375 c 128,-1,94
 804.743164062 4.93359375 804.743164062 4.93359375 810.768554688 10.8125 c 0,95,96
 890.27734375 89.1337890625 890.27734375 89.1337890625 968.6953125 168.739257812 c 0,97,98
 974.393554688 174.4375 974.393554688 174.4375 974.547851562 182.924804688 c 128,-1,99
 974.702148438 191.412109375 974.702148438 191.412109375 967.90234375 198.896484375 c 2,100,-1
 767.9140625 398.883789062 l 1,101,-1
 967.90234375 598.872070312 l 2,102,103
 973.927734375 604.897460938 973.927734375 604.897460938 974.250976562 613.950195312 c 128,-1,104
 974.57421875 623.002929688 974.57421875 623.002929688 968.6953125 629.028320312 c 0,105,106
 890.29296875 708.618164062 890.29296875 708.618164062 810.768554688 786.956054688 c 0,107,108
 803.626953125 794.09765625 803.626953125 794.09765625 795.690429688 794.09765625 c 0,62,63
EndSplineSet
EndChar

StartChar: Cacute
Encoding: 262 262 13
Width: 1439
VWidth: 1100
GlyphClass: 2
Flags: W
LayerCount: 2
Fore
SplineSet
1122.45410156 899.6484375 m 2,0,1
 1177.76171875 898.770507812 1177.76171875 898.770507812 1228.90722656 870.470703125 c 128,-1,2
 1280.05371094 842.169921875 1280.05371094 842.169921875 1312.41992188 796.30078125 c 128,-1,3
 1344.78613281 750.430664062 1344.78613281 750.430664062 1355.98925781 691.838867188 c 128,-1,4
 1367.19140625 633.247070312 1367.19140625 633.247070312 1342.61230469 571.786132812 c 0,5,6
 1325.58789062 527.522460938 1325.58789062 527.522460938 1288.76074219 489.424804688 c 0,7,8
 1210.97460938 412.694335938 1210.97460938 412.694335938 1124.05273438 325.772460938 c 128,-1,9
 1037.12988281 238.849609375 1037.12988281 238.849609375 931.0546875 132.24609375 c 128,-1,10
 824.978515625 25.642578125 824.978515625 25.642578125 766.874023438 -32.4619140625 c 0,11,12
 701.2890625 -96.8427734375 701.2890625 -96.8427734375 603.932617188 -99.875 c 128,-1,13
 506.576171875 -102.907226562 506.576171875 -102.907226562 435.052734375 -39.5888671875 c 0,14,15
 431.087890625 -35.626953125 431.087890625 -35.626953125 428.716796875 -34.0458984375 c 0,16,17
 336.73828125 57.93359375 336.73828125 57.93359375 151.5390625 244.715820312 c 1,18,-1
 145.995117188 249.467773438 l 1,19,20
 98.48046875 298.16015625 98.48046875 298.16015625 84.7578125 367.701171875 c 128,-1,21
 71.03515625 437.2421875 71.03515625 437.2421875 96.8896484375 505.8203125 c 128,-1,22
 122.744140625 574.3984375 122.744140625 574.3984375 184.008789062 616.134765625 c 0,23,24
 251.646484375 663.141601562 251.646484375 663.141601562 340.8125 654.642578125 c 128,-1,25
 429.977539062 646.142578125 429.977539062 646.142578125 490.48828125 584.45703125 c 2,26,-1
 596.607421875 477.545898438 l 1,27,28
 872.193359375 751.280273438 872.193359375 751.280273438 950.603515625 830.749023438 c 0,29,30
 968.0625 847.404296875 968.0625 847.404296875 986.241210938 860.05078125 c 0,31,32
 1040.09179688 895.952148438 1040.09179688 895.952148438 1106.61523438 899.6484375 c 2,33,-1
 1122.45410156 899.6484375 l 2,0,1
1115.32617188 794.3203125 m 0,34,35
 1060.1328125 791.811523438 1060.1328125 791.811523438 1022.66992188 753.139648438 c 2,36,-1
 596.607421875 327.869140625 l 1,37,38
 566.49609375 358.377929688 566.49609375 358.377929688 505.912109375 418.9609375 c 128,-1,39
 445.329101562 479.543945312 445.329101562 479.543945312 415.25390625 510.014648438 c 0,40,41
 395.431640625 531.641601562 395.431640625 531.641601562 366.154296875 542.484375 c 0,42,43
 340.520507812 550.487304688 340.520507812 550.487304688 313.240234375 549.954101562 c 128,-1,44
 285.959960938 549.420898438 285.959960938 549.420898438 260.629882812 536.098632812 c 128,-1,45
 235.299804688 522.776367188 235.299804688 522.776367188 216.420898438 503.540039062 c 128,-1,46
 197.541992188 484.3046875 197.541992188 484.3046875 188.709960938 454.90234375 c 128,-1,47
 179.876953125 425.500976562 179.876953125 425.500976562 185.592773438 392.80859375 c 0,48,49
 192.731445312 351.159179688 192.731445312 351.159179688 225.189453125 319.950195312 c 2,50,-1
 501.575195312 42.7724609375 l 2,51,52
 538.967773438 5.3798828125 538.967773438 5.3798828125 594.4296875 4.263671875 c 128,-1,53
 649.891601562 3.1484375 649.891601562 3.1484375 690.848632812 41.1884765625 c 0,54,55
 789.73828125 138.7421875 789.73828125 138.7421875 969.206054688 319.026367188 c 128,-1,56
 1148.67480469 499.311523438 1148.67480469 499.311523438 1214.31835938 564.658203125 c 0,57,58
 1243.57519531 594.310546875 1243.57519531 594.310546875 1250.48828125 638.07421875 c 128,-1,59
 1257.40136719 681.838867188 1257.40136719 681.838867188 1237.015625 723.280273438 c 128,-1,60
 1216.63085938 764.721679688 1216.63085938 764.721679688 1172.34570312 784.025390625 c 0,61,62
 1146.03613281 794.3203125 1146.03613281 794.3203125 1115.32617188 794.3203125 c 0,34,35
EndSplineSet
EndChar

StartChar: cacute
Encoding: 263 263 14
Width: 1159
VWidth: 1100
GlyphClass: 2
Flags: W
LayerCount: 2
Fore
SplineSet
322.560546875 899.901367188 m 2,0,1
 421.4453125 898.649414062 421.4453125 898.649414062 490.62109375 828.216796875 c 2,2,-1
 580.625 738.212890625 l 1,3,4
 641.196289062 798.784179688 641.196289062 798.784179688 671.42578125 829.809570312 c 0,5,6
 715.322265625 870.461914062 715.322265625 870.461914062 760.633789062 886.361328125 c 0,7,8
 790.06640625 897.262695312 790.06640625 897.262695312 828.3359375 899.901367188 c 0,9,10
 840.938476562 900.532226562 840.938476562 900.532226562 861.544921875 898.572265625 c 128,-1,11
 882.151367188 896.612304688 882.151367188 896.612304688 916.725585938 886.362304688 c 128,-1,12
 951.298828125 876.11328125 951.298828125 876.11328125 976.484375 858.483398438 c 0,13,14
 1032.37988281 819.633789062 1032.37988281 819.633789062 1059.61914062 753.979492188 c 128,-1,15
 1086.85839844 688.325195312 1086.85839844 688.325195312 1074.68457031 615.71484375 c 128,-1,16
 1062.51171875 543.10546875 1062.51171875 543.10546875 1009.140625 490.501953125 c 2,17,-1
 919.13671875 399.701171875 l 1,18,19
 929.196289062 389.641601562 929.196289062 389.641601562 947.736328125 370.923828125 c 128,-1,20
 966.27734375 352.20703125 966.27734375 352.20703125 981.602539062 336.881835938 c 128,-1,21
 996.927734375 321.556640625 996.927734375 321.556640625 1010.73339844 308.104492188 c 0,22,23
 1049.79296875 265.806640625 1049.79296875 265.806640625 1065.69140625 223.67578125 c 0,24,25
 1081.21386719 186.176757812 1081.21386719 186.176757812 1079.00683594 145.97265625 c 128,-1,26
 1076.80078125 105.76953125 1076.80078125 105.76953125 1065.21972656 67.2080078125 c 128,-1,27
 1053.63867188 28.646484375 1053.63867188 28.646484375 1027.36035156 -4.521484375 c 128,-1,28
 1001.08203125 -37.6884765625 1001.08203125 -37.6884765625 968.459960938 -61.1162109375 c 128,-1,29
 935.838867188 -84.5439453125 935.838867188 -84.5439453125 891.55078125 -94.4814453125 c 128,-1,30
 847.26171875 -104.41796875 847.26171875 -104.41796875 799.662109375 -96.5166015625 c 0,31,32
 724.833007812 -84.25 724.833007812 -84.25 670.62890625 -28.814453125 c 2,33,-1
 580.625 61.1904296875 l 1,34,35
 534.22265625 15.9765625 534.22265625 15.9765625 489.028320312 -30.4072265625 c 0,36,37
 448.325195312 -67.8740234375 448.325195312 -67.8740234375 406.98828125 -83.7724609375 c 0,38,39
 370.248046875 -98.138671875 370.248046875 -98.138671875 329.2890625 -99.0126953125 c 128,-1,40
 288.331054688 -99.88671875 288.331054688 -99.88671875 249.772460938 -87.2080078125 c 128,-1,41
 211.212890625 -74.5283203125 211.212890625 -74.5283203125 177.840820312 -51.630859375 c 128,-1,42
 144.467773438 -28.7333984375 144.467773438 -28.7333984375 120.115234375 6.6259765625 c 128,-1,43
 95.7626953125 41.984375 95.7626953125 41.984375 86 84.2880859375 c 0,44,45
 72.26171875 143.423828125 72.26171875 143.423828125 89.9814453125 204.356445312 c 128,-1,46
 107.702148438 265.2890625 107.702148438 265.2890625 151.313476562 308.900390625 c 2,47,-1
 242.114257812 399.701171875 l 1,48,49
 237.227539062 404.587890625 237.227539062 404.587890625 214.356445312 427.161132812 c 128,-1,50
 191.486328125 449.734375 191.486328125 449.734375 184.72265625 456.76953125 c 128,-1,51
 177.958984375 463.805664062 177.958984375 463.805664062 158.916015625 484.658203125 c 128,-1,52
 139.872070312 505.51171875 139.872070312 505.51171875 132.837890625 516.208007812 c 128,-1,53
 125.8046875 526.905273438 125.8046875 526.905273438 112.846679688 546.934570312 c 128,-1,54
 99.888671875 566.963867188 99.888671875 566.963867188 94.8427734375 582.217773438 c 128,-1,55
 89.796875 597.471679688 89.796875 597.471679688 85.18359375 617.57421875 c 128,-1,56
 80.5703125 637.67578125 80.5703125 637.67578125 80.4248046875 657.766601562 c 0,57,58
 79.2138671875 748.616210938 79.2138671875 748.616210938 145.537109375 821.604492188 c 128,-1,59
 211.861328125 894.59375 211.861328125 894.59375 305.037109375 899.901367188 c 1,60,-1
 322.560546875 899.901367188 l 2,0,1
837.096679688 793.966796875 m 2,61,62
 783.634765625 791.48046875 783.634765625 791.48046875 745.5 753.345703125 c 2,63,-1
 580.625 588.470703125 l 1,64,65
 553.12890625 615.966796875 553.12890625 615.966796875 497.772460938 670.92578125 c 128,-1,66
 442.416015625 725.883789062 442.416015625 725.883789062 414.954101562 753.345703125 c 0,67,68
 391.15234375 777.147460938 391.15234375 777.147460938 365.571289062 786.001953125 c 0,69,70
 336.265625 798.1640625 336.265625 798.1640625 304.303710938 791.951171875 c 128,-1,71
 272.340820312 785.737304688 272.340820312 785.737304688 245.797851562 769.673828125 c 128,-1,72
 219.255859375 753.610351562 219.255859375 753.610351562 202.375976562 723.501953125 c 128,-1,73
 185.497070312 693.393554688 185.497070312 693.393554688 186.359375 657.766601562 c 0,74,75
 187.590820312 603.53125 187.590820312 603.53125 226.98046875 565.373046875 c 2,76,-1
 391.85546875 399.701171875 l 1,77,78
 364.375976562 372.22265625 364.375976562 372.22265625 309.41796875 316.865234375 c 128,-1,79
 254.459960938 261.509765625 254.459960938 261.509765625 226.98046875 234.030273438 c 0,80,81
 202.686523438 209.736328125 202.686523438 209.736328125 194.32421875 184.647460938 c 0,82,83
 182.17578125 155.663085938 182.17578125 155.663085938 188.125976562 124.063476562 c 128,-1,84
 194.077148438 92.4638671875 194.077148438 92.4638671875 209.85546875 66.16796875 c 128,-1,85
 225.634765625 39.8720703125 225.634765625 39.8720703125 255.479492188 22.908203125 c 128,-1,86
 285.325195312 5.9443359375 285.325195312 5.9443359375 320.966796875 6.2314453125 c 0,87,88
 376.374023438 6.2314453125 376.374023438 6.2314453125 414.954101562 46.056640625 c 2,89,-1
 580.625 211.727539062 l 1,90,-1
 745.5 46.056640625 l 2,91,92
 755.852539062 35.7041015625 755.852539062 35.7041015625 765.412109375 29.330078125 c 0,93,94
 792.874023438 10.1357421875 792.874023438 10.1357421875 829.544921875 8.3134765625 c 128,-1,95
 866.215820312 6.4912109375 866.215820312 6.4912109375 898.487304688 20.0673828125 c 128,-1,96
 930.7578125 33.6435546875 930.7578125 33.6435546875 952.853515625 66.134765625 c 128,-1,97
 974.948242188 98.625 974.948242188 98.625 974.094726562 142.432617188 c 0,98,99
 972.861328125 195.438476562 972.861328125 195.438476562 934.26953125 234.030273438 c 2,100,-1
 768.598632812 399.701171875 l 1,101,102
 787.19140625 418.293945312 787.19140625 418.293945312 821.081054688 452.360351562 c 128,-1,103
 854.969726562 486.426757812 854.969726562 486.426757812 882.849609375 514.306640625 c 128,-1,104
 910.729492188 542.186523438 910.729492188 542.186523438 935.862304688 566.965820312 c 0,105,106
 943.428710938 574.53125 943.428710938 574.53125 949.403320312 582.895507812 c 0,107,108
 969.305664062 610.407226562 969.305664062 610.407226562 971.10546875 647.147460938 c 128,-1,109
 972.904296875 683.888671875 972.904296875 683.888671875 959.138671875 716 c 128,-1,110
 945.373046875 748.112304688 945.373046875 748.112304688 914.3046875 770.75390625 c 128,-1,111
 883.236328125 793.395507812 883.236328125 793.395507812 842.672851562 793.966796875 c 2,112,-1
 837.096679688 793.966796875 l 2,61,62
EndSplineSet
EndChar

StartChar: Ccircumflex
Encoding: 264 264 15
Width: 1172
VWidth: 1100
GlyphClass: 2
Flags: W
LayerCount: 2
Fore
SplineSet
983.223632812 899.646484375 m 2,0,1
 1024.83496094 897.234375 1024.83496094 897.234375 1055.6875 867.805664062 c 128,-1,2
 1086.54003906 838.376953125 1086.54003906 838.376953125 1091.25097656 794.796875 c 0,3,4
 1094.97851562 762.607421875 1094.97851562 762.607421875 1086.5234375 724.938476562 c 128,-1,5
 1078.06835938 687.268554688 1078.06835938 687.268554688 1068.24804688 664.034179688 c 128,-1,6
 1058.42773438 640.798828125 1058.42773438 640.798828125 1038.75195312 599.921875 c 0,7,8
 1033.46679688 588.940429688 1033.46679688 588.940429688 1030.8828125 583.5078125 c 0,9,10
 882.09765625 267.170898438 882.09765625 267.170898438 702.829101562 56.080078125 c 0,11,12
 645.015625 -11.7255859375 645.015625 -11.7255859375 586.796875 -53.2275390625 c 128,-1,13
 528.579101562 -94.73046875 528.579101562 -94.73046875 459.767578125 -99.6064453125 c 0,14,15
 399.2734375 -103.6015625 399.2734375 -103.6015625 342.655273438 -69.783203125 c 128,-1,16
 286.037109375 -35.9658203125 286.037109375 -35.9658203125 244.506835938 21.923828125 c 0,17,18
 162.747070312 136.864257812 162.747070312 136.864257812 107.883789062 269.751953125 c 0,19,20
 92.0361328125 308.438476562 92.0361328125 308.438476562 84.6533203125 339.359375 c 128,-1,21
 77.26953125 370.28125 77.26953125 370.28125 81.6025390625 408.78515625 c 128,-1,22
 85.9345703125 447.290039062 85.9345703125 447.290039062 108.678710938 477.86328125 c 0,23,24
 152.012695312 534.049804688 152.012695312 534.049804688 231.698242188 528.8984375 c 128,-1,25
 311.384765625 523.747070312 311.384765625 523.747070312 377.953125 461.977539062 c 0,26,27
 395.8984375 445.177734375 395.8984375 445.177734375 428.30859375 404.813476562 c 128,-1,28
 460.71875 364.450195312 460.71875 364.450195312 480.419921875 346.80078125 c 1,29,30
 505.876953125 364.317382812 505.876953125 364.317382812 525.696289062 385.72265625 c 0,31,32
 579.560546875 442.579101562 579.560546875 442.579101562 636.881835938 526.858398438 c 128,-1,33
 694.204101562 611.138671875 694.204101562 611.138671875 751.831054688 696.553710938 c 128,-1,34
 809.458984375 781.96875 809.458984375 781.96875 862.487304688 839.278320312 c 0,35,36
 915.885742188 895.64453125 915.885742188 895.64453125 968.92578125 899.646484375 c 1,37,-1
 983.223632812 899.646484375 l 2,0,1
977.6640625 794.002929688 m 0,38,39
 971.514648438 793.775390625 971.514648438 793.775390625 965.731445312 791.19140625 c 128,-1,40
 959.947265625 788.608398438 959.947265625 788.608398438 953.39453125 782.249023438 c 128,-1,41
 946.840820312 775.888671875 946.840820312 775.888671875 943.248046875 771.950195312 c 128,-1,42
 939.655273438 768.01171875 939.655273438 768.01171875 931.673828125 757.860351562 c 128,-1,43
 923.693359375 747.708984375 923.693359375 747.708984375 921.266601562 744.754882812 c 0,44,45
 876.379882812 689.927734375 876.379882812 689.927734375 817.508789062 599.793945312 c 128,-1,46
 758.637695312 509.661132812 758.637695312 509.661132812 701.20703125 430.333984375 c 128,-1,47
 643.776367188 351.005859375 643.776367188 351.005859375 582.092773438 292.787109375 c 0,48,49
 482.934570312 198.7578125 482.934570312 198.7578125 404.959960938 272.928710938 c 0,50,51
 387.67578125 289.403320312 387.67578125 289.403320312 361.333007812 323.377929688 c 128,-1,52
 334.990234375 357.3515625 334.990234375 357.3515625 309.845703125 381.874023438 c 128,-1,53
 284.701171875 406.396484375 284.701171875 406.396484375 254.0390625 419.083984375 c 0,54,55
 252.84765625 419.48046875 252.84765625 419.48046875 250.067382812 420.671875 c 128,-1,56
 247.287109375 421.86328125 247.287109375 421.86328125 246.095703125 422.260742188 c 0,57,58
 241.333007812 423.849609375 241.333007812 423.849609375 238.947265625 423.849609375 c 0,59,60
 238.15234375 424.247070312 238.15234375 424.247070312 236.563476562 424.64453125 c 128,-1,61
 234.974609375 425.041992188 234.974609375 425.041992188 234.180664062 425.438476562 c 0,62,63
 217.638671875 428.747070312 217.638671875 428.747070312 202.517578125 420.381835938 c 128,-1,64
 187.395507812 412.016601562 187.395507812 412.016601562 185.727539062 393.666015625 c 0,65,66
 183.692382812 390.583007812 183.692382812 390.583007812 185.293945312 381.490234375 c 128,-1,67
 186.89453125 372.396484375 186.89453125 372.396484375 186.26171875 369.270507812 c 128,-1,68
 185.627929688 366.14453125 185.627929688 366.14453125 188.458007812 357.013671875 c 128,-1,69
 191.2890625 347.8828125 191.2890625 347.8828125 191.713867188 344.72265625 c 128,-1,70
 192.137695312 341.563476562 192.137695312 341.563476562 195.85546875 332.403320312 c 128,-1,71
 199.572265625 323.244140625 199.572265625 323.244140625 200.711914062 320.060546875 c 128,-1,72
 201.850585938 316.876953125 201.850585938 316.876953125 206.111328125 307.698242188 c 128,-1,73
 210.372070312 298.51953125 210.372070312 298.51953125 211.8828125 295.322265625 c 128,-1,74
 213.393554688 292.125 213.393554688 292.125 217.854492188 282.936523438 c 128,-1,75
 222.314453125 273.748046875 222.314453125 273.748046875 223.854492188 270.545898438 c 0,76,77
 250.415039062 214.66015625 250.415039062 214.66015625 264.625 186.59375 c 128,-1,78
 278.8359375 158.52734375 278.8359375 158.52734375 306.204101562 116.203125 c 128,-1,79
 333.573242188 73.8779296875 333.573242188 73.8779296875 361.272460938 46.5478515625 c 0,80,81
 392.431640625 16.0126953125 392.431640625 16.0126953125 433.05859375 10.505859375 c 128,-1,82
 473.685546875 4.9990234375 473.685546875 4.9990234375 518.546875 29.8671875 c 0,83,84
 551.58203125 49.5400390625 551.58203125 49.5400390625 584.603515625 82.4814453125 c 128,-1,85
 617.625 115.422851562 617.625 115.422851562 637.567382812 141.413085938 c 128,-1,86
 657.509765625 167.403320312 657.509765625 167.403320312 689.326171875 212.560546875 c 0,87,88
 866.275390625 461.1015625 866.275390625 461.1015625 957.01171875 678.032226562 c 0,89,90
 957.921875 680.228515625 957.921875 680.228515625 965.004882812 696.755859375 c 128,-1,91
 972.086914062 713.283203125 972.086914062 713.283203125 974.048828125 718.881835938 c 128,-1,92
 976.01171875 724.481445312 976.01171875 724.481445312 980.23046875 737.361328125 c 128,-1,93
 984.44921875 750.240234375 984.44921875 750.240234375 985.65234375 760.25 c 128,-1,94
 986.856445312 770.260742188 986.856445312 770.260742188 986.401367188 780.499023438 c 2,95,-1
 986.401367188 782.881835938 l 2,96,97
 984.811523438 794.002929688 984.811523438 794.002929688 977.6640625 794.002929688 c 0,38,39
EndSplineSet
EndChar

StartChar: ccircumflex
Encoding: 265 265 16
Width: 1088
VWidth: 1100
GlyphClass: 2
Flags: W
LayerCount: 2
Fore
SplineSet
230.471679688 900 m 2,0,1
 244.850585938 900 244.850585938 900 255.124023438 896.918945312 c 0,2,3
 280.286132812 891.885742188 280.286132812 891.885742188 308.051757812 878.20703125 c 128,-1,4
 335.817382812 864.528320312 335.817382812 864.528320312 353.188476562 852.715820312 c 128,-1,5
 370.560546875 840.90234375 370.560546875 840.90234375 399.954101562 819.110351562 c 0,6,7
 464.216796875 771.168945312 464.216796875 771.168945312 540.932617188 703.5546875 c 1,8,9
 548.006835938 709.986328125 548.006835938 709.986328125 562.2109375 723.185546875 c 0,10,11
 592.9453125 751.749023438 592.9453125 751.749023438 610.434570312 766.309570312 c 128,-1,12
 627.923828125 780.87109375 627.923828125 780.87109375 656.783203125 800.033203125 c 128,-1,13
 685.642578125 819.196289062 685.642578125 819.196289062 713.971679688 825.744140625 c 128,-1,14
 742.301757812 832.29296875 742.301757812 832.29296875 772.814453125 828.35546875 c 0,15,16
 818.317382812 822.01953125 818.317382812 822.01953125 850.544921875 785.495117188 c 128,-1,17
 882.772460938 748.969726562 882.772460938 748.969726562 886.830078125 699.703125 c 0,18,19
 889.02734375 668.942382812 889.02734375 668.942382812 883.502929688 638.383789062 c 128,-1,20
 877.978515625 607.82421875 877.978515625 607.82421875 861.268554688 570.463867188 c 128,-1,21
 844.55859375 533.102539062 844.55859375 533.102539062 834.391601562 513.703125 c 128,-1,22
 824.225585938 494.302734375 824.225585938 494.302734375 799.0078125 449.331054688 c 1,23,-1
 797.466796875 445.479492188 l 1,24,25
 945.790039062 273.143554688 945.790039062 273.143554688 994.682617188 131.166992188 c 0,26,27
 1006.7734375 95.296875 1006.7734375 95.296875 1008.35253906 59.5107421875 c 128,-1,28
 1009.93164062 23.7236328125 1009.93164062 23.7236328125 997.447265625 -11.083984375 c 128,-1,29
 984.961914062 -45.890625 984.961914062 -45.890625 957.704101562 -68.359375 c 0,30,31
 937.2265625 -85.603515625 937.2265625 -85.603515625 917.473632812 -93.240234375 c 128,-1,32
 897.720703125 -100.875976562 897.720703125 -100.875976562 882.892578125 -99.9736328125 c 128,-1,33
 868.064453125 -99.0712890625 868.064453125 -99.0712890625 851.392578125 -97.6337890625 c 0,34,35
 823.9375 -94.064453125 823.9375 -94.064453125 797.59765625 -82.724609375 c 128,-1,36
 771.256835938 -71.384765625 771.256835938 -71.384765625 743.4453125 -50.0341796875 c 128,-1,37
 715.633789062 -28.6845703125 715.633789062 -28.6845703125 698.7734375 -13.65625 c 128,-1,38
 681.912109375 1.3720703125 681.912109375 1.3720703125 651.866210938 30.248046875 c 0,39,40
 630.333984375 50.4619140625 630.333984375 50.4619140625 591.51171875 88.2783203125 c 128,-1,41
 552.689453125 126.095703125 552.689453125 126.095703125 540.162109375 138.100585938 c 1,42,43
 523.953125 123.43359375 523.953125 123.43359375 507.806640625 108.055664062 c 0,44,45
 450.798828125 55.6708984375 450.798828125 55.6708984375 421.524414062 29.4775390625 c 0,46,47
 387.830078125 -1.107421875 387.830078125 -1.107421875 368.814453125 -16.634765625 c 128,-1,48
 349.799804688 -32.1630859375 349.799804688 -32.1630859375 317.334960938 -49.2099609375 c 128,-1,49
 284.869140625 -66.2578125 284.869140625 -66.2578125 254.353515625 -69.1298828125 c 0,50,51
 201.7421875 -74.390625 201.7421875 -74.390625 157.041992188 -40.3515625 c 128,-1,52
 112.341796875 -6.3125 112.341796875 -6.3125 92.048828125 52.0576171875 c 128,-1,53
 71.755859375 110.428710938 71.755859375 110.428710938 85.6416015625 171.2265625 c 0,54,55
 94.5244140625 209.891601562 94.5244140625 209.891601562 112.545898438 246.353515625 c 128,-1,56
 130.56640625 282.815429688 130.56640625 282.815429688 160.880859375 320.634765625 c 128,-1,57
 191.194335938 358.453125 191.194335938 358.453125 212.3828125 381.529296875 c 128,-1,58
 233.572265625 404.604492188 233.572265625 404.604492188 273.641601562 445.303710938 c 0,59,60
 281.85546875 453.646484375 281.85546875 453.646484375 285.938476562 457.805664062 c 1,61,62
 241.958984375 515.678710938 241.958984375 515.678710938 207.360351562 564.1171875 c 0,63,64
 204.447265625 568.178710938 204.447265625 568.178710938 186.939453125 592.276367188 c 128,-1,65
 169.431640625 616.373046875 169.431640625 616.373046875 164.866210938 623.076171875 c 128,-1,66
 160.30078125 629.780273438 160.30078125 629.780273438 146.116210938 651.655273438 c 128,-1,67
 131.930664062 673.529296875 131.930664062 673.529296875 127.671875 683.647460938 c 128,-1,68
 123.413085938 693.765625 123.413085938 693.765625 115.041992188 713.489257812 c 128,-1,69
 106.670898438 733.213867188 106.670898438 733.213867188 105.2109375 746.818359375 c 128,-1,70
 103.75 760.422851562 103.75 760.422851562 103.685546875 778.068359375 c 128,-1,71
 103.620117188 795.71484375 103.620117188 795.71484375 107.982421875 812.177734375 c 0,72,73
 118.34375 850.166992188 118.34375 850.166992188 152.180664062 875.083007812 c 128,-1,74
 186.018554688 900 186.018554688 900 226.620117188 900 c 2,75,-1
 230.471679688 900 l 2,0,1
225.849609375 797.540039062 m 0,76,77
 192.797851562 796.805664062 192.797851562 796.805664062 225.575195312 726.715820312 c 0,78,79
 236.473632812 703.411132812 236.473632812 703.411132812 251.271484375 681.213867188 c 0,80,81
 292.762695312 617.318359375 292.762695312 617.318359375 377.61328125 508.650390625 c 2,82,-1
 423.065429688 450.1015625 l 1,83,84
 406.775390625 433.495117188 406.775390625 433.495117188 364.025390625 391.971679688 c 128,-1,85
 321.275390625 350.448242188 321.275390625 350.448242188 299.201171875 327.458984375 c 128,-1,86
 277.127929688 304.470703125 277.127929688 304.470703125 248.204101562 266.737304688 c 128,-1,87
 219.280273438 229.00390625 219.280273438 229.00390625 201.967773438 193.567382812 c 0,88,89
 162.692382812 113.561523438 162.692382812 113.561523438 198.88671875 58.751953125 c 0,90,91
 210.25390625 41.4013671875 210.25390625 41.4013671875 231.2421875 36.603515625 c 128,-1,92
 252.23046875 31.806640625 252.23046875 31.806640625 275.153320312 43.3447265625 c 0,93,94
 297.021484375 55.3359375 297.021484375 55.3359375 339.865234375 93.4189453125 c 0,95,96
 427.071289062 172.592773438 427.071289062 172.592773438 513.969726562 255.967773438 c 2,97,-1
 517.821289062 259.819335938 l 2,98,99
 519.4609375 261.265625 519.4609375 261.265625 522.887695312 264.514648438 c 128,-1,100
 526.313476562 267.763671875 526.313476562 267.763671875 527.646484375 268.801757812 c 128,-1,101
 528.979492188 269.840820312 528.979492188 269.840820312 531.831054688 271.62109375 c 128,-1,102
 534.682617188 273.401367188 534.682617188 273.401367188 536.670898438 273.172851562 c 128,-1,103
 538.659179688 272.944335938 538.659179688 272.944335938 541.798828125 272.3125 c 128,-1,104
 544.938476562 271.681640625 544.938476562 271.681640625 548.444335938 269.2421875 c 128,-1,105
 551.950195312 266.803710938 551.950195312 266.803710938 556.33984375 262.901367188 c 0,106,107
 589.666015625 234.296875 589.666015625 234.296875 639.056640625 181.983398438 c 128,-1,108
 688.446289062 129.669921875 688.446289062 129.669921875 734.266601562 87.541015625 c 128,-1,109
 780.087890625 45.4130859375 780.087890625 45.4130859375 828.282226562 17.921875 c 0,110,111
 829.182617188 17.4716796875 829.182617188 17.4716796875 832.625976562 15.4462890625 c 128,-1,112
 836.0703125 13.419921875 836.0703125 13.419921875 838.296875 12.529296875 c 0,113,114
 839.596679688 11.6630859375 839.596679688 11.6630859375 842.604492188 10.4599609375 c 128,-1,115
 845.61328125 9.2568359375 845.61328125 9.2568359375 846.770507812 8.677734375 c 0,116,117
 848.309570312 7.908203125 848.309570312 7.908203125 852.93359375 6.3662109375 c 0,118,119
 870.653320312 0.8671875 870.653320312 0.8671875 887.926757812 11.103515625 c 128,-1,120
 905.201171875 21.33984375 905.201171875 21.33984375 906.860351562 41.8037109375 c 0,121,122
 908.294921875 59.73828125 908.294921875 59.73828125 902.559570312 81.73828125 c 128,-1,123
 896.82421875 103.73828125 896.82421875 103.73828125 890.874023438 117.16796875 c 128,-1,124
 884.922851562 130.598632812 884.922851562 130.598632812 872.193359375 156.58984375 c 0,125,126
 814.778320312 269.473632812 814.778320312 269.473632812 698.859375 401.568359375 c 1,127,-1
 677.288085938 430.842773438 l 2,128,129
 676.74609375 434.912109375 676.74609375 434.912109375 678.16796875 440.010742188 c 128,-1,130
 679.590820312 445.109375 679.590820312 445.109375 681.2109375 448.397460938 c 128,-1,131
 682.83203125 451.685546875 682.83203125 451.685546875 686.71484375 458.499023438 c 128,-1,132
 690.598632812 465.3125 690.598632812 465.3125 691.92578125 467.8203125 c 0,133,134
 700.350585938 483.774414062 700.350585938 483.774414062 719.83984375 517.475585938 c 128,-1,135
 739.328125 551.177734375 739.328125 551.177734375 749.956054688 571.204101562 c 128,-1,136
 760.583984375 591.23046875 760.583984375 591.23046875 771.26171875 621.427734375 c 128,-1,137
 781.939453125 651.625 781.939453125 651.625 784.370117188 678.90234375 c 0,138,139
 785.68359375 696.626953125 785.68359375 696.626953125 779.028320312 710.844726562 c 128,-1,140
 772.373046875 725.0625 772.373046875 725.0625 757.407226562 726.666015625 c 0,141,142
 749.318359375 726.666015625 749.318359375 726.666015625 741.229492188 724.354492188 c 0,143,144
 738.149414062 724.354492188 738.149414062 724.354492188 736.607421875 722.814453125 c 0,145,146
 735.452148438 722.4296875 735.452148438 722.4296875 733.526367188 721.658203125 c 128,-1,147
 731.600585938 720.888671875 731.600585938 720.888671875 730.444335938 720.502929688 c 128,-1,148
 729.2890625 720.118164062 729.2890625 720.118164062 726.978515625 718.961914062 c 128,-1,149
 724.666992188 717.806640625 724.666992188 717.806640625 723.510742188 717.421875 c 0,150,151
 695.624023438 702.961914062 695.624023438 702.961914062 668.736328125 680.78515625 c 128,-1,152
 641.849609375 658.608398438 641.849609375 658.608398438 609.059570312 626.689453125 c 128,-1,153
 576.26953125 594.770507812 576.26953125 594.770507812 559.420898438 580.294921875 c 0,154,155
 557.881835938 579.525390625 557.881835938 579.525390625 555.569335938 577.213867188 c 0,156,157
 543.7578125 567.369140625 543.7578125 567.369140625 539.391601562 570.280273438 c 0,158,159
 521.713867188 583.854492188 521.713867188 583.854492188 429.114257812 663.31640625 c 128,-1,160
 336.515625 742.77734375 336.515625 742.77734375 279.005859375 776.740234375 c 0,161,162
 243.805664062 797.540039062 243.805664062 797.540039062 225.849609375 797.540039062 c 0,76,77
EndSplineSet
EndChar

StartChar: Cdotaccent
Encoding: 266 266 17
Width: 1499
VWidth: 1100
GlyphClass: 2
Flags: W
LayerCount: 2
Fore
SplineSet
1207.84960938 899.98046875 m 0,0,1
 1295.88671875 898.766601562 1295.88671875 898.766601562 1360.65917969 830.885742188 c 128,-1,2
 1425.43164062 763.005859375 1425.43164062 763.005859375 1418.95605469 672.94140625 c 0,3,4
 1412.72265625 594.388671875 1412.72265625 594.388671875 1357.61621094 536.717773438 c 0,5,6
 1250.07324219 427.831054688 1250.07324219 427.831054688 1051.46777344 230.046875 c 128,-1,7
 852.861328125 32.2626953125 852.861328125 32.2626953125 780.857421875 -40.0400390625 c 0,8,9
 722.5078125 -97.1748046875 722.5078125 -97.1748046875 636.66796875 -99.88671875 c 128,-1,10
 550.827148438 -102.599609375 550.827148438 -102.599609375 485.30859375 -45.6171875 c 1,11,-1
 479.731445312 -40.0400390625 l 2,12,13
 451.194335938 -11.5029296875 451.194335938 -11.5029296875 328.439453125 112.114257812 c 128,-1,14
 205.685546875 235.732421875 205.685546875 235.732421875 138.775390625 301.712890625 c 0,15,16
 99.39453125 342.275390625 99.39453125 342.275390625 85.962890625 400.036132812 c 128,-1,17
 72.53125 457.797851562 72.53125 457.797851562 89.353515625 515.93359375 c 128,-1,18
 106.17578125 574.069335938 106.17578125 574.069335938 150.724609375 613.194335938 c 0,19,20
 208.8828125 664.342773438 208.8828125 664.342773438 293.12109375 662.884765625 c 128,-1,21
 377.360351562 661.42578125 377.360351562 661.42578125 436.713867188 606.821289062 c 0,22,23
 437.509765625 606.025390625 437.509765625 606.025390625 439.501953125 604.432617188 c 128,-1,24
 441.493164062 602.838867188 441.493164062 602.838867188 442.290039062 602.041992188 c 2,25,-1
 630.294921875 413.241210938 l 1,26,-1
 1053.30371094 836.25 l 2,27,28
 1118.27832031 901.224609375 1118.27832031 901.224609375 1207.84960938 899.98046875 c 0,0,1
1202.2734375 794.029296875 m 0,29,30
 1156.55859375 791.338867188 1156.55859375 791.338867188 1128.98339844 761.3671875 c 2,31,-1
 630.294921875 263.474609375 l 1,32,33
 601.096679688 292.672851562 601.096679688 292.672851562 547.514648438 346.608398438 c 128,-1,34
 493.93359375 400.543945312 493.93359375 400.543945312 449.920898438 444.556640625 c 128,-1,35
 405.909179688 488.568359375 405.909179688 488.568359375 366.610351562 527.159179688 c 0,36,37
 364.220703125 529.548828125 364.220703125 529.548828125 357.84765625 534.328125 c 0,38,39
 335.584960938 551.318359375 335.584960938 551.318359375 305.888671875 554.360351562 c 128,-1,40
 276.193359375 557.40234375 276.193359375 557.40234375 249.9453125 547.8671875 c 128,-1,41
 223.698242188 538.333007812 223.698242188 538.333007812 204.54296875 514.653320312 c 128,-1,42
 185.388671875 490.97265625 185.388671875 490.97265625 183.385742188 458.6484375 c 0,43,44
 180.8359375 408.91015625 180.8359375 408.91015625 216.047851562 375.002929688 c 0,45,46
 244.287109375 346.763671875 244.287109375 346.763671875 366.62109375 223.56640625 c 128,-1,47
 488.955078125 100.370117188 488.955078125 100.370117188 555.411132812 34.8427734375 c 0,48,49
 584.973632812 6.4873046875 584.973632812 6.4873046875 629.3984375 6.1640625 c 128,-1,50
 673.823242188 5.8408203125 673.823242188 5.8408203125 705.177734375 34.8427734375 c 0,51,52
 995.547851562 320.43359375 995.547851562 320.43359375 1281.13964844 610.8046875 c 0,53,54
 1302.92089844 633.794921875 1302.92089844 633.794921875 1309.91796875 665.671875 c 128,-1,55
 1316.91503906 697.548828125 1316.91503906 697.548828125 1305.83496094 727.112304688 c 0,56,57
 1293.38671875 757.34375 1293.38671875 757.34375 1264.69726562 775.686523438 c 128,-1,58
 1236.0078125 794.029296875 1236.0078125 794.029296875 1202.2734375 794.029296875 c 0,29,30
EndSplineSet
EndChar

StartChar: cdotaccent
Encoding: 267 267 18
Width: 1160
VWidth: 1100
GlyphClass: 2
Flags: W
LayerCount: 2
Fore
SplineSet
296.592773438 899.805664062 m 2,0,1
 382.893554688 898.5546875 382.893554688 898.5546875 445.232421875 836.215820312 c 2,2,-1
 581.154296875 700.293945312 l 1,3,-1
 717.076171875 837.010742188 l 2,4,5
 774.90234375 893.580078125 774.90234375 893.580078125 854.587890625 899.805664062 c 0,6,7
 908.874023438 902.999023438 908.874023438 902.999023438 957.125976562 880.728515625 c 0,8,9
 1030.33007812 847.454101562 1030.33007812 847.454101562 1063.36132812 766.979492188 c 128,-1,10
 1096.39355469 686.504882812 1096.39355469 686.504882812 1065.22753906 608.884765625 c 0,11,12
 1046.86621094 564.29296875 1046.86621094 564.29296875 1018.33007812 535.756835938 c 2,13,-1
 882.408203125 399.834960938 l 1,14,-1
 1018.33007812 263.913085938 l 1,15,16
 1053.33105469 220.921875 1053.33105469 220.921875 1066.81738281 186.015625 c 0,17,18
 1084.33886719 132.572265625 1084.33886719 132.572265625 1076.70898438 79.6806640625 c 128,-1,19
 1069.07910156 26.7890625 1069.07910156 26.7890625 1034.13964844 -19.236328125 c 128,-1,20
 999.200195312 -65.2607421875 999.200195312 -65.2607421875 947.586914062 -85.828125 c 0,21,22
 889.8359375 -108.555664062 889.8359375 -108.555664062 825.774414062 -95.3662109375 c 128,-1,23
 761.712890625 -82.1767578125 761.712890625 -82.1767578125 717.076171875 -38.1357421875 c 2,24,-1
 581.154296875 98.5810546875 l 1,25,-1
 444.4375 -38.1357421875 l 2,26,27
 407.805664062 -69.1640625 407.805664062 -69.1640625 372.899414062 -83.443359375 c 0,28,29
 340.866210938 -96.5302734375 340.866210938 -96.5302734375 304.560546875 -97.3837890625 c 128,-1,30
 268.25390625 -98.2373046875 268.25390625 -98.2373046875 234.341796875 -88.3154296875 c 128,-1,31
 200.430664062 -78.392578125 200.430664062 -78.392578125 169.985351562 -57.44921875 c 128,-1,32
 139.5390625 -36.5048828125 139.5390625 -36.5048828125 118.115234375 -8.416015625 c 128,-1,33
 96.69140625 19.671875 96.69140625 19.671875 86.5458984375 57.732421875 c 128,-1,34
 76.4013671875 95.79296875 76.4013671875 95.79296875 81.978515625 137.529296875 c 0,35,36
 91.810546875 210.033203125 91.810546875 210.033203125 143.18359375 263.913085938 c 2,37,-1
 279.10546875 399.834960938 l 1,38,-1
 143.18359375 535.756835938 l 2,39,40
 112.154296875 571.59375 112.154296875 571.59375 97.0810546875 606.5 c 0,41,42
 80.1669921875 647.168945312 80.1669921875 647.168945312 80.7861328125 693.338867188 c 128,-1,43
 81.40625 739.508789062 81.40625 739.508789062 100.260742188 778.985351562 c 0,44,45
 125.9140625 832.6796875 125.9140625 832.6796875 178.388671875 865.944335938 c 128,-1,46
 230.86328125 899.209960938 230.86328125 899.209960938 291.028320312 899.805664062 c 2,47,-1
 296.592773438 899.805664062 l 2,0,1
864.920898438 794.087890625 m 0,48,49
 821.848632812 791.553710938 821.848632812 791.553710938 791.793945312 761.499023438 c 2,50,-1
 581.154296875 550.859375 l 1,51,52
 557.659179688 574.354492188 557.659179688 574.354492188 483.114257812 648.274414062 c 128,-1,53
 408.5703125 722.194335938 408.5703125 722.194335938 368.130859375 763.088867188 c 0,54,55
 365.448242188 765.770507812 365.448242188 765.770507812 363.262695312 767.55859375 c 128,-1,56
 361.076171875 769.34765625 361.076171875 769.34765625 360.181640625 770.2421875 c 0,57,58
 321.127929688 800.756835938 321.127929688 800.756835938 267.282226562 787.927734375 c 128,-1,59
 213.435546875 775.099609375 213.435546875 775.099609375 194.0546875 728.114257812 c 0,60,61
 181.939453125 698.48828125 181.939453125 698.48828125 189.086914062 666.015625 c 128,-1,62
 196.233398438 633.54296875 196.233398438 633.54296875 218.6953125 610.474609375 c 2,63,-1
 429.334960938 399.834960938 l 1,64,65
 405.724609375 376.224609375 405.724609375 376.224609375 362.537109375 333.212890625 c 128,-1,66
 319.348632812 290.202148438 319.348632812 290.202148438 284.168945312 255.022460938 c 128,-1,67
 248.98828125 219.841796875 248.98828125 219.841796875 217.900390625 188.400390625 c 0,68,69
 215.516601562 186.016601562 215.516601562 186.016601562 210.747070312 179.657226562 c 0,70,71
 180.836914062 141.225585938 180.836914062 141.225585938 192.266601562 88.4462890625 c 128,-1,72
 203.696289062 35.66796875 203.696289062 35.66796875 248.900390625 15.1201171875 c 0,73,74
 278.327148438 1.6181640625 278.327148438 1.6181640625 312.291015625 8.0654296875 c 128,-1,75
 346.254882812 14.51171875 346.254882812 14.51171875 369.719726562 37.3759765625 c 2,76,-1
 581.154296875 248.810546875 l 1,77,-1
 791.793945312 37.3759765625 l 2,78,79
 793.98046875 35.189453125 793.98046875 35.189453125 795.967773438 33.599609375 c 128,-1,80
 797.955078125 32.009765625 797.955078125 32.009765625 798.947265625 31.017578125 c 0,81,82
 824.477539062 10.986328125 824.477539062 10.986328125 859.125976562 8.787109375 c 128,-1,83
 893.775390625 6.587890625 893.775390625 6.587890625 924.502929688 23.572265625 c 128,-1,84
 955.23046875 40.5576171875 955.23046875 40.5576171875 968.25390625 72.3505859375 c 0,85,86
 979.77734375 102.568359375 979.77734375 102.568359375 972.526367188 134.349609375 c 128,-1,87
 965.275390625 166.130859375 965.275390625 166.130859375 942.818359375 189.1953125 c 2,88,-1
 732.178710938 399.834960938 l 1,89,90
 755.7890625 423.4453125 755.7890625 423.4453125 798.9765625 466.45703125 c 128,-1,91
 842.165039062 509.467773438 842.165039062 509.467773438 877.344726562 544.647460938 c 128,-1,92
 912.525390625 579.828125 912.525390625 579.828125 943.61328125 611.26953125 c 0,93,94
 946.791992188 614.448242188 946.791992188 614.448242188 951.561523438 620.807617188 c 0,95,96
 969.282226562 644.638671875 969.282226562 644.638671875 973.71875 674.163085938 c 128,-1,97
 978.155273438 703.686523438 978.155273438 703.686523438 966.6640625 730.499023438 c 0,98,99
 953.625976562 759.538085938 953.625976562 759.538085938 925.767578125 776.8125 c 128,-1,100
 897.91015625 794.087890625 897.91015625 794.087890625 864.920898438 794.087890625 c 0,48,49
EndSplineSet
EndChar

StartChar: Tcaron
Encoding: 356 356 19
Width: 1161
VWidth: 200
GlyphClass: 2
Flags: W
LayerCount: 2
Fore
SplineSet
320.643554688 806.630859375 m 0,0,1
 381.096679688 805.37109375 381.096679688 805.37109375 422.999023438 762.197265625 c 0,2,3
 450.788085938 730.396484375 450.788085938 730.396484375 459.498046875 698.720703125 c 0,4,5
 462.779296875 697.783203125 462.779296875 697.783203125 465.302734375 696.731445312 c 128,-1,6
 467.826171875 695.680664062 467.826171875 695.680664062 468.2265625 695.546875 c 0,7,8
 471.389648438 694.642578125 471.389648438 694.642578125 484.095703125 689.19921875 c 0,9,10
 493.6171875 684.967773438 493.6171875 684.967773438 504.923828125 676.833984375 c 128,-1,11
 516.23046875 668.701171875 516.23046875 668.701171875 522.776367188 662.684570312 c 2,12,-1
 529.322265625 656.666992188 l 2,13,14
 529.51953125 656.37109375 529.51953125 656.37109375 531.900390625 653.395507812 c 128,-1,15
 534.280273438 650.418945312 534.280273438 650.418945312 538.049804688 644.765625 c 0,16,17
 565.033203125 603.434570312 565.033203125 603.434570312 568.201171875 567.006835938 c 1,18,-1
 580.103515625 567.006835938 l 1,19,-1
 594.385742188 567.80078125 l 1,20,21
 598.142578125 619.149414062 598.142578125 619.149414062 631.677734375 655.080078125 c 0,22,23
 644.63671875 668.0390625 644.63671875 668.0390625 649.927734375 671.743164062 c 0,24,25
 658.390625 678.08984375 658.390625 678.08984375 661.036132812 679.677734375 c 0,26,27
 676.178710938 688.33203125 676.178710938 688.33203125 678.4921875 689.19921875 c 2,28,-1
 702.294921875 699.513671875 l 1,29,30
 713.439453125 732.087890625 713.439453125 732.087890625 731.653320312 753.46875 c 0,31,32
 772.075195312 802.337890625 772.075195312 802.337890625 842.041992188 803.654296875 c 128,-1,33
 912.008789062 804.971679688 912.008789062 804.971679688 955.407226562 755.055664062 c 0,34,35
 1033.94921875 662.3046875 1033.94921875 662.3046875 1064.515625 537.938476562 c 128,-1,36
 1095.08203125 413.573242188 1095.08203125 413.573242188 1069.26074219 283.71875 c 128,-1,37
 1043.43847656 153.864257812 1043.43847656 153.864257812 962.548828125 52.8486328125 c 0,38,39
 930.438476562 12.86328125 930.438476562 12.86328125 880.723632812 -1.0078125 c 128,-1,40
 831.008789062 -14.8779296875 831.008789062 -14.8779296875 784.021484375 5.2412109375 c 0,41,42
 758.284179688 16.2705078125 758.284179688 16.2705078125 738.793945312 36.9794921875 c 0,43,44
 711.005859375 68.7802734375 711.005859375 68.7802734375 702.294921875 100.455078125 c 1,45,46
 695.154296875 102.8359375 695.154296875 102.8359375 691.1875 104.422851562 c 0,47,48
 660.862304688 115.338867188 660.862304688 115.338867188 636.438476562 138.541015625 c 0,49,50
 632.454101562 140.948242188 632.454101562 140.948242188 623.743164062 154.41015625 c 0,51,52
 596.759765625 195.741210938 596.759765625 195.741210938 593.591796875 232.168945312 c 1,53,-1
 567.408203125 231.375976562 l 1,54,55
 563.650390625 180.026367188 563.650390625 180.026367188 530.115234375 144.095703125 c 0,56,57
 517.153320312 131.133789062 517.153320312 131.133789062 511.866210938 127.432617188 c 0,58,59
 503.403320312 121.0859375 503.403320312 121.0859375 500.7578125 119.498046875 c 0,60,61
 482.735351562 107.482421875 482.735351562 107.482421875 460.291992188 101.249023438 c 1,62,63
 449.942382812 69.46875 449.942382812 69.46875 432.520507812 48.087890625 c 0,64,65
 392.10546875 -1.9794921875 392.10546875 -1.9794921875 321.93359375 -4.2802734375 c 128,-1,66
 251.760742188 -6.5810546875 251.760742188 -6.5810546875 207.1796875 43.3271484375 c 0,67,68
 126.997070312 136.086914062 126.997070312 136.086914062 96.37109375 261.323242188 c 128,-1,69
 65.7451171875 386.559570312 65.7451171875 386.559570312 92.1171875 516.165039062 c 128,-1,70
 118.489257812 645.771484375 118.489257812 645.771484375 199.245117188 746.328125 c 0,71,72
 221.693359375 774.237304688 221.693359375 774.237304688 253.627929688 790.434570312 c 128,-1,73
 285.5625 806.630859375 285.5625 806.630859375 320.643554688 806.630859375 c 0,0,1
842.737304688 700.307617188 m 0,74,75
 819.90234375 699.690429688 819.90234375 699.690429688 808.123046875 677.495117188 c 128,-1,76
 796.342773438 655.30078125 796.342773438 655.30078125 810.999023438 634.450195312 c 0,77,78
 888.713867188 535.484375 888.713867188 535.484375 893.220703125 408.216796875 c 128,-1,79
 897.7265625 280.948242188 897.7265625 280.948242188 821.313476562 176.626953125 c 0,80,81
 814.544921875 167.602539062 814.544921875 167.602539062 810.30078125 157.431640625 c 128,-1,82
 806.055664062 147.259765625 806.055664062 147.259765625 804.915039062 136.424804688 c 128,-1,83
 803.775390625 125.58984375 803.775390625 125.58984375 809.631835938 116.09765625 c 128,-1,84
 815.48828125 106.604492188 815.48828125 106.604492188 828.455078125 101.249023438 c 0,85,86
 861.795898438 87.357421875 861.795898438 87.357421875 903.833007812 152.030273438 c 0,87,88
 981.43359375 268.9609375 981.43359375 268.9609375 974.946289062 418.630859375 c 128,-1,89
 968.459960938 568.30078125 968.459960938 568.30078125 880.029296875 680.470703125 c 0,90,91
 863.026367188 700.307617188 863.026367188 700.307617188 842.737304688 700.307617188 c 0,74,75
318.263671875 701.100585938 m 0,92,93
 306.1015625 700.732421875 306.1015625 700.732421875 294.020507812 691.219726562 c 128,-1,94
 281.939453125 681.706054688 281.939453125 681.706054688 275.85546875 673.424804688 c 128,-1,95
 269.772460938 665.143554688 269.772460938 665.143554688 257.9609375 647.145507812 c 0,96,97
 180.0546875 529.848632812 180.0546875 529.848632812 186.84765625 380.248046875 c 128,-1,98
 193.640625 230.646484375 193.640625 230.646484375 281.764648438 118.705078125 c 0,99,100
 293.16015625 104.166015625 293.16015625 104.166015625 313.731445312 101.827148438 c 128,-1,101
 334.302734375 99.48828125 334.302734375 99.48828125 348.713867188 112.30859375 c 128,-1,102
 363.125976562 125.129882812 363.125976562 125.129882812 357.935546875 148.856445312 c 0,103,104
 356.590820312 156.252929688 356.590820312 156.252929688 344.447265625 171.866210938 c 0,105,106
 269.967773438 267.368164062 269.967773438 267.368164062 268.077148438 395.125 c 128,-1,107
 266.186523438 522.880859375 266.186523438 522.880859375 340.479492188 622.548828125 c 0,108,109
 358.064453125 643.336914062 358.064453125 643.336914062 357.737304688 665.59375 c 128,-1,110
 357.41015625 687.850585938 357.41015625 687.850585938 333.338867188 697.926757812 c 0,111,112
 326.9921875 701.100585938 326.9921875 701.100585938 318.263671875 701.100585938 c 0,92,93
739.587890625 597.158203125 m 0,113,114
 733.9453125 597.158203125 733.9453125 597.158203125 726.8046875 594.182617188 c 128,-1,115
 719.663085938 591.20703125 719.663085938 591.20703125 715.34375 588.232421875 c 2,116,-1
 711.0234375 585.256835938 l 2,117,118
 700.430664062 574.075195312 700.430664062 574.075195312 700.11328125 557.881835938 c 128,-1,119
 699.795898438 541.688476562 699.795898438 541.688476562 709.436523438 528.127929688 c 0,120,121
 750.078125 471.8359375 750.078125 471.8359375 749.60546875 398.497070312 c 128,-1,122
 749.131835938 325.157226562 749.131835938 325.157226562 707.055664062 267.081054688 c 0,123,124
 703.583984375 262.220703125 703.583984375 262.220703125 700.708007812 253.592773438 c 0,125,126
 694.216796875 231.51953125 694.216796875 231.51953125 711.81640625 213.919921875 c 0,127,128
 716.53125 211.349609375 716.53125 211.349609375 724.125976562 208.40625 c 128,-1,129
 731.720703125 205.462890625 731.720703125 205.462890625 748.966796875 207.001953125 c 128,-1,130
 766.212890625 208.541992188 766.212890625 208.541992188 776.086914062 222.647460938 c 0,131,132
 831.291015625 299.375 831.291015625 299.375 831.1328125 400.083984375 c 128,-1,133
 830.974609375 500.791992188 830.974609375 500.791992188 773.706054688 580.49609375 c 0,134,135
 760.888671875 597.158203125 760.888671875 597.158203125 739.587890625 597.158203125 c 0,113,114
421.412109375 597.158203125 m 0,136,137
 388.369140625 597.158203125 388.369140625 597.158203125 357.142578125 528.127929688 c 0,138,139
 323.432617188 454.635742188 323.432617188 454.635742188 331.653320312 370.7265625 c 128,-1,140
 339.873046875 286.817382812 339.873046875 286.817382812 386.5 221.060546875 c 0,141,142
 396.864257812 205.8203125 396.864257812 205.8203125 416.453125 203.208007812 c 128,-1,143
 436.041992188 200.595703125 436.041992188 200.595703125 449.9765625 213.919921875 c 0,144,145
 450.877929688 215.115234375 450.877929688 215.115234375 452.258789062 217.259765625 c 128,-1,146
 453.639648438 219.404296875 453.639648438 219.404296875 456.397460938 225.966796875 c 128,-1,147
 459.155273438 232.528320312 459.155273438 232.528320312 460.21875 239.006835938 c 128,-1,148
 461.282226562 245.484375 461.282226562 245.484375 459.596679688 254.377929688 c 128,-1,149
 457.911132812 263.272460938 457.911132812 263.272460938 452.357421875 271.047851562 c 0,150,151
 411.715820312 327.33984375 411.715820312 327.33984375 412.188476562 400.678710938 c 128,-1,152
 412.662109375 474.017578125 412.662109375 474.017578125 454.737304688 532.094726562 c 0,153,154
 458.208007812 536.954101562 458.208007812 536.954101562 461.084960938 545.583984375 c 0,155,156
 467.578125 567.655273438 467.578125 567.655273438 449.9765625 585.256835938 c 0,157,158
 438.04296875 597.158203125 438.04296875 597.158203125 421.412109375 597.158203125 c 0,136,137
579.309570312 461.477539062 m 2,159,160
 556.462890625 461.08984375 556.462890625 461.08984375 539.108398438 442.228515625 c 128,-1,161
 521.75390625 423.3671875 521.75390625 423.3671875 520.59375 400.05859375 c 128,-1,162
 519.434570312 376.749023438 519.434570312 376.749023438 536.462890625 355.948242188 c 0,163,164
 557.14453125 334.181640625 557.14453125 334.181640625 591.41015625 340.177734375 c 128,-1,165
 625.67578125 346.174804688 625.67578125 346.174804688 638.025390625 374.991210938 c 0,166,167
 650.237304688 402.46875 650.237304688 402.46875 632.647460938 431.391601562 c 128,-1,168
 615.056640625 460.314453125 615.056640625 460.314453125 582.483398438 461.477539062 c 2,169,-1
 579.309570312 461.477539062 l 2,159,160
EndSplineSet
EndChar

StartChar: uni01D4
Encoding: 468 468 20
Width: 1271
VWidth: 1100
Flags: W
LayerCount: 2
Fore
SplineSet
639.79296875 900 m 1,0,1
 709.76953125 898.750976562 709.76953125 898.750976562 748.71484375 837.190429688 c 2,2,-1
 1177.24902344 94.611328125 l 2,3,4
 1193.37792969 66.0830078125 1193.37792969 66.0830078125 1190.95117188 33.23046875 c 128,-1,5
 1188.5234375 0.3779296875 1188.5234375 0.3779296875 1175.36035156 -27.92578125 c 128,-1,6
 1162.19726562 -56.23046875 1162.19726562 -56.23046875 1134.875 -76.11328125 c 128,-1,7
 1107.55273438 -95.9970703125 1107.55273438 -95.9970703125 1073.89160156 -98.5859375 c 1,8,9
 641.382812499 -98.5859375 641.382812499 -98.5859375 208.874023438 -98.5859375 c 0,10,11
 159.745117188 -98.5859375 159.745117188 -98.5859375 121.09765625 -61.3994140625 c 128,-1,12
 82.4501953125 -24.212890625 82.4501953125 -24.212890625 80.076171875 26.2373046875 c 0,13,14
 78.8935546875 61.66796875 78.8935546875 61.66796875 95.9765625 94.611328125 c 2,15,-1
 523.71484375 835.600585938 l 2,16,17
 540.879882812 865.196289062 540.879882812 865.196289062 570.923828125 882.297851562 c 128,-1,18
 600.966796875 899.399414062 600.966796875 899.399414062 635.817382812 900 c 2,19,-1
 639.79296875 900 l 1,0,1
637.408203125 794.2578125 m 0,20,21
 632.107421875 794.2578125 632.107421875 794.2578125 626.541992188 791.276367188 c 128,-1,22
 620.9765625 788.294921875 620.9765625 788.294921875 618.061523438 785.313476562 c 2,23,-1
 615.146484375 782.33203125 l 1,24,-1
 188.998046875 43.728515625 l 2,25,26
 183.01953125 32.369140625 183.01953125 32.369140625 190.099609375 19.76171875 c 128,-1,27
 197.1796875 7.1552734375 197.1796875 7.1552734375 209.668945312 7.1552734375 c 0,28,29
 831.282226562 1.947265625 831.282226562 1.947265625 1064.3515625 7.1552734375 c 0,30,31
 1076.34960938 7.755859375 1076.34960938 7.755859375 1083.35351562 19.712890625 c 128,-1,32
 1090.35742188 31.6708984375 1090.35742188 31.6708984375 1085.02246094 42.9326171875 c 2,33,-1
 658.079101562 782.33203125 l 2,34,35
 650.127929688 794.2578125 650.127929688 794.2578125 637.408203125 794.2578125 c 0,20,21
683.520507812 115.283203125 m 1,36,37
 682 105 682 105 673.936523438 99.1083984375 c 0,38,39
 666 93 666 93 655.694335938 92.2265625 c 0,40,41
 653 92 653 92 648.8828125 92.197265625 c 0,42,43
 635 92 635 92 628.378417969 92.0024414062 c 0,44,45
 621 92 621 92 611.48828125 93.81640625 c 0,46,47
 602 96 602 96 596.45703125 101.330566406 c 0,48,49
 589.704101562 109.351457711 589.704101562 109.351457711 589.704101562 115.283203125 c 2,50,-1
 589.704101562 152.650390625 l 2,51,52
 590 166 590 166 597.513671875 175.103515625 c 0,53,54
 606.211865109 185.247070312 606.211865109 185.247070312 617.53125 185.247070312 c 2,55,-1
 655.694335938 185.247070312 l 2,56,57
 666 185 666 185 675.03125 177.081054688 c 0,58,59
 683.520507812 170.378571195 683.520507812 170.378571195 683.520507812 158.215820312 c 2,60,-1
 683.520507812 115.283203125 l 1,36,37
655.694335938 550.176757812 m 2,61,62
 666.387695312 549.547851562 666.387695312 549.547851562 674.66796875 542.063476562 c 128,-1,63
 682.94921875 534.578125 682.94921875 534.578125 683.520507812 523.14453125 c 0,64,65
 684.708984375 403.091796875 684.708984375 403.091796875 683.520507812 283.0390625 c 0,66,67
 682.920898438 272.243164062 682.920898438 272.243164062 674.940429688 264.421875 c 128,-1,68
 666.958984375 256.600585938 666.958984375 256.600585938 655.694335938 256.006835938 c 0,69,70
 651.680664062 256.006835938 651.680664062 256.006835938 639.517578125 255.375976562 c 128,-1,71
 627.354492188 254.745117188 627.354492188 254.745117188 619.927734375 255.313476562 c 128,-1,72
 612.5 255.880859375 612.5 255.880859375 606.400390625 258.392578125 c 0,73,74
 589.704101562 265.348632812 589.704101562 265.348632812 589.704101562 283.0390625 c 0,75,76
 588.515625 403.091796875 588.515625 403.091796875 589.704101562 523.14453125 c 0,77,78
 590.3046875 533.94140625 590.3046875 533.94140625 598.28515625 541.762695312 c 128,-1,79
 606.266601562 549.583984375 606.266601562 549.583984375 617.53125 550.176757812 c 2,80,-1
 655.694335938 550.176757812 l 2,61,62
EndSplineSet
EndChar

StartChar: uni01D5
Encoding: 469 469 21
Width: 533
VWidth: 1100
Flags: W
LayerCount: 2
Fore
SplineSet
300.020507812 900 m 2,0,1
 359.583007812 899.392578125 359.583007812 899.392578125 405.265625 855.479492188 c 128,-1,2
 450.948242188 811.56640625 450.948242188 811.56640625 452.112304688 748.700195312 c 2,3,-1
 452.112304688 335.9921875 l 2,4,5
 452.112304688 273.887695312 452.112304688 273.887695312 407.750976562 228.259765625 c 1,6,7
 414.092773438 221.918945312 414.092773438 221.918945312 416.465820312 218.75390625 c 0,8,9
 452.112304688 176.962890625 452.112304688 176.962890625 452.112304688 121.3203125 c 0,10,11
 454.116210938 94.919921875 454.116210938 94.919921875 453.102539062 61.1171875 c 128,-1,12
 452.086914062 27.314453125 452.086914062 27.314453125 443.3984375 3.2900390625 c 0,13,14
 427.219726562 -41.0517578125 427.219726562 -41.0517578125 387.485351562 -69.6796875 c 128,-1,15
 347.75 -98.3076171875 347.75 -98.3076171875 300.020507812 -98.896484375 c 0,16,17
 273.0703125 -100.969726562 273.0703125 -100.969726562 238.62890625 -99.787109375 c 128,-1,18
 204.1875 -98.60546875 204.1875 -98.60546875 179.614257812 -89.390625 c 0,19,20
 136.588867188 -73.2568359375 136.588867188 -73.2568359375 108.887695312 -33.6611328125 c 128,-1,21
 81.1865234375 5.9345703125 81.1865234375 5.9345703125 80.5947265625 53.1953125 c 0,22,23
 80.0771484375 94.7138671875 80.0771484375 94.7138671875 81.48046875 118.6796875 c 128,-1,24
 82.8828125 142.64453125 82.8828125 142.64453125 93.1767578125 174.921875 c 128,-1,25
 103.47265625 207.19921875 103.47265625 207.19921875 124.1640625 228.259765625 c 1,26,27
 119.372070312 234.569335938 119.372070312 234.569335938 112.25 245.284179688 c 128,-1,28
 105.125976562 255.999023438 105.125976562 255.999023438 93.0361328125 284.11328125 c 128,-1,29
 80.9462890625 312.227539062 80.9462890625 312.227539062 80.5947265625 334.407226562 c 0,30,31
 79.4052734375 541.5546875 79.4052734375 541.5546875 80.5947265625 748.700195312 c 0,32,33
 81.1982421875 808.9453125 81.1982421875 808.9453125 125.465820312 854.1796875 c 128,-1,34
 169.734375 899.4140625 169.734375 899.4140625 231.895507812 900 c 2,35,-1
 300.020507812 900 l 2,0,1
233.48046875 168.056640625 m 2,36,37
 214.786132812 168.056640625 214.786132812 168.056640625 200.661132812 154.252929688 c 128,-1,38
 186.536132812 140.450195312 186.536132812 140.450195312 185.950195312 120.528320312 c 0,39,40
 185.950195312 116.133789062 185.950195312 116.133789062 185.647460938 99.349609375 c 128,-1,41
 185.344726562 82.564453125 185.344726562 82.564453125 185.657226562 76.1923828125 c 128,-1,42
 185.97265625 69.8193359375 185.97265625 69.8193359375 187.051757812 56.033203125 c 128,-1,43
 188.129882812 42.2470703125 188.129882812 42.2470703125 191.219726562 36.03515625 c 128,-1,44
 194.307617188 29.8232421875 194.307617188 29.8232421875 199.208007812 21.6953125 c 128,-1,45
 204.109375 13.568359375 204.109375 13.568359375 212.411132812 10.177734375 c 128,-1,46
 220.711914062 6.7880859375 220.711914062 6.7880859375 231.895507812 6.458984375 c 0,47,48
 258.829101562 3.4365234375 258.829101562 3.4365234375 289.821289062 5.46875 c 128,-1,49
 320.813476562 7.5009765625 320.813476562 7.5009765625 334.083007812 22.3017578125 c 0,50,51
 339.754882812 28.654296875 339.754882812 28.654296875 343.077148438 36.888671875 c 128,-1,52
 346.3984375 45.1220703125 346.3984375 45.1220703125 347.33203125 56.669921875 c 128,-1,53
 348.265625 68.21875 348.265625 68.21875 348.3359375 76.115234375 c 128,-1,54
 348.407226562 84.01171875 348.407226562 84.01171875 347.649414062 99.509765625 c 128,-1,55
 346.891601562 115.006835938 346.891601562 115.006835938 346.756835938 121.3203125 c 0,56,57
 346.165039062 139.663085938 346.165039062 139.663085938 331.942382812 153.561523438 c 128,-1,58
 317.72265625 167.459960938 317.72265625 167.459960938 299.227539062 168.056640625 c 2,59,-1
 233.48046875 168.056640625 l 2,36,37
233.48046875 794.64453125 m 2,60,61
 214.911132812 794.64453125 214.911132812 794.64453125 200.7265625 781.103515625 c 128,-1,62
 186.540039062 767.563476562 186.540039062 767.563476562 185.950195312 748.700195312 c 0,63,64
 182.375976562 541.354492188 182.375976562 541.354492188 185.950195312 335.200195312 c 0,65,66
 186.547851562 316.705078125 186.547851562 316.705078125 200.05078125 302.879882812 c 128,-1,67
 213.553710938 289.0546875 213.553710938 289.0546875 231.895507812 288.462890625 c 0,68,69
 235.379882812 288.400390625 235.379882812 288.400390625 250.786132812 287.923828125 c 128,-1,70
 266.192382812 287.447265625 266.192382812 287.447265625 271.458007812 287.595703125 c 128,-1,71
 276.725585938 287.744140625 276.725585938 287.744140625 289.473632812 288.311523438 c 128,-1,72
 302.223632812 288.87890625 302.223632812 288.87890625 308.125 290.990234375 c 128,-1,73
 314.024414062 293.102539062 314.024414062 293.102539062 322.454101562 296.459960938 c 128,-1,74
 330.883789062 299.817382812 330.883789062 299.817382812 335.754882812 305.63671875 c 128,-1,75
 340.625976562 311.45703125 340.625976562 311.45703125 343.588867188 319.356445312 c 0,76,77
 346.756835938 326.750976562 346.756835938 326.750976562 346.756835938 335.200195312 c 0,78,79
 350.325195312 540.959960938 350.325195312 540.959960938 346.756835938 747.908203125 c 0,80,81
 346.15625 766.530273438 346.15625 766.530273438 332.391601562 780.293945312 c 128,-1,82
 318.629882812 794.056640625 318.629882812 794.056640625 299.227539062 794.64453125 c 2,83,-1
 233.48046875 794.64453125 l 2,60,61
EndSplineSet
EndChar

StartChar: uni0222
Encoding: 546 546 22
Width: 1160
VWidth: 1100
Flags: W
LayerCount: 2
Fore
SplineSet
639.334960938 899.82421875 m 2,0,1
 677.17578125 898.641601562 677.17578125 898.641601562 708.8671875 875.264648438 c 128,-1,2
 740.55859375 851.888671875 740.55859375 851.888671875 752.46875 816.75390625 c 1,3,4
 757.083007812 818.702148438 757.083007812 818.702148438 764.8515625 821.438476562 c 128,-1,5
 772.62109375 824.174804688 772.62109375 824.174804688 792.563476562 827.62890625 c 128,-1,6
 812.506835938 831.08203125 812.506835938 831.08203125 827.625976562 828.62109375 c 0,7,8
 864.080078125 821.56640625 864.080078125 821.56640625 893.291015625 794.602539062 c 2,9,-1
 974.778320312 711.533203125 l 2,10,11
 981.8984375 704.413085938 981.8984375 704.413085938 984.271484375 700.45703125 c 0,12,13
 1005.13378906 673.038085938 1005.13378906 673.038085938 1008.69824219 637.858398438 c 128,-1,14
 1012.26269531 602.677734375 1012.26269531 602.677734375 996.9296875 572.291992188 c 1,15,16
 1015.94433594 565.151367188 1015.94433594 565.151367188 1029.3671875 554.887695312 c 0,17,18
 1052.60449219 538.204101562 1052.60449219 538.204101562 1066.30175781 511.578125 c 128,-1,19
 1080 484.951171875 1080 484.951171875 1080 455.995117188 c 2,20,-1
 1080 342.071289062 l 2,21,22
 1080 304.009765625 1080 304.009765625 1056.81738281 271.899414062 c 128,-1,23
 1033.63476562 239.788085938 1033.63476562 239.788085938 996.9296875 227.35546875 c 1,24,25
 999.0546875 222.474609375 999.0546875 222.474609375 1001.53027344 214.697265625 c 128,-1,26
 1004.00585938 206.920898438 1004.00585938 206.920898438 1008.41601562 184.107421875 c 128,-1,27
 1012.82617188 161.293945312 1012.82617188 161.293945312 1007.21484375 146.66015625 c 0,28,29
 999.880859375 111.215820312 999.880859375 111.215820312 973.196289062 85.7421875 c 2,30,-1
 893.291015625 5.8369140625 l 2,31,32
 865.5234375 -21.3271484375 865.5234375 -21.3271484375 826.736328125 -28.28125 c 128,-1,33
 787.94921875 -35.234375 787.94921875 -35.234375 752.46875 -17.8974609375 c 1,34,35
 745.329101562 -36.1201171875 745.329101562 -36.1201171875 735.854492188 -49.54296875 c 0,36,37
 718.484375 -72.90234375 718.484375 -72.90234375 692.129882812 -86.5390625 c 128,-1,38
 665.776367188 -100.17578125 665.776367188 -100.17578125 636.961914062 -100.17578125 c 2,39,-1
 522.247070312 -100.17578125 l 2,40,41
 484.40625 -100.17578125 484.40625 -100.17578125 452.518554688 -77.1982421875 c 128,-1,42
 420.631835938 -54.2216796875 420.631835938 -54.2216796875 407.53125 -17.8974609375 c 1,43,44
 404.119140625 -19.1787109375 404.119140625 -19.1787109375 398.129882812 -20.9892578125 c 128,-1,45
 392.141601562 -22.7998046875 392.141601562 -22.7998046875 374.647460938 -25.3056640625 c 128,-1,46
 357.154296875 -27.810546875 357.154296875 -27.810546875 340.826171875 -26.8505859375 c 128,-1,47
 324.499023438 -25.890625 324.499023438 -25.890625 303.86328125 -18.064453125 c 128,-1,48
 283.227539062 -10.2392578125 283.227539062 -10.2392578125 267.5 5.0458984375 c 0,49,50
 258.815429688 13.4453125 258.815429688 13.4453125 238.5546875 31.873046875 c 128,-1,51
 218.293945312 50.2998046875 218.293945312 50.2998046875 207.678710938 61.041015625 c 128,-1,52
 197.063476562 71.7822265625 197.063476562 71.7822265625 183.112304688 88.1005859375 c 128,-1,53
 169.161132812 104.418945312 169.161132812 104.418945312 161.540039062 120.497070312 c 128,-1,54
 153.919921875 136.576171875 153.919921875 136.576171875 151.203125 153.780273438 c 0,55,56
 145.220703125 190.8671875 145.220703125 190.8671875 163.0703125 226.564453125 c 1,57,58
 144.84765625 233.703125 144.84765625 233.703125 131.423828125 243.178710938 c 0,59,60
 107.680664062 259.798828125 107.680664062 259.798828125 93.8408203125 286.403320312 c 128,-1,61
 80 313.0078125 80 313.0078125 80 342.071289062 c 2,62,-1
 80 455.995117188 l 2,63,64
 80 494.200195312 80 494.200195312 102.853515625 526.7578125 c 128,-1,65
 125.706054688 559.315429688 125.706054688 559.315429688 162.278320312 572.291992188 c 1,66,67
 153.571289062 591.3125 153.571289062 591.3125 151.203125 607.893554688 c 0,68,69
 141.264648438 666.282226562 141.264648438 666.282226562 185.221679688 711.533203125 c 0,70,71
 193.60546875 720.05859375 193.60546875 720.05859375 218.239257812 746.77734375 c 128,-1,72
 242.874023438 773.49609375 242.874023438 773.49609375 255.150390625 785.131835938 c 128,-1,73
 267.427734375 796.766601562 267.427734375 796.766601562 288.947265625 810.489257812 c 128,-1,74
 310.466796875 824.2109375 310.466796875 824.2109375 330.791015625 827.830078125 c 0,75,76
 370.4921875 835.274414062 370.4921875 835.274414062 407.53125 816.75390625 c 1,77,78
 424.200195312 857.141601562 424.200195312 857.141601562 451.8359375 876.880859375 c 0,79,80
 483.232421875 899.82421875 483.232421875 899.82421875 522.247070312 899.82421875 c 2,81,-1
 639.334960938 899.82421875 l 2,0,1
523.038085938 794.602539062 m 2,82,83
 516.44921875 794.602539062 516.44921875 794.602539062 511.436523438 789.428710938 c 128,-1,84
 506.423828125 784.25390625 506.423828125 784.25390625 506.423828125 777.197265625 c 2,85,-1
 506.423828125 705.995117188 l 2,86,87
 505.237304688 705.599609375 505.237304688 705.599609375 503.259765625 705.204101562 c 128,-1,88
 501.28125 704.80859375 501.28125 704.80859375 500.094726562 704.413085938 c 0,89,90
 457.43359375 693.185546875 457.43359375 693.185546875 414.65234375 668.020507812 c 1,91,92
 363.249023438 719.423828125 363.249023438 719.423828125 363.227539062 719.444335938 c 0,93,94
 351.4140625 729.782226562 351.4140625 729.782226562 340.28515625 718.653320312 c 0,95,96
 295.293945312 674.986328125 295.293945312 674.986328125 260.379882812 637.95703125 c 0,97,98
 249.583007812 625.810546875 249.583007812 625.810546875 261.170898438 614.22265625 c 2,99,-1
 311.012695312 564.380859375 l 1,100,101
 283.348632812 520.37109375 283.348632812 520.37109375 273.038085938 473.400390625 c 1,102,-1
 201.044921875 473.400390625 l 2,103,104
 194.649414062 473.400390625 194.649414062 473.400390625 189.935546875 468.036132812 c 128,-1,105
 185.221679688 462.671875 185.221679688 462.671875 185.221679688 455.995117188 c 2,106,-1
 185.221679688 342.071289062 l 2,107,108
 185.221679688 335.614257812 185.221679688 335.614257812 190.227539062 330.930664062 c 128,-1,109
 195.233398438 326.248046875 195.233398438 326.248046875 201.8359375 326.248046875 c 2,110,-1
 273.038085938 326.248046875 l 1,111,112
 283.188476562 280.004882812 283.188476562 280.004882812 311.012695312 234.4765625 c 1,113,114
 302.705078125 225.7734375 302.705078125 225.7734375 285.696289062 208.763671875 c 128,-1,115
 268.6875 191.75390625 268.6875 191.75390625 260.379882812 183.051757812 c 0,116,117
 250.041992188 171.23828125 250.041992188 171.23828125 261.170898438 160.109375 c 0,118,119
 313.375 106.322265625 313.375 106.322265625 341.076171875 80.2041015625 c 0,120,121
 353.22265625 69.4072265625 353.22265625 69.4072265625 364.810546875 80.9951171875 c 2,122,-1
 414.65234375 130.045898438 l 1,123,124
 457.110351562 104.098632812 457.110351562 104.098632812 506.423828125 92.0712890625 c 1,125,-1
 506.423828125 20.869140625 l 2,126,127
 506.423828125 14.935546875 506.423828125 14.935546875 511.369140625 9.990234375 c 128,-1,128
 516.313476562 5.0458984375 516.313476562 5.0458984375 522.247070312 5.0458984375 c 2,129,-1
 636.170898438 5.0458984375 l 2,130,131
 643.227539062 5.0458984375 643.227539062 5.0458984375 648.401367188 10.05859375 c 128,-1,132
 653.576171875 15.0712890625 653.576171875 15.0712890625 653.576171875 21.66015625 c 2,133,-1
 653.576171875 92.0712890625 l 2,134,135
 654.762695312 92.466796875 654.762695312 92.466796875 656.740234375 92.8623046875 c 128,-1,136
 658.71875 93.2578125 658.71875 93.2578125 659.905273438 93.6533203125 c 0,137,138
 702.56640625 104.879882812 702.56640625 104.879882812 745.34765625 130.045898438 c 1,139,140
 750.915039062 124.478515625 750.915039062 124.478515625 760.848632812 114.544921875 c 128,-1,141
 770.782226562 104.612304688 770.782226562 104.612304688 778.8984375 96.49609375 c 128,-1,142
 787.014648438 88.37890625 787.014648438 88.37890625 794.3984375 80.9951171875 c 0,143,144
 799.145507812 76.248046875 799.145507812 76.248046875 806.364257812 76.248046875 c 128,-1,145
 813.583984375 76.248046875 813.583984375 76.248046875 818.923828125 80.9951171875 c 0,146,147
 872.737304688 133.2265625 872.737304688 133.2265625 898.829101562 160.109375 c 0,148,149
 909.998046875 172.674804688 909.998046875 172.674804688 898.829101562 183.84375 c 2,150,-1
 848.196289062 234.4765625 l 1,151,152
 876.020507812 280.004882812 876.020507812 280.004882812 886.170898438 326.248046875 c 1,153,-1
 958.1640625 326.248046875 l 2,154,155
 964.766601562 326.248046875 964.766601562 326.248046875 969.772460938 330.930664062 c 128,-1,156
 974.778320312 335.614257812 974.778320312 335.614257812 974.778320312 342.071289062 c 0,157,158
 975.96484375 399.033203125 975.96484375 399.033203125 974.778320312 455.995117188 c 0,159,160
 974.778320312 462.658203125 974.778320312 462.658203125 969.5703125 468.029296875 c 128,-1,161
 964.361328125 473.400390625 964.361328125 473.400390625 957.373046875 473.400390625 c 2,162,-1
 886.170898438 473.400390625 l 1,163,164
 875.860351562 520.37109375 875.860351562 520.37109375 848.196289062 564.380859375 c 1,165,166
 856.513671875 572.698242188 856.513671875 572.698242188 873.522460938 589.3125 c 128,-1,167
 890.532226562 605.926757812 890.532226562 605.926757812 898.829101562 614.22265625 c 0,168,169
 909.729492188 626.485351562 909.729492188 626.485351562 898.829101562 638.748046875 c 0,170,171
 884.766601562 653.689453125 884.766601562 653.689453125 857.465820312 680.787109375 c 128,-1,172
 830.166015625 707.885742188 830.166015625 707.885742188 819.71484375 718.653320312 c 0,173,174
 807.056640625 729.905273438 807.056640625 729.905273438 794.3984375 718.653320312 c 2,175,-1
 744.556640625 668.020507812 l 1,176,177
 702.383789062 693.793945312 702.383789062 693.793945312 653.576171875 705.995117188 c 1,178,-1
 653.576171875 777.98828125 l 2,179,180
 653.576171875 784.577148438 653.576171875 784.577148438 648.401367188 789.58984375 c 128,-1,181
 643.227539062 794.602539062 643.227539062 794.602539062 636.170898438 794.602539062 c 2,182,-1
 523.038085938 794.602539062 l 2,82,83
581.58203125 583.368164062 m 0,183,184
 638.59375 582.97265625 638.59375 582.97265625 687.711914062 546.389648438 c 128,-1,185
 736.830078125 509.807617188 736.830078125 509.807617188 755.515625 453.680664062 c 128,-1,186
 774.201171875 397.552734375 774.201171875 397.552734375 750.885742188 330.204101562 c 0,187,188
 733.578125 287.374023438 733.578125 287.374023438 693.638671875 257.478515625 c 128,-1,189
 653.69921875 227.583007812 653.69921875 227.583007812 607.134765625 218.28515625 c 128,-1,190
 560.571289062 208.987304688 560.571289062 208.987304688 510.787109375 227.983398438 c 128,-1,191
 461.001953125 246.98046875 461.001953125 246.98046875 427.310546875 295.393554688 c 0,192,193
 397.829101562 337.846679688 397.829101562 337.846679688 396.040039062 391.897460938 c 128,-1,194
 394.250976562 445.948242188 394.250976562 445.948242188 422.1875 494.512695312 c 128,-1,195
 450.124023438 543.078125 450.124023438 543.078125 501.677734375 566.754882812 c 0,196,197
 536.010742188 583.368164062 536.010742188 583.368164062 581.58203125 583.368164062 c 0,183,184
579.208984375 478.146484375 m 2,198,199
 540.044921875 477.543945312 540.044921875 477.543945312 515.440429688 440.892578125 c 128,-1,200
 490.8359375 404.240234375 490.8359375 404.240234375 507.21484375 367.387695312 c 0,201,202
 522.46484375 332.619140625 522.46484375 332.619140625 564.177734375 323.776367188 c 128,-1,203
 605.890625 314.93359375 605.890625 314.93359375 635.379882812 343.653320312 c 0,204,205
 655.729492188 364.395507812 655.729492188 364.395507812 656.546875 396.098632812 c 128,-1,206
 657.36328125 427.802734375 657.36328125 427.802734375 636.891601562 452.599609375 c 128,-1,207
 616.419921875 477.397460938 616.419921875 477.397460938 581.58203125 478.146484375 c 2,208,-1
 579.208984375 478.146484375 l 2,198,199
EndSplineSet
EndChar

StartChar: uni0223
Encoding: 547 547 23
Width: 1323
VWidth: 1100
Flags: W
LayerCount: 2
Fore
SplineSet
875.233398438 899.404296875 m 0,0,1
 906.172851562 898.796875 906.172851562 898.796875 933.53125 883.186523438 c 128,-1,2
 960.889648438 867.575195312 960.889648438 867.575195312 976.126953125 840.615234375 c 1,3,4
 983.69921875 842.118164062 983.69921875 842.118164062 996.16015625 843.153320312 c 128,-1,5
 1008.62011719 844.189453125 1008.62011719 844.189453125 1038.71582031 837.017578125 c 128,-1,6
 1068.81152344 829.846679688 1068.81152344 829.846679688 1088.9375 810.426757812 c 0,7,8
 1092.88085938 806.6015625 1092.88085938 806.6015625 1108.75878906 791.475585938 c 128,-1,9
 1124.63769531 776.348632812 1124.63769531 776.348632812 1129.75585938 771.168945312 c 128,-1,10
 1134.87304688 765.98828125 1134.87304688 765.98828125 1147.75195312 751.930664062 c 128,-1,11
 1160.62988281 737.872070312 1160.62988281 737.872070312 1165.14550781 730.29296875 c 128,-1,12
 1169.66015625 722.712890625 1169.66015625 722.712890625 1177.32226562 709.071289062 c 128,-1,13
 1184.98535156 695.428710938 1184.98535156 695.428710938 1186.68164062 684.798828125 c 128,-1,14
 1188.37890625 674.16796875 1188.37890625 674.16796875 1188.609375 660.291015625 c 128,-1,15
 1188.83984375 646.413085938 1188.83984375 646.413085938 1185.06445312 632.47265625 c 0,16,17
 1187.35644531 630.91796875 1187.35644531 630.91796875 1191.16992188 627.973632812 c 128,-1,18
 1194.98339844 625.030273438 1194.98339844 625.030273438 1204.79394531 615.063476562 c 128,-1,19
 1214.60351562 605.09765625 1214.60351562 605.09765625 1222.18554688 594.17578125 c 128,-1,20
 1229.76660156 583.25390625 1229.76660156 583.25390625 1236.19042969 566.203125 c 128,-1,21
 1242.61328125 549.15234375 1242.61328125 549.15234375 1243.05859375 531.579101562 c 0,22,23
 1244.50585938 504.618164062 1244.50585938 504.618164062 1243.34472656 475.856445312 c 128,-1,24
 1242.18261719 447.094726562 1242.18261719 447.094726562 1238.7890625 422.443359375 c 128,-1,25
 1235.39453125 397.791015625 1235.39453125 397.791015625 1223.06152344 375.732421875 c 128,-1,26
 1210.72753906 353.673828125 1210.72753906 353.673828125 1189.83105469 340.119140625 c 0,27,28
 1186.45019531 338.038085938 1186.45019531 338.038085938 1183.95605469 337.625 c 0,29,30
 1183.43847656 337.5390625 1183.43847656 337.5390625 1183.74804688 337.05078125 c 0,31,32
 1186.046875 333.430664062 1186.046875 333.430664062 1187.44824219 325.024414062 c 0,33,34
 1191.57324219 298.502929688 1191.57324219 298.502929688 1182.47167969 271.659179688 c 128,-1,35
 1173.36914062 244.815429688 1173.36914062 244.815429688 1154.08203125 224.92578125 c 0,36,37
 1150.62011719 221.353515625 1150.62011719 221.353515625 1143.66699219 214.112304688 c 0,38,39
 1120.08007812 189.545898438 1120.08007812 189.545898438 1106.63574219 177.086914062 c 128,-1,40
 1093.19140625 164.627929688 1093.19140625 164.627929688 1070.98535156 148.482421875 c 128,-1,41
 1048.78027344 132.337890625 1048.78027344 132.337890625 1026.96777344 127.666015625 c 128,-1,42
 1005.15625 122.994140625 1005.15625 122.994140625 981.688476562 128.00390625 c 0,43,44
 977.80859375 128.780273438 977.80859375 128.780273438 975.642578125 130.124023438 c 0,45,46
 975.168945312 130.41796875 975.168945312 130.41796875 975.055664062 129.841796875 c 0,47,48
 974.266601562 125.8359375 974.266601562 125.8359375 969.771484375 119.265625 c 0,49,50
 935.931640625 72.890625 935.931640625 72.890625 875.233398438 71.5986328125 c 0,51,52
 868.206054688 71.513671875 868.206054688 71.513671875 847.526367188 70.9873046875 c 128,-1,53
 826.84765625 70.4609375 826.84765625 70.4609375 818.162109375 70.583984375 c 128,-1,54
 809.4765625 70.7080078125 809.4765625 70.7080078125 791.948242188 71.3818359375 c 128,-1,55
 774.420898438 72.0556640625 774.420898438 72.0556640625 764.432617188 74.5078125 c 128,-1,56
 754.443359375 76.9599609375 754.443359375 76.9599609375 741.040039062 80.947265625 c 128,-1,57
 727.635742188 84.93359375 727.635742188 84.93359375 717.317382812 91.828125 c 128,-1,58
 706.998046875 98.7216796875 706.998046875 98.7216796875 698.073242188 108.142578125 c 0,59,60
 691.01171875 114.96484375 691.01171875 114.96484375 690.923828125 111.3203125 c 0,61,62
 691.692382812 110.504882812 691.692382812 110.504882812 679.006835938 99.404296875 c 1,63,64
 676.572265625 50.0888671875 676.572265625 50.0888671875 650.407226562 19.166015625 c 0,65,66
 647.68359375 15.5341796875 647.68359375 15.5341796875 644.051757812 12.810546875 c 2,67,-1
 599.563476562 -30.8837890625 l 1,68,-1
 594.001953125 -35.650390625 l 2,69,70
 581.727539062 -45.294921875 581.727539062 -45.294921875 573.346679688 -49.9501953125 c 0,71,72
 548.791992188 -63.4560546875 548.791992188 -63.4560546875 519.325195312 -63.4560546875 c 0,73,74
 510.4140625 -63.484375 510.4140625 -63.484375 510.5859375 -64.25 c 0,75,76
 472.377929688 -97.62109375 472.377929688 -97.62109375 434.3203125 -100 c 2,77,-1
 426.375976562 -100 l 1,78,-1
 364.409179688 -99.205078125 l 2,79,80
 316.30078125 -99.205078125 316.30078125 -99.205078125 284.170898438 -65.8388671875 c 1,81,-1
 277.021484375 -60.2783203125 l 1,82,83
 230.086914062 -59.4287109375 230.086914062 -59.4287109375 198.372070312 -31.6787109375 c 2,84,-1
 192.810546875 -26.1171875 l 1,85,-1
 147.52734375 19.9599609375 l 1,86,87
 115.75 62.138671875 115.75 62.138671875 115.75 99.404296875 c 0,88,89
 115.701171875 109.120117188 115.701171875 109.120117188 114.161132812 108.9375 c 0,90,91
 80 151.915039062 80 151.915039062 80 191.559570312 c 2,92,-1
 80.794921875 254.319335938 l 2,93,94
 80.794921875 268.887695312 80.794921875 268.887695312 83.97265625 280.536132812 c 0,95,96
 91.361328125 312.552734375 91.361328125 312.552734375 114.161132812 335.352539062 c 0,97,98
 118.306640625 338.905273438 118.306640625 338.905273438 118.71484375 339.790039062 c 128,-1,99
 119.123046875 340.673828125 119.123046875 340.673828125 119.72265625 347.26953125 c 0,100,101
 120.958984375 388.084960938 120.958984375 388.084960938 146.733398438 418.768554688 c 0,102,103
 147.52734375 419.9609375 147.52734375 419.9609375 150.30859375 422.741210938 c 128,-1,104
 153.088867188 425.521484375 153.088867188 425.521484375 154.677734375 427.5078125 c 2,105,-1
 198.372070312 469.612304688 l 1,106,-1
 203.932617188 474.37890625 l 2,107,108
 218.892578125 487.038085938 218.892578125 487.038085938 222.484375 489.033203125 c 128,-1,109
 226.077148438 491.029296875 226.077148438 491.029296875 242.860351562 496.624023438 c 0,110,111
 263.403320312 503.471679688 263.403320312 503.471679688 286.5546875 502.184570312 c 1,112,113
 316.794921875 529.208007812 316.794921875 529.208007812 342.959960938 535.55078125 c 0,114,115
 354.608398438 538.728515625 354.608398438 538.728515625 372.353515625 538.728515625 c 2,116,-1
 415.25390625 537.934570312 l 1,117,118
 416.85546875 558.62109375 416.85546875 558.62109375 423.198242188 574.478515625 c 0,119,120
 438.791992188 613.462890625 438.791992188 613.462890625 473.247070312 632.47265625 c 1,121,122
 471.833007812 640.133789062 471.833007812 640.133789062 470.907226562 652.704101562 c 128,-1,123
 469.982421875 665.274414062 469.982421875 665.274414062 477.17578125 695.392578125 c 128,-1,124
 484.370117188 725.510742188 484.370117188 725.510742188 503.436523438 745.283203125 c 0,125,126
 505.948242188 747.872070312 505.948242188 747.872070312 520.2578125 762.833007812 c 128,-1,127
 534.567382812 777.793945312 534.567382812 777.793945312 538.420898438 781.4609375 c 128,-1,128
 542.2734375 785.127929688 542.2734375 785.127929688 555.354492188 797.676757812 c 128,-1,129
 568.435546875 810.2265625 568.435546875 810.2265625 574.446289062 813.873046875 c 128,-1,130
 580.456054688 817.518554688 580.456054688 817.518554688 592.727539062 826.166015625 c 128,-1,131
 604.998046875 834.8125 604.998046875 834.8125 613.583984375 836.947265625 c 128,-1,132
 622.168945312 839.081054688 622.168945312 839.081054688 634.048828125 842.334960938 c 128,-1,133
 645.928710938 845.58984375 645.928710938 845.58984375 657.5078125 844.721679688 c 128,-1,134
 669.086914062 843.853515625 669.086914062 843.853515625 681.390625 840.615234375 c 0,135,136
 682.977539062 842.939453125 682.977539062 842.939453125 685.975585938 846.806640625 c 128,-1,137
 688.97265625 850.673828125 688.97265625 850.673828125 699.076171875 860.62109375 c 128,-1,138
 709.1796875 870.568359375 709.1796875 870.568359375 720.206054688 878.25390625 c 128,-1,139
 731.232421875 885.940429688 731.232421875 885.940429688 748.369140625 892.450195312 c 128,-1,140
 765.505859375 898.958984375 765.505859375 898.958984375 783.079101562 899.404296875 c 0,141,142
 829.15625 900.584960938 829.15625 900.584960938 875.233398438 899.404296875 c 0,0,1
370.764648438 433.068359375 m 0,143,144
 362.8203125 433.068359375 362.8203125 433.068359375 362.8203125 423.53515625 c 2,145,-1
 362.026367188 385.40234375 l 1,146,-1
 355.670898438 383.813476562 l 2,147,148
 332.811523438 377.796875 332.811523438 377.796875 311.9765625 365.541015625 c 1,149,-1
 285.759765625 393.346679688 l 2,150,151
 278.2578125 399.349609375 278.2578125 399.349609375 272.254882812 393.346679688 c 2,152,-1
 228.560546875 351.241210938 l 2,153,154
 222.557617188 343.73828125 222.557617188 343.73828125 228.560546875 337.736328125 c 2,155,-1
 255.571289062 310.724609375 l 2,156,157
 253.982421875 307.546875 253.982421875 307.546875 251.598632812 305.1640625 c 0,158,159
 240.780273438 286.772460938 240.780273438 286.772460938 234.12109375 261.469726562 c 1,160,-1
 195.98828125 261.469726562 l 2,161,162
 188.658203125 261.993164062 188.658203125 261.993164062 187.556640625 260.340820312 c 128,-1,163
 186.455078125 258.689453125 186.455078125 258.689453125 186.455078125 253.525390625 c 0,164,165
 186.455078125 243.197265625 186.455078125 243.197265625 186.057617188 222.54296875 c 128,-1,166
 185.66015625 201.88671875 185.66015625 201.88671875 185.66015625 191.559570312 c 0,167,168
 185.66015625 183.482421875 185.66015625 183.482421875 194.399414062 182.025390625 c 2,169,-1
 232.532226562 182.025390625 l 1,170,171
 237.932617188 158.268554688 237.932617188 158.268554688 252.393554688 131.9765625 c 1,172,173
 249.0390625 128.622070312 249.0390625 128.622070312 241.270507812 122.947265625 c 128,-1,174
 233.501953125 117.272460938 233.501953125 117.272460938 228.561523438 112.140625 c 128,-1,175
 223.620117188 107.008789062 223.620117188 107.008789062 222.205078125 100.993164062 c 0,176,177
 221.091796875 96.544921875 221.091796875 96.544921875 224.587890625 93.048828125 c 0,178,179
 231.747070312 85.4921875 231.747070312 85.4921875 246.046875 70.794921875 c 128,-1,180
 260.346679688 56.09765625 260.346679688 56.09765625 267.48828125 48.560546875 c 0,181,182
 273.84375 42.205078125 273.84375 42.205078125 280.19921875 48.560546875 c 2,183,-1
 308.00390625 75.5712890625 l 2,184,185
 311.181640625 73.982421875 311.181640625 73.982421875 313.565429688 71.5986328125 c 0,186,187
 331.955078125 60.78125 331.955078125 60.78125 357.259765625 54.12109375 c 1,188,-1
 356.46484375 15.98828125 l 2,189,190
 356.46484375 6.455078125 356.46484375 6.455078125 365.204101562 6.455078125 c 0,191,192
 375.53125 6.455078125 375.53125 6.455078125 395.790039062 6.0576171875 c 128,-1,193
 416.047851562 5.66015625 416.047851562 5.66015625 426.375976562 5.66015625 c 0,194,195
 430.090820312 5.66015625 430.090820312 5.66015625 433 8.408203125 c 128,-1,196
 435.909179688 11.1552734375 435.909179688 11.1552734375 435.909179688 15.193359375 c 2,197,-1
 436.703125 52.5322265625 l 1,198,-1
 443.05859375 54.12109375 l 2,199,200
 468.614257812 62.19140625 468.614257812 62.19140625 485.958984375 72.3935546875 c 1,201,-1
 512.174804688 45.3828125 l 2,202,203
 519.026367188 39.900390625 519.026367188 39.900390625 524.885742188 44.587890625 c 0,204,205
 533.514648438 52.30859375 533.514648438 52.30859375 548.939453125 67.5244140625 c 128,-1,206
 564.364257812 82.740234375 564.364257812 82.740234375 569.375 87.4873046875 c 0,207,208
 575.376953125 94.990234375 575.376953125 94.990234375 569.375 100.993164062 c 2,209,-1
 543.158203125 128.00390625 l 2,210,211
 544.747070312 131.181640625 544.747070312 131.181640625 546.3359375 133.565429688 c 0,212,213
 557.15625 151.959960938 557.15625 151.959960938 563.813476562 177.258789062 c 1,214,-1
 601.946289062 176.46484375 l 2,215,216
 611.479492188 176.46484375 611.479492188 176.46484375 611.479492188 185.203125 c 0,217,218
 611.479492188 192.356445312 611.479492188 192.356445312 612.103515625 214.202148438 c 128,-1,219
 612.728515625 236.048828125 612.728515625 236.048828125 612.274414062 248.758789062 c 0,220,221
 612.274414062 255.908203125 612.274414062 255.908203125 603.53515625 255.908203125 c 2,222,-1
 565.40234375 256.703125 l 1,223,-1
 563.813476562 263.05859375 l 2,224,225
 558.176757812 284.48046875 558.176757812 284.48046875 545.541015625 305.958007812 c 1,226,-1
 573.346679688 332.96875 l 2,227,228
 579.702148438 339.325195312 579.702148438 339.325195312 573.346679688 345.680664062 c 2,229,-1
 531.241210938 389.374023438 l 2,230,231
 523.73828125 395.376953125 523.73828125 395.376953125 517.736328125 389.374023438 c 2,232,-1
 490.725585938 363.158203125 l 2,233,234
 487.547851562 364.747070312 487.547851562 364.747070312 485.1640625 366.3359375 c 0,235,236
 466.772460938 377.154296875 466.772460938 377.154296875 441.469726562 383.813476562 c 1,237,-1
 441.469726562 422.741210938 l 2,238,239
 441.998046875 429.076171875 441.998046875 429.076171875 440.194335938 430.27734375 c 128,-1,240
 438.391601562 431.479492188 438.391601562 431.479492188 433.525390625 431.479492188 c 0,241,242
 423.197265625 431.479492188 423.197265625 431.479492188 402.14453125 432.2734375 c 128,-1,243
 381.091796875 433.068359375 381.091796875 433.068359375 370.764648438 433.068359375 c 0,143,144
399.364257812 318.668945312 m 2,244,245
 449.126953125 318.0546875 449.126953125 318.0546875 480.552734375 272.530273438 c 128,-1,246
 511.978515625 227.005859375 511.978515625 227.005859375 489.930664062 178.84765625 c 0,247,248
 470.478515625 135.688476562 470.478515625 135.688476562 419.225585938 124.130859375 c 128,-1,249
 367.97265625 112.57421875 367.97265625 112.57421875 331.836914062 146.276367188 c 0,250,251
 304.79296875 171.752929688 304.79296875 171.752929688 302.932617188 212.615234375 c 128,-1,252
 301.073242188 253.4765625 301.073242188 253.4765625 326.845703125 285.697265625 c 128,-1,253
 352.618164062 317.916992188 352.618164062 317.916992188 396.981445312 318.668945312 c 2,254,-1
 399.364257812 318.668945312 l 2,244,245
785.461914062 793.744140625 m 2,255,256
 780.4140625 793.744140625 780.4140625 793.744140625 776.185546875 789.840820312 c 128,-1,257
 771.95703125 785.936523438 771.95703125 785.936523438 771.95703125 780.23828125 c 2,258,-1
 771.95703125 724.627929688 l 1,259,260
 735.866210938 716.732421875 735.866210938 716.732421875 700.45703125 695.233398438 c 1,261,262
 696.04296875 699.647460938 696.04296875 699.647460938 685.9609375 712.556640625 c 128,-1,263
 675.87890625 725.465820312 675.87890625 725.465820312 667.81640625 732.197265625 c 128,-1,264
 659.752929688 738.927734375 659.752929688 738.927734375 651.202148438 738.927734375 c 0,265,266
 648.025390625 738.927734375 648.025390625 738.927734375 641.668945312 734.161132812 c 0,267,268
 578.985351562 671.48046875 578.985351562 671.48046875 578.908203125 671.400390625 c 0,269,270
 570.168945312 662.661132812 570.168945312 662.661132812 579.702148438 653.127929688 c 2,271,-1
 618.629882812 614.200195312 l 1,272,273
 611.768554688 603.221679688 611.768554688 603.221679688 608.301757812 595.133789062 c 0,274,275
 603.13671875 584.802734375 603.13671875 584.802734375 599.563476562 575.2734375 c 0,276,277
 595.590820312 564.9453125 595.590820312 564.9453125 589.235351562 542.701171875 c 1,278,279
 582.780273438 542.701171875 582.780273438 542.701171875 566.91015625 544.720703125 c 128,-1,280
 551.041015625 546.740234375 551.041015625 546.740234375 540.590820312 545.978515625 c 128,-1,281
 530.140625 545.215820312 530.140625 545.215820312 524.091796875 539.5234375 c 0,282,283
 520.9140625 536.345703125 520.9140625 536.345703125 520.9140625 529.990234375 c 2,284,-1
 520.9140625 440.21875 l 2,285,286
 520.9140625 434.927734375 520.9140625 434.927734375 524.946289062 431.217773438 c 128,-1,287
 528.979492188 427.5078125 528.979492188 427.5078125 534.418945312 427.5078125 c 2,288,-1
 589.235351562 427.5078125 l 1,289,290
 594.060546875 410.138671875 594.060546875 410.138671875 595.590820312 406.057617188 c 0,291,292
 603.485351562 381.249023438 603.485351562 381.249023438 618.629882812 356.0078125 c 1,293,294
 585.287109375 322.666992188 585.287109375 322.666992188 578.908203125 315.491210938 c 0,295,296
 570.963867188 307.546875 570.963867188 307.546875 580.497070312 298.013671875 c 0,297,298
 592.185546875 287.190429688 592.185546875 287.190429688 613.112304688 265.661132812 c 128,-1,299
 634.038085938 244.130859375 634.038085938 244.130859375 643.2578125 235.252929688 c 0,300,301
 651.99609375 226.514648438 651.99609375 226.514648438 661.529296875 236.047851562 c 2,302,-1
 700.45703125 274.975585938 l 1,303,304
 735.870117188 253.473632812 735.870117188 253.473632812 771.95703125 245.581054688 c 1,305,306
 771.95703125 239.125976562 771.95703125 239.125976562 769.9375 223.255859375 c 128,-1,307
 767.91796875 207.38671875 767.91796875 207.38671875 768.6796875 196.935546875 c 128,-1,308
 769.44140625 186.485351562 769.44140625 186.485351562 775.134765625 180.436523438 c 0,309,310
 778.3125 177.258789062 778.3125 177.258789062 784.66796875 177.258789062 c 2,311,-1
 873.64453125 177.258789062 l 2,312,313
 878.935546875 177.258789062 878.935546875 177.258789062 882.645507812 181.291015625 c 128,-1,314
 886.35546875 185.32421875 886.35546875 185.32421875 886.35546875 190.764648438 c 2,315,-1
 886.35546875 245.581054688 l 2,316,317
 887.149414062 245.977539062 887.149414062 245.977539062 889.135742188 246.375 c 128,-1,318
 891.122070312 246.772460938 891.122070312 246.772460938 891.916992188 247.169921875 c 0,319,320
 926.068359375 255.413085938 926.068359375 255.413085938 957.85546875 274.975585938 c 1,321,322
 962.489257812 270.341796875 962.489257812 270.341796875 972.205078125 257.596679688 c 128,-1,323
 981.919921875 244.852539062 981.919921875 244.852539062 989.84765625 238.06640625 c 128,-1,324
 997.775390625 231.28125 997.775390625 231.28125 1006.31640625 231.28125 c 0,325,326
 1009.49511719 231.28125 1009.49511719 231.28125 1015.84960938 236.047851562 c 0,327,328
 1022.70507812 242.903320312 1022.70507812 242.903320312 1035.54882812 255.5703125 c 128,-1,329
 1048.39160156 268.237304688 1048.39160156 268.237304688 1058.91113281 278.755859375 c 128,-1,330
 1069.4296875 289.275390625 1069.4296875 289.275390625 1078.61035156 298.80859375 c 0,331,332
 1087.34863281 307.546875 1087.34863281 307.546875 1077.81542969 317.080078125 c 2,333,-1
 1038.88769531 356.0078125 l 1,334,335
 1041.52734375 360.23046875 1041.52734375 360.23046875 1050.00976562 375.07421875 c 0,336,337
 1061.92578125 400.099609375 1061.92578125 400.099609375 1069.07714844 427.5078125 c 1,338,339
 1075.53222656 427.5078125 1075.53222656 427.5078125 1091.40136719 425.48828125 c 128,-1,340
 1107.27148438 423.46875 1107.27148438 423.46875 1117.72167969 424.23046875 c 128,-1,341
 1128.171875 424.993164062 1128.171875 424.993164062 1134.22070312 430.685546875 c 0,342,343
 1137.3984375 433.862304688 1137.3984375 433.862304688 1137.3984375 440.21875 c 2,344,-1
 1137.3984375 529.990234375 l 2,345,346
 1137.3984375 535.28125 1137.3984375 535.28125 1133.36523438 538.991210938 c 128,-1,347
 1129.33300781 542.701171875 1129.33300781 542.701171875 1123.89257812 542.701171875 c 2,348,-1
 1069.07714844 542.701171875 l 1,349,350
 1064.25195312 560.0703125 1064.25195312 560.0703125 1062.72167969 564.151367188 c 0,351,352
 1056.76171875 580.040039062 1056.76171875 580.040039062 1054.77636719 584.01171875 c 0,353,354
 1048.25195312 598.1484375 1048.25195312 598.1484375 1038.88769531 614.200195312 c 1,355,356
 1052.41015625 626.927734375 1052.41015625 626.927734375 1078.61035156 653.127929688 c 0,357,358
 1087.5078125 662.025390625 1087.5078125 662.025390625 1078.61035156 672.194335938 c 0,359,360
 1036.45117188 714.3515625 1036.45117188 714.3515625 1015.0546875 734.955078125 c 0,361,362
 1006.31640625 743.693359375 1006.31640625 743.693359375 996.783203125 734.161132812 c 2,363,-1
 957.85546875 695.233398438 l 2,364,365
 957.45703125 695.432617188 957.45703125 695.432617188 955.5703125 696.690429688 c 128,-1,366
 953.684570312 697.947265625 953.684570312 697.947265625 952.293945312 698.411132812 c 0,367,368
 921.599609375 716.120117188 921.599609375 716.120117188 886.35546875 724.627929688 c 1,369,370
 886.35546875 731.48046875 886.35546875 731.48046875 888.55078125 747.514648438 c 128,-1,371
 890.747070312 763.549804688 890.747070312 763.549804688 889.986328125 774.034179688 c 128,-1,372
 889.224609375 784.51953125 889.224609375 784.51953125 883.177734375 790.56640625 c 0,373,374
 880 793.744140625 880 793.744140625 873.64453125 793.744140625 c 2,375,-1
 785.461914062 793.744140625 l 2,255,256
830.745117188 629.294921875 m 2,376,377
 875.923828125 628.501953125 875.923828125 628.501953125 914.3671875 599.341796875 c 128,-1,378
 952.810546875 570.180664062 952.810546875 570.180664062 966.91796875 526.3125 c 128,-1,379
 981.025390625 482.443359375 981.025390625 482.443359375 962.622070312 430.685546875 c 0,380,381
 940.76953125 377.875 940.76953125 377.875 883.998046875 353.63671875 c 128,-1,382
 827.227539062 329.399414062 827.227539062 329.399414062 772.750976562 352.830078125 c 0,383,384
 742.173828125 366.060546875 742.173828125 366.060546875 720.345703125 393.959960938 c 128,-1,385
 698.517578125 421.860351562 698.517578125 421.860351562 690.275390625 454.662109375 c 128,-1,386
 682.032226562 487.463867188 682.032226562 487.463867188 691.000976562 523.578125 c 128,-1,387
 699.970703125 559.692382812 699.970703125 559.692382812 727.467773438 587.189453125 c 0,388,389
 768.33984375 628.061523438 768.33984375 628.061523438 827.567382812 629.294921875 c 2,390,-1
 830.745117188 629.294921875 l 2,376,377
828.361328125 523.634765625 m 0,391,392
 812.55078125 523.249023438 812.55078125 523.249023438 802.052734375 508.764648438 c 128,-1,393
 791.5546875 494.280273438 791.5546875 494.280273438 793.763671875 476.538085938 c 128,-1,394
 795.97265625 458.795898438 795.97265625 458.795898438 812.47265625 450.545898438 c 0,395,396
 832.900390625 440.641601562 832.900390625 440.641601562 853.51953125 458.392578125 c 128,-1,397
 874.138671875 476.142578125 874.138671875 476.142578125 864.90625 499.801757812 c 0,398,399
 860.763671875 510.453125 860.763671875 510.453125 850.563476562 517.043945312 c 128,-1,400
 840.36328125 523.634765625 840.36328125 523.634765625 828.361328125 523.634765625 c 0,391,392
EndSplineSet
EndChar

StartChar: uni01AD
Encoding: 429 429 24
Width: 1158
VWidth: 1106
Flags: W
LayerCount: 2
Fore
SplineSet
761.982421875 580.395507812 m 0,0,1
 765.138671875 580.395507812 765.138671875 580.395507812 767.505859375 578.02734375 c 0,2,3
 790.390625 555.931640625 790.390625 555.931640625 834.583984375 510.161132812 c 0,4,5
 841.334960938 503.41015625 841.334960938 503.41015625 835.373046875 495.956054688 c 0,6,7
 791.180664062 450.711914062 791.180664062 450.711914062 740.879882812 400.411132812 c 128,-1,8
 690.579101562 350.110351562 690.579101562 350.110351562 628.938476562 288.995117188 c 128,-1,9
 567.296875 227.879882812 567.296875 227.879882812 533.918945312 194.501953125 c 0,10,11
 526.420898438 187.005859375 526.420898438 187.005859375 518.924804688 194.501953125 c 2,12,-1
 326.373046875 387.053710938 l 2,13,14
 319.620117188 393.806640625 319.620117188 393.806640625 325.583984375 401.258789062 c 2,15,-1
 393.450195312 469.125 l 2,16,17
 400.947265625 476.622070312 400.947265625 476.622070312 408.444335938 469.125 c 2,18,-1
 526.02734375 351.54296875 l 1,19,-1
 752.512695312 578.02734375 l 2,20,21
 756.063476562 580.395507812 756.063476562 580.395507812 761.982421875 580.395507812 c 0,0,1
581.427734375 900 m 2,22,23
 693.5390625 899.215820312 693.5390625 899.215820312 797.807617188 847.23828125 c 128,-1,24
 902.076171875 795.260742188 902.076171875 795.260742188 975.584960938 702.076171875 c 128,-1,25
 1049.09277344 608.891601562 1049.09277344 608.891601562 1069.91015625 495.166992188 c 0,26,27
 1090.31835938 385.672851562 1090.31835938 385.672851562 1060.89941406 275.1328125 c 128,-1,28
 1031.48046875 164.592773438 1031.48046875 164.592773438 956.603515625 74.6767578125 c 128,-1,29
 881.7265625 -15.240234375 881.7265625 -15.240234375 775.55859375 -61.181640625 c 0,30,31
 643.221679688 -118.791992188 643.221679688 -118.791992188 492.352539062 -92.0576171875 c 128,-1,32
 341.484375 -65.3232421875 341.484375 -65.3232421875 233.4140625 37.4619140625 c 0,33,34
 150.2890625 117.056640625 150.2890625 117.056640625 110.129882812 229.001953125 c 128,-1,35
 69.970703125 340.947265625 69.970703125 340.947265625 82.86328125 461.45703125 c 128,-1,36
 95.7548828125 581.966796875 95.7548828125 581.966796875 163.1796875 679.828125 c 0,37,38
 232.330078125 780.573242188 232.330078125 780.573242188 342.592773438 839.9921875 c 128,-1,39
 452.856445312 899.412109375 452.856445312 899.412109375 575.114257812 900 c 2,40,-1
 581.427734375 900 l 2,22,23
575.903320312 795.043945312 m 0,41,42
 487.6484375 794.258789062 487.6484375 794.258789062 405.515625 753.715820312 c 128,-1,43
 323.381835938 713.171875 323.381835938 713.171875 265.17578125 640.399414062 c 128,-1,44
 206.969726562 567.627929688 206.969726562 567.627929688 190.010742188 478.595703125 c 0,45,46
 173.504882812 391.7421875 173.504882812 391.7421875 196.119140625 304.096679688 c 128,-1,47
 218.733398438 216.452148438 218.733398438 216.452148438 277.546875 144.8828125 c 128,-1,48
 336.361328125 73.3134765625 336.361328125 73.3134765625 420.44140625 36.6728515625 c 0,49,50
 482.19921875 9.7451171875 482.19921875 9.7451171875 551.846679688 6.484375 c 128,-1,51
 621.495117188 3.2236328125 621.495117188 3.2236328125 686.655273438 21.9169921875 c 128,-1,52
 751.81640625 40.609375 751.81640625 40.609375 810.760742188 82.31640625 c 128,-1,53
 869.706054688 124.0234375 869.706054688 124.0234375 909.712890625 183.454101562 c 0,54,55
 965.216796875 265.926757812 965.216796875 265.926757812 971.985351562 368.416015625 c 128,-1,56
 978.754882812 470.905273438 978.754882812 470.905273438 934.247070312 567.467773438 c 128,-1,57
 889.740234375 664.030273438 889.740234375 664.030273438 802.389648438 725.598632812 c 0,58,59
 704.694335938 795.043945312 704.694335938 795.043945312 575.903320312 795.043945312 c 0,41,42
EndSplineSet
EndChar

StartChar: uni01AE
Encoding: 430 430 25
Width: 1158
VWidth: 1106
Flags: W
LayerCount: 2
Fore
SplineSet
702.057617188 609.59375 m 128,-1,1
 707.0546875 609.59375 707.0546875 609.59375 709.159179688 606.4375 c 0,2,3
 735.201171875 582.762695312 735.201171875 582.762695312 784.12890625 532.256835938 c 0,4,5
 790.872070312 525.513671875 790.872070312 525.513671875 783.33984375 516.474609375 c 2,6,-1
 664.967773438 398.102539062 l 1,7,8
 685.078125 377.991210938 685.078125 377.991210938 725.32421875 337.350585938 c 128,-1,9
 765.571289062 296.708984375 765.571289062 296.708984375 785.70703125 276.573242188 c 0,10,11
 793.9921875 268.288085938 793.9921875 268.288085938 785.70703125 260.000976562 c 2,12,-1
 713.10546875 187.399414062 l 2,13,14
 704.06640625 179.868164062 704.06640625 179.868164062 696.533203125 187.399414062 c 2,15,-1
 575.004882812 308.928710938 l 1,16,-1
 455.053710938 188.978515625 l 2,17,18
 446.768554688 180.69140625 446.768554688 180.69140625 439.271484375 188.188476562 c 0,19,20
 439.208984375 188.249023438 439.208984375 188.249023438 365.880859375 261.580078125 c 0,21,22
 357.98828125 269.470703125 357.98828125 269.470703125 365.880859375 277.362304688 c 2,23,-1
 485.831054688 398.102539062 l 1,24,-1
 368.248046875 515.685546875 l 2,25,26
 360.74609375 523.1875 360.74609375 523.1875 366.124023438 529.139648438 c 0,27,28
 367.030273438 530.143554688 367.030273438 530.143554688 367.458984375 530.678710938 c 0,29,30
 404.33984375 568.750976562 404.33984375 568.750976562 442.427734375 605.6484375 c 0,31,32
 449.170898438 612.391601562 449.170898438 612.391601562 458.2109375 604.858398438 c 2,33,-1
 575.004882812 487.275390625 l 1,34,35
 586.90234375 499.172851562 586.90234375 499.172851562 611.852539062 524.80078125 c 128,-1,36
 636.802734375 550.428710938 636.802734375 550.428710938 656.528320312 569.96484375 c 128,-1,37
 676.25390625 589.5 676.25390625 589.5 694.955078125 606.4375 c 0,38,0
 697.059570312 609.59375 697.059570312 609.59375 702.057617188 609.59375 c 128,-1,1
581.427734375 900 m 2,39,40
 693.5390625 899.215820312 693.5390625 899.215820312 797.807617188 847.23828125 c 128,-1,41
 902.076171875 795.260742188 902.076171875 795.260742188 975.584960938 702.076171875 c 128,-1,42
 1049.09277344 608.891601562 1049.09277344 608.891601562 1069.91015625 495.166992188 c 0,43,44
 1090.31835938 385.672851562 1090.31835938 385.672851562 1060.89941406 275.1328125 c 128,-1,45
 1031.48046875 164.592773438 1031.48046875 164.592773438 956.603515625 74.6767578125 c 128,-1,46
 881.7265625 -15.240234375 881.7265625 -15.240234375 775.55859375 -61.181640625 c 0,47,48
 643.221679688 -118.791992188 643.221679688 -118.791992188 492.352539062 -92.0576171875 c 128,-1,49
 341.484375 -65.3232421875 341.484375 -65.3232421875 233.4140625 37.4619140625 c 0,50,51
 150.2890625 117.056640625 150.2890625 117.056640625 110.129882812 229.001953125 c 128,-1,52
 69.970703125 340.947265625 69.970703125 340.947265625 82.86328125 461.45703125 c 128,-1,53
 95.7548828125 581.966796875 95.7548828125 581.966796875 163.1796875 679.828125 c 0,54,55
 232.330078125 780.573242188 232.330078125 780.573242188 342.592773438 839.9921875 c 128,-1,56
 452.856445312 899.412109375 452.856445312 899.412109375 575.114257812 900 c 2,57,-1
 581.427734375 900 l 2,39,40
575.903320312 795.043945312 m 0,58,59
 487.6484375 794.258789062 487.6484375 794.258789062 405.515625 753.715820312 c 128,-1,60
 323.381835938 713.171875 323.381835938 713.171875 265.17578125 640.399414062 c 128,-1,61
 206.969726562 567.627929688 206.969726562 567.627929688 190.010742188 478.595703125 c 0,62,63
 173.504882812 391.7421875 173.504882812 391.7421875 196.119140625 304.096679688 c 128,-1,64
 218.733398438 216.452148438 218.733398438 216.452148438 277.546875 144.8828125 c 128,-1,65
 336.361328125 73.3134765625 336.361328125 73.3134765625 420.44140625 36.6728515625 c 0,66,67
 482.19921875 9.7451171875 482.19921875 9.7451171875 551.846679688 6.484375 c 128,-1,68
 621.495117188 3.2236328125 621.495117188 3.2236328125 686.655273438 21.9169921875 c 128,-1,69
 751.81640625 40.609375 751.81640625 40.609375 810.760742188 82.31640625 c 128,-1,70
 869.706054688 124.0234375 869.706054688 124.0234375 909.712890625 183.454101562 c 0,71,72
 965.216796875 265.926757812 965.216796875 265.926757812 971.985351562 368.416015625 c 128,-1,73
 978.754882812 470.905273438 978.754882812 470.905273438 934.247070312 567.467773438 c 128,-1,74
 889.740234375 664.030273438 889.740234375 664.030273438 802.389648438 725.598632812 c 0,75,76
 704.694335938 795.043945312 704.694335938 795.043945312 575.903320312 795.043945312 c 0,58,59
EndSplineSet
EndChar

StartChar: Uhorn
Encoding: 431 431 26
Width: 1158
VWidth: 1106
Flags: W
LayerCount: 2
Fore
SplineSet
738.359375 593.51171875 m 0,0,1
 744.328125 593.51171875 744.328125 593.51171875 751.4375 591.141601562 c 128,-1,2
 758.546875 588.771484375 758.546875 588.771484375 762.671875 586.40234375 c 2,3,-1
 766.796875 584.032226562 l 1,4,5
 781.248046875 569.583007812 781.248046875 569.583007812 778.645507812 550.065429688 c 0,6,7
 778.645507812 543.220703125 778.645507812 543.220703125 768.376953125 529.528320312 c 0,8,9
 638.553710938 326.189453125 638.553710938 326.189453125 564.577148438 226.19921875 c 0,10,11
 562.271484375 222.57421875 562.271484375 222.57421875 558.142578125 217.393554688 c 128,-1,12
 554.013671875 212.213867188 554.013671875 212.213867188 541.786132812 204.98828125 c 128,-1,13
 529.55859375 197.76171875 529.55859375 197.76171875 517.97265625 200.921875 c 0,14,15
 512.083984375 202.506835938 512.083984375 202.506835938 506.9921875 205.66015625 c 128,-1,16
 501.901367188 208.8125 501.901367188 208.8125 496.818359375 214.724609375 c 128,-1,17
 491.736328125 220.635742188 491.736328125 220.635742188 488.982421875 224.276367188 c 128,-1,18
 486.228515625 227.916992188 486.228515625 227.916992188 480.514648438 236.752929688 c 128,-1,19
 474.801757812 245.588867188 474.801757812 245.588867188 472.947265625 248.31640625 c 0,20,21
 408.173828125 341.52734375 408.173828125 341.52734375 381.31640625 391.291992188 c 0,22,23
 380.920898438 392.08203125 380.920898438 392.08203125 380.130859375 393.267578125 c 128,-1,24
 379.340820312 394.452148438 379.340820312 394.452148438 378.946289062 395.241210938 c 0,25,26
 371.833007812 409.094726562 371.833007812 409.094726562 383.774414062 423.15234375 c 128,-1,27
 395.71484375 437.208984375 395.71484375 437.208984375 412.825195312 440.00390625 c 128,-1,28
 429.935546875 442.797851562 429.935546875 442.797851562 442.9296875 433.158203125 c 0,29,30
 460.673828125 414.548828125 460.673828125 414.548828125 486.309570312 374.091796875 c 128,-1,31
 511.946289062 333.634765625 511.946289062 333.634765625 524.291992188 318.619140625 c 0,32,33
 527.643554688 315.267578125 527.643554688 315.267578125 529.403320312 319.432617188 c 0,34,35
 530.475585938 321.970703125 530.475585938 321.970703125 531.401367188 323.359375 c 0,36,37
 559.919921875 362.90625 559.919921875 362.90625 615.4765625 447.526367188 c 128,-1,38
 671.033203125 532.146484375 671.033203125 532.146484375 702.0234375 574.553710938 c 0,39,40
 717.862304688 593.51171875 717.862304688 593.51171875 738.359375 593.51171875 c 0,0,1
581.427734375 900 m 2,41,42
 693.5390625 899.215820312 693.5390625 899.215820312 797.807617188 847.23828125 c 128,-1,43
 902.076171875 795.260742188 902.076171875 795.260742188 975.584960938 702.076171875 c 128,-1,44
 1049.09277344 608.891601562 1049.09277344 608.891601562 1069.91015625 495.166992188 c 0,45,46
 1090.31835938 385.672851562 1090.31835938 385.672851562 1060.89941406 275.1328125 c 128,-1,47
 1031.48046875 164.592773438 1031.48046875 164.592773438 956.603515625 74.6767578125 c 128,-1,48
 881.7265625 -15.240234375 881.7265625 -15.240234375 775.55859375 -61.181640625 c 0,49,50
 643.221679688 -118.791992188 643.221679688 -118.791992188 492.352539062 -92.0576171875 c 128,-1,51
 341.484375 -65.3232421875 341.484375 -65.3232421875 233.4140625 37.4619140625 c 0,52,53
 150.2890625 117.056640625 150.2890625 117.056640625 110.129882812 229.001953125 c 128,-1,54
 69.970703125 340.947265625 69.970703125 340.947265625 82.86328125 461.45703125 c 128,-1,55
 95.7548828125 581.966796875 95.7548828125 581.966796875 163.1796875 679.828125 c 0,56,57
 232.330078125 780.573242188 232.330078125 780.573242188 342.592773438 839.9921875 c 128,-1,58
 452.856445312 899.412109375 452.856445312 899.412109375 575.114257812 900 c 2,59,-1
 581.427734375 900 l 2,41,42
575.903320312 795.043945312 m 0,60,61
 487.6484375 794.258789062 487.6484375 794.258789062 405.515625 753.715820312 c 128,-1,62
 323.381835938 713.171875 323.381835938 713.171875 265.17578125 640.399414062 c 128,-1,63
 206.969726562 567.627929688 206.969726562 567.627929688 190.010742188 478.595703125 c 0,64,65
 173.504882812 391.7421875 173.504882812 391.7421875 196.119140625 304.096679688 c 128,-1,66
 218.733398438 216.452148438 218.733398438 216.452148438 277.546875 144.8828125 c 128,-1,67
 336.361328125 73.3134765625 336.361328125 73.3134765625 420.44140625 36.6728515625 c 0,68,69
 482.19921875 9.7451171875 482.19921875 9.7451171875 551.846679688 6.484375 c 128,-1,70
 621.495117188 3.2236328125 621.495117188 3.2236328125 686.655273438 21.9169921875 c 128,-1,71
 751.81640625 40.609375 751.81640625 40.609375 810.760742188 82.31640625 c 128,-1,72
 869.706054688 124.0234375 869.706054688 124.0234375 909.712890625 183.454101562 c 0,73,74
 965.216796875 265.926757812 965.216796875 265.926757812 971.985351562 368.416015625 c 128,-1,75
 978.754882812 470.905273438 978.754882812 470.905273438 934.247070312 567.467773438 c 128,-1,76
 889.740234375 664.030273438 889.740234375 664.030273438 802.389648438 725.598632812 c 0,77,78
 704.694335938 795.043945312 704.694335938 795.043945312 575.903320312 795.043945312 c 0,60,61
EndSplineSet
EndChar

StartChar: uhorn
Encoding: 432 432 27
Width: 1158
VWidth: 1106
Flags: W
LayerCount: 2
Fore
SplineSet
447.024414062 590.59765625 m 0,0,1
 461.440429688 590.3203125 461.440429688 590.3203125 475.840820312 580.030273438 c 128,-1,2
 490.2421875 569.740234375 490.2421875 569.740234375 498.530273438 559.357421875 c 128,-1,3
 506.819335938 548.974609375 506.819335938 548.974609375 521.743164062 527.098632812 c 128,-1,4
 536.66796875 505.22265625 536.66796875 505.22265625 542.528320312 497.4609375 c 0,5,6
 546.717773438 491.411132812 546.717773438 491.411132812 555.0234375 480.701171875 c 128,-1,7
 563.329101562 469.991210938 563.329101562 469.991210938 564.62890625 468.2578125 c 2,8,-1
 589.88671875 497.4609375 l 2,9,10
 624.53515625 538.41015625 624.53515625 538.41015625 674.340820312 584.283203125 c 0,11,12
 689.666015625 593.095703125 689.666015625 593.095703125 710.004882812 587.440429688 c 128,-1,13
 730.342773438 581.78515625 730.342773438 581.78515625 738.65234375 567.971679688 c 128,-1,14
 746.962890625 554.157226562 746.962890625 554.157226562 737.483398438 536.92578125 c 0,15,16
 725.868164062 514.399414062 725.868164062 514.399414062 707.375976562 492.38671875 c 128,-1,17
 688.8828125 470.374023438 688.8828125 470.374023438 661.563476562 442.549804688 c 128,-1,18
 634.243164062 414.725585938 634.243164062 414.725585938 619.87890625 398.010742188 c 1,19,-1
 634.086914062 381.435546875 l 2,20,21
 710.129882812 293.293945312 710.129882812 293.293945312 736.694335938 258.305664062 c 0,22,23
 747.420898438 241.833984375 747.420898438 241.833984375 733.274414062 223.986328125 c 128,-1,24
 719.127929688 206.138671875 719.127929688 206.138671875 696.704101562 204.224609375 c 128,-1,25
 674.280273438 202.310546875 674.280273438 202.310546875 653.819335938 221.998046875 c 0,26,27
 638.83203125 240.140625 638.83203125 240.140625 608.444335938 276.448242188 c 128,-1,28
 578.055664062 312.755859375 578.055664062 312.755859375 563.05078125 330.920898438 c 1,29,30
 501.489257812 255.153320312 501.489257812 255.153320312 471.4921875 216.473632812 c 0,31,32
 468.337890625 213.317382812 468.337890625 213.317382812 466.756835938 212.52734375 c 0,33,34
 453.328125 203.065429688 453.328125 203.065429688 440.096679688 207.060546875 c 128,-1,35
 426.864257812 211.055664062 426.864257812 211.055664062 417.645507812 219.30859375 c 128,-1,36
 408.42578125 227.5625 408.42578125 227.5625 405.192382812 235.416015625 c 0,37,38
 402.078125 242.135742188 402.078125 242.135742188 401.737304688 249.249023438 c 128,-1,39
 401.396484375 256.361328125 401.396484375 256.361328125 404.118164062 263.853515625 c 128,-1,40
 406.840820312 271.345703125 406.840820312 271.345703125 410.325195312 277.966796875 c 128,-1,41
 413.809570312 284.588867188 413.809570312 284.588867188 420.258789062 292.944335938 c 128,-1,42
 426.70703125 301.30078125 426.70703125 301.30078125 431.78125 307.34765625 c 128,-1,43
 436.854492188 313.395507812 436.854492188 313.395507812 444.79296875 322.533203125 c 128,-1,44
 452.732421875 331.669921875 452.732421875 331.669921875 457.28515625 337.235351562 c 0,45,46
 465.573242188 347.49609375 465.573242188 347.49609375 482.541992188 368.017578125 c 128,-1,47
 499.512695312 388.5390625 499.512695312 388.5390625 507.799804688 398.799804688 c 1,48,49
 448.913085938 470.215820312 448.913085938 470.215820312 406.770507812 540.083007812 c 0,50,51
 405.192382812 543.240234375 405.192382812 543.240234375 405.192382812 544.818359375 c 0,52,53
 399.143554688 561.75390625 399.143554688 561.75390625 411.762695312 576.17578125 c 128,-1,54
 424.381835938 590.59765625 424.381835938 590.59765625 447.024414062 590.59765625 c 0,0,1
581.427734375 900 m 2,55,56
 693.5390625 899.215820312 693.5390625 899.215820312 797.807617188 847.23828125 c 128,-1,57
 902.076171875 795.260742188 902.076171875 795.260742188 975.584960938 702.076171875 c 128,-1,58
 1049.09277344 608.891601562 1049.09277344 608.891601562 1069.91015625 495.166992188 c 0,59,60
 1090.31835938 385.672851562 1090.31835938 385.672851562 1060.89941406 275.1328125 c 128,-1,61
 1031.48046875 164.592773438 1031.48046875 164.592773438 956.603515625 74.6767578125 c 128,-1,62
 881.7265625 -15.240234375 881.7265625 -15.240234375 775.55859375 -61.181640625 c 0,63,64
 643.221679688 -118.791992188 643.221679688 -118.791992188 492.352539062 -92.0576171875 c 128,-1,65
 341.484375 -65.3232421875 341.484375 -65.3232421875 233.4140625 37.4619140625 c 0,66,67
 150.2890625 117.056640625 150.2890625 117.056640625 110.129882812 229.001953125 c 128,-1,68
 69.970703125 340.947265625 69.970703125 340.947265625 82.86328125 461.45703125 c 128,-1,69
 95.7548828125 581.966796875 95.7548828125 581.966796875 163.1796875 679.828125 c 0,70,71
 232.330078125 780.573242188 232.330078125 780.573242188 342.592773438 839.9921875 c 128,-1,72
 452.856445312 899.412109375 452.856445312 899.412109375 575.114257812 900 c 2,73,-1
 581.427734375 900 l 2,55,56
575.903320312 795.043945312 m 0,74,75
 487.6484375 794.258789062 487.6484375 794.258789062 405.515625 753.715820312 c 128,-1,76
 323.381835938 713.171875 323.381835938 713.171875 265.17578125 640.399414062 c 128,-1,77
 206.969726562 567.627929688 206.969726562 567.627929688 190.010742188 478.595703125 c 0,78,79
 173.504882812 391.7421875 173.504882812 391.7421875 196.119140625 304.096679688 c 128,-1,80
 218.733398438 216.452148438 218.733398438 216.452148438 277.546875 144.8828125 c 128,-1,81
 336.361328125 73.3134765625 336.361328125 73.3134765625 420.44140625 36.6728515625 c 0,82,83
 482.19921875 9.7451171875 482.19921875 9.7451171875 551.846679688 6.484375 c 128,-1,84
 621.495117188 3.2236328125 621.495117188 3.2236328125 686.655273438 21.9169921875 c 128,-1,85
 751.81640625 40.609375 751.81640625 40.609375 810.760742188 82.31640625 c 128,-1,86
 869.706054688 124.0234375 869.706054688 124.0234375 909.712890625 183.454101562 c 0,87,88
 965.216796875 265.926757812 965.216796875 265.926757812 971.985351562 368.416015625 c 128,-1,89
 978.754882812 470.905273438 978.754882812 470.905273438 934.247070312 567.467773438 c 128,-1,90
 889.740234375 664.030273438 889.740234375 664.030273438 802.389648438 725.598632812 c 0,91,92
 704.694335938 795.043945312 704.694335938 795.043945312 575.903320312 795.043945312 c 0,74,75
EndSplineSet
EndChar

StartChar: aringacute
Encoding: 507 507 28
Width: 1170
VWidth: 1100
Flags: W
LayerCount: 2
Fore
SplineSet
578.909179688 900 m 2,0,1
 585.33984375 900 l 2,2,3
 746.192382812 898.743164062 746.192382812 898.743164062 873.109375 807.559570312 c 0,4,5
 876.32421875 804.344726562 876.32421875 804.344726562 878.736328125 802.737304688 c 2,6,-1
 898.83203125 815.598632812 l 2,7,8
 940.833007812 840.799804688 940.833007812 840.799804688 988.056640625 830.067382812 c 0,9,10
 1008.3125 825.340820312 1008.3125 825.340820312 1025.21484375 812.045898438 c 128,-1,11
 1042.11621094 798.750976562 1042.11621094 798.750976562 1051.35058594 785.197265625 c 128,-1,12
 1060.58496094 771.642578125 1060.58496094 771.642578125 1067.68261719 755.0703125 c 128,-1,13
 1074.77929688 738.499023438 1074.77929688 738.499023438 1076.45605469 732.2734375 c 128,-1,14
 1078.13183594 726.046875 1078.13183594 726.046875 1078.88867188 722.354492188 c 2,15,-1
 1090.14257812 411.2734375 l 1,16,-1
 1090.14257812 409.666015625 l 2,17,18
 1093.13085938 360.060546875 1093.13085938 360.060546875 1056.88964844 322.165039062 c 128,-1,19
 1020.64941406 284.26953125 1020.64941406 284.26953125 971.979492188 284.26953125 c 0,20,21
 946.30859375 284.26953125 946.30859375 284.26953125 917.319335938 297.934570312 c 0,22,23
 863.6796875 327.365234375 863.6796875 327.365234375 761.645507812 380.854492188 c 128,-1,24
 659.610351562 434.34375 659.610351562 434.34375 644.018554688 442.623046875 c 1,25,-1
 644.822265625 441.819335938 l 1,26,27
 602.84375 462.80859375 602.84375 462.80859375 585.33984375 505.321289062 c 0,28,29
 571.701171875 540.620117188 571.701171875 540.620117188 583.731445312 585.704101562 c 1,30,31
 520.921875 586.474609375 520.921875 586.474609375 473.045898438 550.486328125 c 128,-1,32
 425.169921875 514.498046875 425.169921875 514.498046875 406.379882812 460.692382812 c 128,-1,33
 387.58984375 406.885742188 387.58984375 406.885742188 401.263671875 354.202148438 c 0,34,35
 421.229492188 276.099609375 421.229492188 276.099609375 488.161132812 239.825195312 c 128,-1,36
 555.092773438 203.55078125 555.092773438 203.55078125 632.765625 221.571289062 c 0,37,38
 701.662109375 238.201171875 701.662109375 238.201171875 760.935546875 191.353515625 c 128,-1,39
 820.208984375 144.505859375 820.208984375 144.505859375 823.272460938 75.2744140625 c 0,40,41
 825.66015625 19.15625 825.66015625 19.15625 789.177734375 -27.173828125 c 128,-1,42
 752.694335938 -73.5029296875 752.694335938 -73.5029296875 697.875 -86.294921875 c 0,43,44
 597.212890625 -109.669921875 597.212890625 -109.669921875 499.029296875 -92.826171875 c 128,-1,45
 400.844726562 -75.9814453125 400.844726562 -75.9814453125 315.25390625 -22.7919921875 c 0,46,47
 234.004882812 27.9384765625 234.004882812 27.9384765625 177.263671875 106.40234375 c 128,-1,48
 120.522460938 184.866210938 120.522460938 184.866210938 96.345703125 277.255859375 c 128,-1,49
 72.16796875 369.645507812 72.16796875 369.645507812 83.751953125 462.71875 c 0,50,51
 98.666015625 583.995117188 98.666015625 583.995117188 171.809570312 684.984375 c 128,-1,52
 244.952148438 785.97265625 244.952148438 785.97265625 353.129882812 842.787109375 c 128,-1,53
 461.307617188 899.6015625 461.307617188 899.6015625 578.909179688 900 c 2,0,1
584.536132812 793.090820312 m 0,54,55
 530.237304688 793.090820312 530.237304688 793.090820312 476.823242188 779.42578125 c 0,56,57
 387.114257812 754.959960938 387.114257812 754.959960938 320.571289062 692.818359375 c 128,-1,58
 254.028320312 630.676757812 254.028320312 630.676757812 222.935546875 553.03125 c 128,-1,59
 191.842773438 475.385742188 191.842773438 475.385742188 191.983398438 388.444335938 c 128,-1,60
 192.125 301.50390625 192.125 301.50390625 227.63671875 227.197265625 c 0,61,62
 265.830078125 147.267578125 265.830078125 147.267578125 338.063476562 92.1279296875 c 128,-1,63
 410.295898438 36.9892578125 410.295898438 36.9892578125 497.956054688 17.42578125 c 128,-1,64
 585.6171875 -2.1376953125 585.6171875 -2.1376953125 670.544921875 17.3994140625 c 0,65,66
 696.248046875 23.376953125 696.248046875 23.376953125 708.858398438 45.1123046875 c 128,-1,67
 721.467773438 66.8466796875 721.467773438 66.8466796875 712.34375 88.1357421875 c 0,68,69
 706.58984375 102.16015625 706.58984375 102.16015625 691.057617188 109.333007812 c 128,-1,70
 675.524414062 116.505859375 675.524414062 116.505859375 664.233398438 115.704101562 c 128,-1,71
 652.942382812 114.90234375 652.942382812 114.90234375 648.841796875 115.465820312 c 0,72,73
 572.551757812 96.392578125 572.551757812 96.392578125 500.9375 117.876953125 c 0,74,75
 429.978515625 138.525390625 429.978515625 138.525390625 379.388671875 188.831054688 c 128,-1,76
 328.799804688 239.13671875 328.799804688 239.13671875 307.826171875 300.467773438 c 128,-1,77
 286.852539062 361.797851562 286.852539062 361.797851562 291.747070312 429.049804688 c 128,-1,78
 296.640625 496.30078125 296.640625 496.30078125 329.72265625 551.139648438 c 0,79,80
 377.387695312 630.193359375 377.387695312 630.193359375 461.08984375 665.295898438 c 128,-1,81
 544.79296875 700.399414062 544.79296875 700.399414062 631.349609375 685.901367188 c 128,-1,82
 717.907226562 671.403320312 717.907226562 671.403320312 779.865234375 614.641601562 c 1,83,-1
 690.640625 558.374023438 l 2,84,85
 685.684570312 554.657226562 685.684570312 554.657226562 685.516601562 548.426757812 c 128,-1,86
 685.34765625 542.196289062 685.34765625 542.196289062 690.640625 539.08203125 c 0,87,88
 701.682617188 533.225585938 701.682617188 533.225585938 807.438476562 478.047851562 c 128,-1,89
 913.194335938 422.87109375 913.194335938 422.87109375 967.157226562 392.786132812 c 0,90,91
 973.091796875 389.818359375 973.091796875 389.818359375 978.469726562 393.4609375 c 128,-1,92
 983.846679688 397.103515625 983.846679688 397.103515625 983.233398438 403.235351562 c 2,93,-1
 971.979492188 715.120117188 l 2,94,95
 971.376953125 721.1484375 971.376953125 721.1484375 965.548828125 724.0625 c 128,-1,96
 959.721679688 726.9765625 959.721679688 726.9765625 954.295898438 723.961914062 c 0,97,98
 939.807617188 715.510742188 939.807617188 715.510742188 867.482421875 669.301757812 c 1,99,100
 811.654296875 728.131835938 811.654296875 728.131835938 737.754882812 760.30859375 c 128,-1,101
 663.856445312 792.485351562 663.856445312 792.485351562 584.536132812 793.090820312 c 0,54,55
621.51171875 219.159179688 m 1,102,-1
 621.51171875 219.159179688 l 1,102,-1
1017.79785156 486.833007812 m 1,103,-1
 1017.79785156 486.833007812 l 1,103,-1
EndSplineSet
EndChar

StartChar: AEacute
Encoding: 508 508 29
Width: 1388
VWidth: 1100
Flags: W
LayerCount: 2
Fore
SplineSet
357.76171875 779.838867188 m 0,0,1
 381.072265625 779.03515625 381.072265625 779.03515625 412.140625 764.610351562 c 128,-1,2
 443.208984375 750.186523438 443.208984375 750.186523438 461.88671875 721.369140625 c 0,3,4
 463.487304688 718.166015625 463.487304688 718.166015625 464.290039062 717.364257812 c 0,5,6
 487.932617188 676.08984375 487.932617188 676.08984375 535.588867188 593.590820312 c 128,-1,7
 583.24609375 511.091796875 583.24609375 511.091796875 606.860351562 469.8671875 c 0,8,9
 621.122070312 444.612304688 621.122070312 444.612304688 623.453125 414.88671875 c 128,-1,10
 625.784179688 385.161132812 625.784179688 385.161132812 617.075195312 358.634765625 c 128,-1,11
 608.366210938 332.109375 608.366210938 332.109375 587.059570312 310.9375 c 128,-1,12
 565.752929688 289.766601562 565.752929688 289.766601562 535.575195312 281.641601562 c 1,13,14
 544.379882812 266.330078125 544.379882812 266.330078125 558.920898438 254.802734375 c 128,-1,15
 573.462890625 243.275390625 573.462890625 243.275390625 587.486328125 236.9609375 c 128,-1,16
 601.509765625 230.646484375 601.509765625 230.646484375 622.115234375 226.079101562 c 128,-1,17
 642.720703125 221.51171875 642.720703125 221.51171875 655.596679688 220.051757812 c 128,-1,18
 668.473632812 218.592773438 668.473632812 218.592773438 689.314453125 216.845703125 c 128,-1,19
 710.155273438 215.098632812 710.155273438 215.098632812 716.591796875 214.360351562 c 0,20,21
 764.399414062 208.434570312 764.399414062 208.434570312 801.31640625 171.850585938 c 128,-1,22
 838.232421875 135.266601562 838.232421875 135.266601562 848.127929688 86.2666015625 c 128,-1,23
 858.0234375 37.2666015625 858.0234375 37.2666015625 836.736328125 -15.5146484375 c 0,24,25
 816.541992188 -59.3642578125 816.541992188 -59.3642578125 769.540039062 -81.0693359375 c 128,-1,26
 722.537109375 -102.774414062 722.537109375 -102.774414062 666.932617188 -99.615234375 c 0,27,28
 508.006835938 -91.7294921875 508.006835938 -91.7294921875 377.932617188 13.1884765625 c 128,-1,29
 247.859375 118.107421875 247.859375 118.107421875 207.982421875 275.233398438 c 0,30,31
 204.529296875 275.53125 204.529296875 275.53125 198.618164062 276.3828125 c 128,-1,32
 192.70703125 277.235351562 192.70703125 277.235351562 176.381835938 281.811523438 c 128,-1,33
 160.056640625 286.387695312 160.056640625 286.387695312 145.934570312 293.1328125 c 128,-1,34
 131.8125 299.877929688 131.8125 299.877929688 116.201171875 313.36328125 c 128,-1,35
 100.58984375 326.84765625 100.58984375 326.84765625 91.8427734375 344.116210938 c 0,36,37
 77.9150390625 373.8359375 77.9150390625 373.8359375 80.029296875 405.690429688 c 128,-1,38
 82.142578125 437.544921875 82.142578125 437.544921875 98.2509765625 466.663085938 c 0,39,40
 118.244140625 501.905273438 118.244140625 501.905273438 241.623046875 715.76171875 c 0,41,42
 259.056640625 745.819335938 259.056640625 745.819335938 290.400390625 763.12890625 c 128,-1,43
 321.745117188 780.439453125 321.745117188 780.439453125 357.76171875 779.838867188 c 0,0,1
353.756835938 673.311523438 m 0,44,45
 339.962890625 673.311523438 339.962890625 673.311523438 333.733398438 662.09765625 c 0,46,47
 229.338867188 481.619140625 229.338867188 481.619140625 191.962890625 414.600585938 c 0,48,49
 181.950195312 399.583007812 181.950195312 399.583007812 187.958007812 390.572265625 c 0,50,51
 193.565429688 383.36328125 193.565429688 383.36328125 211.987304688 383.36328125 c 2,52,-1
 300.092773438 383.36328125 l 1,53,54
 305.55859375 262.516601562 305.55859375 262.516601562 383.124023438 160.263671875 c 128,-1,55
 460.689453125 58.0107421875 460.689453125 58.0107421875 577.224609375 22.931640625 c 0,56,57
 642.891601562 2.8291015625 642.891601562 2.8291015625 699.772460938 6.111328125 c 0,58,59
 725.833984375 7.55859375 725.833984375 7.55859375 736.616210938 23.732421875 c 0,60,61
 744.5546875 34.845703125 744.5546875 34.845703125 746.749023438 49.0458984375 c 128,-1,62
 748.944335938 63.24609375 748.944335938 63.24609375 744.637695312 76.6455078125 c 128,-1,63
 740.33203125 90.044921875 740.33203125 90.044921875 730.208007812 98.2216796875 c 0,64,65
 717.393554688 108.633789062 717.393554688 108.633789062 682.952148438 108.633789062 c 0,66,67
 515.611328125 113.077148438 515.611328125 113.077148438 448.270507812 219.967773438 c 0,68,69
 409.0625 283.546875 409.0625 283.546875 403.416992188 380.9609375 c 1,70,-1
 403.416992188 383.36328125 l 1,71,-1
 497.9296875 383.36328125 l 2,72,73
 514.802734375 385.049804688 514.802734375 385.049804688 518.754882812 391.373046875 c 0,74,75
 523.837890625 399.844726562 523.837890625 399.844726562 514.75 416.203125 c 0,76,77
 497.723632812 446.439453125 497.723632812 446.439453125 372.98046875 662.09765625 c 0,78,79
 365.970703125 673.311523438 365.970703125 673.311523438 353.756835938 673.311523438 c 0,44,45
696.568359375 899.982421875 m 0,80,81
 803.995117188 899.186523438 803.995117188 899.186523438 903.868164062 852.29296875 c 128,-1,82
 1003.74121094 805.400390625 1003.74121094 805.400390625 1076.90625 720.466796875 c 128,-1,83
 1150.0703125 635.533203125 1150.0703125 635.533203125 1177.9453125 529.138671875 c 0,84,85
 1181.75585938 528.807617188 1181.75585938 528.807617188 1188.2421875 527.854492188 c 128,-1,86
 1194.72851562 526.900390625 1194.72851562 526.900390625 1212.39941406 521.75390625 c 128,-1,87
 1230.0703125 516.606445312 1230.0703125 516.606445312 1245.05273438 509.002929688 c 128,-1,88
 1260.03417969 501.399414062 1260.03417969 501.399414062 1275.93847656 486.177734375 c 128,-1,89
 1291.84179688 470.95703125 1291.84179688 470.95703125 1299.69140625 451.4453125 c 0,90,91
 1321.51757812 395.665039062 1321.51757812 395.665039062 1287.67675781 336.106445312 c 2,92,-1
 1216.39160156 213.559570312 l 1,93,-1
 1145.10546875 91.0126953125 l 2,94,95
 1126.63671875 61.3466796875 1126.63671875 61.3466796875 1102.65527344 46.1591796875 c 0,96,97
 1060.83398438 19.369140625 1060.83398438 19.369140625 1006.94042969 30.94140625 c 128,-1,98
 953.046875 42.513671875 953.046875 42.513671875 925.642578125 85.40625 c 0,99,100
 924.842773438 86.6064453125 924.842773438 86.6064453125 924.041992188 88.208984375 c 128,-1,101
 923.240234375 89.810546875 923.240234375 89.810546875 922.438476562 91.0126953125 c 2,102,-1
 851.954101562 213.559570312 l 2,103,104
 839.944335938 233.9765625 839.944335938 233.9765625 816.31640625 275.225585938 c 128,-1,105
 792.688476562 316.475585938 792.688476562 316.475585938 780.668945312 336.908203125 c 0,106,107
 778.068359375 341.581054688 778.068359375 341.581054688 774.30078125 349.579101562 c 128,-1,108
 770.533203125 357.577148438 770.533203125 357.577148438 764.876953125 378.96875 c 128,-1,109
 759.220703125 400.361328125 759.220703125 400.361328125 760.64453125 417.8046875 c 0,110,111
 763.63671875 453.7109375 763.63671875 453.7109375 787.502929688 482.79296875 c 128,-1,112
 811.370117188 511.875976562 811.370117188 511.875976562 846.34765625 522.73046875 c 1,113,114
 835.10546875 540.374023438 835.10546875 540.374023438 820.716796875 551.565429688 c 0,115,116
 805.611328125 563.313476562 805.611328125 563.313476562 783.952148438 570.333007812 c 128,-1,117
 762.291992188 577.3515625 762.291992188 577.3515625 746.499023438 579.203125 c 128,-1,118
 730.705078125 581.053710938 730.705078125 581.053710938 704.7578125 582.647460938 c 128,-1,119
 678.809570312 584.241210938 678.809570312 584.241210938 670.13671875 585.205078125 c 0,120,121
 632.795898438 589.909179688 632.795898438 589.909179688 601.215820312 613.96484375 c 128,-1,122
 569.63671875 638.01953125 569.63671875 638.01953125 553.095703125 672.309570312 c 128,-1,123
 536.555664062 706.599609375 536.555664062 706.599609375 534.861328125 747.173828125 c 128,-1,124
 533.16796875 787.749023438 533.16796875 787.749023438 555.599609375 825.493164062 c 0,125,126
 575.740234375 861.03515625 575.740234375 861.03515625 613.895507812 880.814453125 c 128,-1,127
 652.05078125 900.592773438 652.05078125 900.592773438 696.568359375 899.982421875 c 0,80,81
692.563476562 793.455078125 m 2,128,129
 664.796875 793.455078125 664.796875 793.455078125 650.913085938 777.435546875 c 0,130,131
 638.100585938 760.775390625 638.100585938 760.775390625 639.599609375 737.288085938 c 128,-1,132
 641.099609375 713.80078125 641.099609375 713.80078125 656.520507812 701.344726562 c 0,133,134
 665.930664062 694.10546875 665.930664062 694.10546875 677.065429688 691.836914062 c 128,-1,135
 688.19921875 689.568359375 688.19921875 689.568359375 707.259765625 689.760742188 c 128,-1,136
 726.321289062 689.953125 726.321289062 689.953125 734.212890625 689.330078125 c 0,137,138
 797.390625 684.172851562 797.390625 684.172851562 850.7578125 657.489257812 c 128,-1,139
 904.125 630.805664062 904.125 630.805664062 936.055664062 581.200195312 c 0,140,141
 974.903320312 520.302734375 974.903320312 520.302734375 983.311523438 425.013671875 c 1,142,-1
 983.311523438 422.610351562 l 1,143,-1
 889.599609375 422.610351562 l 2,144,145
 872.725585938 420.923828125 872.725585938 420.923828125 868.774414062 414.600585938 c 0,146,147
 863.73828125 406.685546875 863.73828125 406.685546875 873.580078125 388.969726562 c 2,148,-1
 944.064453125 267.224609375 l 2,149,150
 952.07421875 253.340820312 952.07421875 253.340820312 966.40234375 227.17578125 c 128,-1,151
 980.73046875 201.01171875 980.73046875 201.01171875 992.745117188 180.186523438 c 128,-1,152
 1004.75976562 159.361328125 1004.75976562 159.361328125 1016.15136719 142.274414062 c 0,153,154
 1022.70996094 133.178710938 1022.70996094 133.178710938 1034.87402344 133.864257812 c 128,-1,155
 1047.03808594 134.549804688 1047.03808594 134.549804688 1052.99511719 144.677734375 c 2,156,-1
 1124.28125 267.224609375 l 1,157,-1
 1194.765625 388.969726562 l 2,158,159
 1196.52246094 392.163085938 1196.52246094 392.163085938 1199.20605469 396.625976562 c 128,-1,160
 1201.890625 401.08984375 1201.890625 401.08984375 1202.41601562 402.131835938 c 128,-1,161
 1202.94140625 403.174804688 1202.94140625 403.174804688 1203.23046875 405.700195312 c 128,-1,162
 1203.51953125 408.225585938 1203.51953125 408.225585938 1202.40332031 410.051757812 c 128,-1,163
 1201.28710938 411.87890625 1201.28710938 411.87890625 1198.77050781 415.401367188 c 0,164,165
 1193.16308594 422.610351562 1193.16308594 422.610351562 1174.74121094 422.610351562 c 2,166,-1
 1086.63574219 422.610351562 l 1,167,168
 1082.48242188 494.107421875 1082.48242188 494.107421875 1049.80664062 561.619140625 c 128,-1,169
 1017.13183594 629.129882812 1017.13183594 629.129882812 965.399414062 679.96484375 c 128,-1,170
 913.66796875 730.798828125 913.66796875 730.798828125 842.80859375 761.833984375 c 128,-1,171
 771.950195312 792.869140625 771.950195312 792.869140625 695.767578125 793.455078125 c 2,172,-1
 692.563476562 793.455078125 l 2,128,129
EndSplineSet
EndChar

StartChar: uni01B5
Encoding: 437 437 30
Width: 1158
VWidth: 1106
Flags: W
LayerCount: 2
Fore
SplineSet
581.427734375 900 m 2,0,1
 693.5390625 899.215820312 693.5390625 899.215820312 797.807617188 847.23828125 c 128,-1,2
 902.076171875 795.260742188 902.076171875 795.260742188 975.584960938 702.076171875 c 128,-1,3
 1049.09277344 608.891601562 1049.09277344 608.891601562 1069.91015625 495.166992188 c 0,4,5
 1090.31835938 385.672851562 1090.31835938 385.672851562 1060.89941406 275.1328125 c 128,-1,6
 1031.48046875 164.592773438 1031.48046875 164.592773438 956.603515625 74.6767578125 c 128,-1,7
 881.7265625 -15.240234375 881.7265625 -15.240234375 775.55859375 -61.181640625 c 0,8,9
 643.221679688 -118.791992188 643.221679688 -118.791992188 492.352539062 -92.0576171875 c 128,-1,10
 341.484375 -65.3232421875 341.484375 -65.3232421875 233.4140625 37.4619140625 c 0,11,12
 150.2890625 117.056640625 150.2890625 117.056640625 110.129882812 229.001953125 c 128,-1,13
 69.970703125 340.947265625 69.970703125 340.947265625 82.86328125 461.45703125 c 128,-1,14
 95.7548828125 581.966796875 95.7548828125 581.966796875 163.1796875 679.828125 c 0,15,16
 232.330078125 780.573242188 232.330078125 780.573242188 342.592773438 839.9921875 c 128,-1,17
 452.856445312 899.412109375 452.856445312 899.412109375 575.114257812 900 c 2,18,-1
 581.427734375 900 l 2,0,1
575.903320312 795.043945312 m 0,19,20
 487.6484375 794.258789062 487.6484375 794.258789062 405.515625 753.715820312 c 128,-1,21
 323.381835938 713.171875 323.381835938 713.171875 265.17578125 640.399414062 c 128,-1,22
 206.969726562 567.627929688 206.969726562 567.627929688 190.010742188 478.595703125 c 0,23,24
 173.504882812 391.7421875 173.504882812 391.7421875 196.119140625 304.096679688 c 128,-1,25
 218.733398438 216.452148438 218.733398438 216.452148438 277.546875 144.8828125 c 128,-1,26
 336.361328125 73.3134765625 336.361328125 73.3134765625 420.44140625 36.6728515625 c 0,27,28
 482.19921875 9.7451171875 482.19921875 9.7451171875 551.846679688 6.484375 c 128,-1,29
 621.495117188 3.2236328125 621.495117188 3.2236328125 686.655273438 21.9169921875 c 128,-1,30
 751.81640625 40.609375 751.81640625 40.609375 810.760742188 82.31640625 c 128,-1,31
 869.706054688 124.0234375 869.706054688 124.0234375 909.712890625 183.454101562 c 0,32,33
 965.216796875 265.926757812 965.216796875 265.926757812 971.985351562 368.416015625 c 128,-1,34
 978.754882812 470.905273438 978.754882812 470.905273438 934.247070312 567.467773438 c 128,-1,35
 889.740234375 664.030273438 889.740234375 664.030273438 802.389648438 725.598632812 c 0,36,37
 704.694335938 795.043945312 704.694335938 795.043945312 575.903320312 795.043945312 c 0,19,20
601.15625 270.259765625 m 2,38,39
 619.953125 270.259765625 619.953125 270.259765625 627.987304688 257.633789062 c 0,40,41
 632.622070312 249.43359375 632.622070312 249.43359375 633.749023438 239.620117188 c 128,-1,42
 634.876953125 229.805664062 634.876953125 229.805664062 633.799804688 213.3046875 c 128,-1,43
 632.72265625 196.8046875 632.72265625 196.8046875 632.72265625 192.134765625 c 0,44,45
 632.72265625 179.875 632.72265625 179.875 623.833007812 170.508789062 c 128,-1,46
 614.943359375 161.142578125 614.943359375 161.142578125 601.15625 160.568359375 c 0,47,48
 595.73046875 160.568359375 595.73046875 160.568359375 580.0859375 159.84375 c 128,-1,49
 564.44140625 159.119140625 564.44140625 159.119140625 557.122070312 159.407226562 c 128,-1,50
 549.802734375 159.694335938 549.802734375 159.694335938 540.7265625 162.9765625 c 128,-1,51
 531.650390625 166.2578125 531.650390625 166.2578125 527.765625 173.1953125 c 0,52,53
 523.129882812 181.040039062 523.129882812 181.040039062 522.00390625 190.670898438 c 128,-1,54
 520.876953125 200.30078125 520.876953125 200.30078125 521.954101562 216.747070312 c 128,-1,55
 523.03125 233.192382812 523.03125 233.192382812 523.03125 237.905273438 c 0,56,57
 523.03125 250.40625 523.03125 250.40625 531.7265625 260.049804688 c 128,-1,58
 540.420898438 269.692382812 540.420898438 269.692382812 554.596679688 270.259765625 c 2,59,-1
 601.15625 270.259765625 l 2,38,39
601.15625 639.581054688 m 0,60,61
 620.623046875 639.581054688 620.623046875 639.581054688 627.987304688 626.955078125 c 0,62,63
 632.72265625 620.326171875 632.72265625 620.326171875 632.72265625 608.015625 c 0,64,65
 633.91015625 495.16796875 633.91015625 495.16796875 632.72265625 382.319335938 c 0,66,67
 632.72265625 365.8359375 632.72265625 365.8359375 622.463867188 357.85546875 c 0,68,69
 614.961914062 352.139648438 614.961914062 352.139648438 605.189453125 350.639648438 c 128,-1,70
 595.416015625 349.139648438 595.416015625 349.139648438 577.1328125 350.340820312 c 128,-1,71
 558.848632812 351.541992188 558.848632812 351.541992188 554.596679688 351.541992188 c 0,72,73
 542.244140625 351.541992188 542.244140625 351.541992188 532.923828125 360.073242188 c 128,-1,74
 523.602539062 368.604492188 523.602539062 368.604492188 523.03125 382.319335938 c 0,75,76
 521.84375 495.16796875 521.84375 495.16796875 523.03125 608.015625 c 0,77,78
 523.03125 627.481445312 523.03125 627.481445312 535.657226562 634.846679688 c 0,79,80
 543.5 639.48046875 543.5 639.48046875 553.310546875 640.608398438 c 128,-1,81
 563.12109375 641.736328125 563.12109375 641.736328125 579.8203125 640.658203125 c 128,-1,82
 596.520507812 639.581054688 596.520507812 639.581054688 601.15625 639.581054688 c 0,60,61
EndSplineSet
EndChar

StartChar: uni01B6
Encoding: 438 438 31
Width: 1158
VWidth: 1106
Flags: W
LayerCount: 2
Fore
SplineSet
601.178710938 447.735351562 m 0,0,1
 613.44140625 447.735351562 613.44140625 447.735351562 622.80859375 438.844726562 c 128,-1,2
 632.17578125 429.954101562 632.17578125 429.954101562 632.75 416.1640625 c 0,3,4
 633.930664062 304.084960938 633.930664062 304.084960938 632.75 192.004882812 c 0,5,6
 632.75 179.743164062 632.75 179.743164062 623.859375 170.375 c 128,-1,7
 614.967773438 161.0078125 614.967773438 161.0078125 601.178710938 160.43359375 c 0,8,9
 553.475822667 157.597048788 553.475822667 157.597048788 542.005859375 160.38671875 c 0,10,11
 532.578125 162.6796875 532.578125 162.6796875 527.920898438 170.583007812 c 128,-1,12
 523.264648438 178.485351562 523.264648438 178.485351562 523.0390625 192.004882812 c 0,13,14
 521.859375 304.084960938 521.859375 304.084960938 523.0390625 416.1640625 c 0,15,16
 523.0390625 435.6328125 523.0390625 435.6328125 535.66796875 443 c 0,17,18
 543.681947627 447.735351562 543.681947627 447.735351562 601.178710938 447.735351562 c 0,0,1
601.178710938 640.534179688 m 0,19,20
 620 641 620 641 628.014648438 626.905273438 c 0,21,22
 634 617 634 617 633.77734375 609.249023438 c 0,23,24
 633 589 633 589 633.75 561.393554688 c 0,25,26
 634 543 634 543 628 537 c 0,27,28
 619 528 619 528 606.141601562 528.012695312 c 0,29,30
 579 528 579 528 559.48046875 527.342773438 c 0,31,32
 551 527 551 527 542.005859375 529.775390625 c 0,33,34
 533 532 533 532 527.5 540 c 128,-1,35
 522.088837 547.870782545 522.088837 547.870782545 522.0390625 561.393554688 c 2,36,-1
 521.876953125 605.435546875 l 2,37,38
 522 613 522 613 525.447265625 621.833984375 c 0,39,40
 533 641 533 641 556.323242188 640.560546875 c 0,41,42
 577 640 577 640 601.178710938 640.534179688 c 0,19,20
581.427734375 900 m 2,43,44
 693.5390625 899.215820312 693.5390625 899.215820312 797.807617188 847.23828125 c 128,-1,45
 902.076171875 795.260742188 902.076171875 795.260742188 975.584960938 702.076171875 c 128,-1,46
 1049.09277344 608.891601562 1049.09277344 608.891601562 1069.91015625 495.166992188 c 0,47,48
 1090.31835938 385.672851562 1090.31835938 385.672851562 1060.89941406 275.1328125 c 128,-1,49
 1031.48046875 164.592773438 1031.48046875 164.592773438 956.603515625 74.6767578125 c 128,-1,50
 881.7265625 -15.240234375 881.7265625 -15.240234375 775.55859375 -61.181640625 c 0,51,52
 643.221679688 -118.791992188 643.221679688 -118.791992188 492.352539062 -92.0576171875 c 128,-1,53
 341.484375 -65.3232421875 341.484375 -65.3232421875 233.4140625 37.4619140625 c 0,54,55
 150.2890625 117.056640625 150.2890625 117.056640625 110.129882812 229.001953125 c 128,-1,56
 69.970703125 340.947265625 69.970703125 340.947265625 82.86328125 461.45703125 c 128,-1,57
 95.7548828125 581.966796875 95.7548828125 581.966796875 163.1796875 679.828125 c 0,58,59
 232.330078125 780.573242188 232.330078125 780.573242188 342.592773438 839.9921875 c 128,-1,60
 452.856445312 899.412109375 452.856445312 899.412109375 575.114257812 900 c 2,61,-1
 581.427734375 900 l 2,43,44
575.903320312 795.043945312 m 0,62,63
 487.6484375 794.258789062 487.6484375 794.258789062 405.515625 753.715820312 c 128,-1,64
 323.381835938 713.171875 323.381835938 713.171875 265.17578125 640.399414062 c 128,-1,65
 206.969726562 567.627929688 206.969726562 567.627929688 190.010742188 478.595703125 c 0,66,67
 173.504882812 391.7421875 173.504882812 391.7421875 196.119140625 304.096679688 c 128,-1,68
 218.733398438 216.452148438 218.733398438 216.452148438 277.546875 144.8828125 c 128,-1,69
 336.361328125 73.3134765625 336.361328125 73.3134765625 420.44140625 36.6728515625 c 0,70,71
 482.19921875 9.7451171875 482.19921875 9.7451171875 551.846679688 6.484375 c 128,-1,72
 621.495117188 3.2236328125 621.495117188 3.2236328125 686.655273438 21.9169921875 c 128,-1,73
 751.81640625 40.609375 751.81640625 40.609375 810.760742188 82.31640625 c 128,-1,74
 869.706054688 124.0234375 869.706054688 124.0234375 909.712890625 183.454101562 c 0,75,76
 965.216796875 265.926757812 965.216796875 265.926757812 971.985351562 368.416015625 c 128,-1,77
 978.754882812 470.905273438 978.754882812 470.905273438 934.247070312 567.467773438 c 128,-1,78
 889.740234375 664.030273438 889.740234375 664.030273438 802.389648438 725.598632812 c 0,79,80
 704.694335938 795.043945312 704.694335938 795.043945312 575.903320312 795.043945312 c 0,62,63
EndSplineSet
EndChar

StartChar: Aogonek
Encoding: 260 260 32
Width: 1387
VWidth: 1100
Flags: W
LayerCount: 2
Fore
SplineSet
1024.9609375 900 m 2,0,1
 1037.72070312 900 1037.72070312 900 1047.29589844 897.607421875 c 0,2,3
 1086.34277344 889.32421875 1086.34277344 889.32421875 1115.09863281 859.318359375 c 2,4,-1
 1270.64746094 704.567382812 l 2,5,6
 1288.21386719 686.181640625 1288.21386719 686.181640625 1296.97070312 666.279296875 c 0,7,8
 1312.35058594 632.580078125 1312.35058594 632.580078125 1306.24316406 594.6875 c 128,-1,9
 1300.13671875 556.794921875 1300.13671875 556.794921875 1275.43261719 529.078125 c 0,10,11
 1274.63476562 527.880859375 1274.63476562 527.880859375 1273.43847656 526.684570312 c 128,-1,12
 1272.24121094 525.487304688 1272.24121094 525.487304688 1271.44433594 524.291992188 c 2,13,-1
 683.552734375 -63.6005859375 l 2,14,15
 647.030273438 -99.513671875 647.030273438 -99.513671875 593.813476562 -99.994140625 c 128,-1,16
 540.596679688 -100.475585938 540.596679688 -100.475585938 501.681640625 -62.802734375 c 0,17,18
 445.666992188 -4.6611328125 445.666992188 -4.6611328125 381.452148438 59.5537109375 c 128,-1,19
 317.237304688 123.767578125 317.237304688 123.767578125 238.224609375 201.716796875 c 128,-1,20
 159.211914062 279.666015625 159.211914062 279.666015625 116.400390625 322.477539062 c 0,21,22
 80.4853515625 359.610351562 80.4853515625 359.610351562 80.005859375 412.516601562 c 128,-1,23
 79.5263671875 465.422851562 79.5263671875 465.422851562 117.198242188 504.349609375 c 0,24,25
 197.161132812 580.732421875 197.161132812 580.732421875 273.543945312 660.6953125 c 0,26,27
 294.329101562 680.65625 294.329101562 680.65625 317.416992188 690.209960938 c 0,28,29
 351.791992188 704.305664062 351.791992188 704.305664062 389.70703125 696.192382812 c 128,-1,30
 427.622070312 688.078125 427.622070312 688.078125 455.416015625 661.493164062 c 2,31,-1
 592.6171875 524.291992188 l 1,32,-1
 933.227539062 864.104492188 l 1,33,34
 972.389648438 896.01953125 972.389648438 896.01953125 1011.40039062 900 c 2,35,-1
 1023.36523438 900 l 1,36,-1
 1024.9609375 900 l 2,0,1
1020.97265625 793.908203125 m 0,37,38
 1011.66503906 792.578125 1011.66503906 792.578125 1005.81640625 786.729492188 c 2,39,-1
 592.6171875 373.529296875 l 1,40,-1
 379.635742188 586.510742188 l 2,41,42
 373.653320312 592.493164062 373.653320312 592.493164062 364.87890625 592.493164062 c 128,-1,43
 356.104492188 592.493164062 356.104492188 592.493164062 350.12109375 586.510742188 c 0,44,45
 327.078125 562.758789062 327.078125 562.758789062 300.751953125 536.432617188 c 128,-1,46
 274.426757812 510.106445312 274.426757812 510.106445312 242.081054688 478.116210938 c 128,-1,47
 209.736328125 446.125976562 209.736328125 446.125976562 192.180664062 428.569335938 c 0,48,49
 185.663085938 422.051757812 185.663085938 422.051757812 185.5 413.114257812 c 128,-1,50
 185.337890625 404.177734375 185.337890625 404.177734375 191.3828125 398.2578125 c 0,51,52
 248.106445312 340.469726562 248.106445312 340.469726562 312.512695312 276.064453125 c 128,-1,53
 376.91796875 211.659179688 376.91796875 211.659179688 455.799804688 133.309570312 c 128,-1,54
 534.681640625 54.958984375 534.681640625 54.958984375 577.4609375 12.1796875 c 0,55,56
 583.978515625 5.662109375 583.978515625 5.662109375 592.916015625 5.4990234375 c 128,-1,57
 601.853515625 5.3369140625 601.853515625 5.3369140625 607.7734375 11.3818359375 c 0,58,59
 695.33984375 97.884765625 695.33984375 97.884765625 793.250976562 195.795898438 c 128,-1,60
 891.162109375 293.70703125 891.162109375 293.70703125 1010.453125 413.530273438 c 128,-1,61
 1129.74316406 533.352539062 1129.74316406 533.352539062 1194.8671875 598.4765625 c 0,62,63
 1209.02734375 614.2109375 1209.02734375 614.2109375 1195.66503906 628.788085938 c 2,64,-1
 1037.72363281 786.729492188 l 2,65,66
 1031.56933594 793.908203125 1031.56933594 793.908203125 1020.97265625 793.908203125 c 0,37,38
EndSplineSet
EndChar

StartChar: two
Encoding: 50 50 33
Width: 600
VWidth: 0
Flags: W
LayerCount: 2
Fore
SplineSet
135.399414062 0 m 2,0,1
 118.354492188 0.001953125 118.354492188 0.001953125 106.290039062 12.06640625 c 128,-1,2
 94.224609375 24.130859375 94.224609375 24.130859375 94.2236328125 41.17578125 c 2,3,-1
 94.2236328125 101.231445312 l 2,4,5
 94.2236328125 131.893554688 94.2236328125 131.893554688 115.313476562 154.088867188 c 0,6,7
 128.305664062 167.767578125 128.305664062 167.767578125 184.868164062 227.313476562 c 128,-1,8
 241.430664062 286.860351562 241.430664062 286.860351562 301.599609375 350.204101562 c 128,-1,9
 361.768554688 413.547851562 361.768554688 413.547851562 396.892578125 450.526367188 c 0,10,11
 426.157226562 481.329101562 426.157226562 481.329101562 425.68359375 521.036132812 c 0,12,13
 425.1953125 561.541015625 425.1953125 561.541015625 396.822265625 589.591796875 c 128,-1,14
 368.44921875 617.643554688 368.44921875 617.643554688 327.951171875 617.643554688 c 2,15,-1
 301.974609375 617.643554688 l 1,16,-1
 133.7109375 617.643554688 l 2,17,18
 133.388671875 617.639648438 133.388671875 617.639648438 133.129882812 617.639648438 c 0,19,20
 116.081054688 617.639648438 116.081054688 617.639648438 104.015625 629.706054688 c 128,-1,21
 91.94921875 641.771484375 91.94921875 641.771484375 91.94921875 658.8203125 c 128,-1,22
 91.94921875 675.869140625 91.94921875 675.869140625 104.015625 687.934570312 c 128,-1,23
 116.081054688 700.000976562 116.081054688 700.000976562 133.129882812 700.000976562 c 0,24,25
 133.442382812 700.000976562 133.442382812 700.000976562 133.7109375 699.99609375 c 2,26,-1
 301.974609375 699.99609375 l 1,27,-1
 327.951171875 699.99609375 l 2,28,29
 401.569335938 699.99609375 401.569335938 699.99609375 454.359375 647.825195312 c 128,-1,30
 507.149414062 595.655273438 507.149414062 595.655273438 508.036132812 522.041992188 c 0,31,-1
 508.036132812 522.018554688 l 2,32,33
 508.908203125 448.875 508.908203125 448.875 456.5859375 393.8046875 c 0,34,35
 421.456054688 356.794921875 421.456054688 356.794921875 362.787109375 295.029296875 c 128,-1,36
 304.1171875 233.264648438 304.1171875 233.264648438 245.677734375 171.7421875 c 128,-1,37
 187.23828125 110.21875 187.23828125 110.21875 176.579101562 98.9970703125 c 1,38,-1
 176.579101562 82.349609375 l 1,39,-1
 465.21484375 82.349609375 l 2,40,41
 465.53515625 82.353515625 465.53515625 82.353515625 465.794921875 82.353515625 c 0,42,43
 482.84375 82.353515625 482.84375 82.353515625 494.91015625 70.287109375 c 128,-1,44
 506.975585938 58.2216796875 506.975585938 58.2216796875 506.975585938 41.1728515625 c 128,-1,45
 506.975585938 24.1240234375 506.975585938 24.1240234375 494.91015625 12.05859375 c 128,-1,46
 482.84375 -0.0078125 482.84375 -0.0078125 465.794921875 -0.0078125 c 0,47,48
 465.481445312 -0.0078125 465.481445312 -0.0078125 465.21484375 -0.0029296875 c 2,49,-1
 135.399414062 0 l 2,0,1
EndSplineSet
EndChar

StartChar: uni02BE
Encoding: 702 702 34
Width: 1160
VWidth: 1200
Flags: W
LayerCount: 2
Fore
SplineSet
575.547851562 882.245117188 m 2,0,1
 580.293945312 882.245117188 l 2,2,3
 603.493164062 881.97265625 603.493164062 881.97265625 624.495117188 871.849609375 c 128,-1,4
 645.498046875 861.727539062 645.498046875 861.727539062 659.686523438 846.065429688 c 128,-1,5
 673.875976562 830.40234375 673.875976562 830.40234375 679.748046875 822.505859375 c 128,-1,6
 685.620117188 814.609375 685.620117188 814.609375 689.463867188 807.8828125 c 0,7,8
 705.68359375 771.735351562 705.68359375 771.735351562 733.779296875 703.440429688 c 128,-1,9
 761.875976562 635.146484375 761.875976562 635.146484375 767.78125 621.1875 c 1,10,-1
 783.602539062 619.60546875 l 1,11,-1
 801.797851562 618.022460938 l 2,12,13
 818.98828125 616.62890625 818.98828125 616.62890625 856.903320312 614.0859375 c 128,-1,14
 894.819335938 611.54296875 894.819335938 611.54296875 923.3671875 609.0390625 c 128,-1,15
 951.915039062 606.534179688 951.915039062 606.534179688 977.41796875 602.9921875 c 0,16,17
 1035.88867188 595.466796875 1035.88867188 595.466796875 1064.31054688 542.278320312 c 128,-1,18
 1092.73242188 489.090820312 1092.73242188 489.090820312 1070.76660156 438.446289062 c 0,19,20
 1062.08105469 417.918945312 1062.08105469 417.918945312 1041.49609375 398.1015625 c 0,21,22
 1027.90234375 385.569335938 1027.90234375 385.569335938 884.861328125 262.03515625 c 1,23,24
 890.176757812 239.25390625 890.176757812 239.25390625 901.510742188 195.2890625 c 128,-1,25
 912.844726562 151.32421875 912.844726562 151.32421875 920.6875 117.033203125 c 128,-1,26
 928.530273438 82.7421875 928.530273438 82.7421875 933.1171875 52.3974609375 c 0,27,28
 939.572265625 7.798828125 939.572265625 7.798828125 912.466796875 -30.85546875 c 128,-1,29
 885.360351562 -69.509765625 885.360351562 -69.509765625 842.142578125 -79.7138671875 c 0,30,31
 820.856445312 -84.90625 820.856445312 -84.90625 796.936523438 -80.28125 c 128,-1,32
 773.017578125 -75.65625 773.017578125 -75.65625 761.452148438 -69.4296875 c 0,33,34
 733.76171875 -54.7080078125 733.76171875 -54.7080078125 703.264648438 -36.375 c 128,-1,35
 672.768554688 -18.04296875 672.768554688 -18.04296875 636.635742188 4.576171875 c 128,-1,36
 600.501953125 27.1953125 600.501953125 27.1953125 579.502929688 39.740234375 c 1,37,-1
 575.547851562 37.3671875 l 2,38,39
 561.106445312 28.5517578125 561.106445312 28.5517578125 519.352539062 2.5283203125 c 128,-1,40
 477.599609375 -23.494140625 477.599609375 -23.494140625 450.056640625 -39.865234375 c 128,-1,41
 422.513671875 -56.236328125 422.513671875 -56.236328125 397.553710938 -69.4296875 c 0,42,43
 349.833007812 -94.146484375 349.833007812 -94.146484375 298.07421875 -72.1982421875 c 128,-1,44
 246.31640625 -50.2509765625 246.31640625 -50.2509765625 230.634765625 -1.396484375 c 0,45,46
 221.94921875 23.8681640625 221.94921875 23.8681640625 226.678710938 57.9345703125 c 0,47,48
 226.688476562 57.9814453125 226.688476562 57.9814453125 274.14453125 262.03515625 c 1,49,50
 247.642578125 284.9765625 247.642578125 284.9765625 194.244140625 330.859375 c 128,-1,51
 140.845703125 376.7421875 140.845703125 376.7421875 114.344726562 399.68359375 c 0,52,53
 83.3740234375 431.845703125 83.3740234375 431.845703125 80.03125 478.000976562 c 128,-1,54
 76.689453125 524.15625 76.689453125 524.15625 103.26953125 558.69140625 c 0,55,56
 135.740234375 599.28125 135.740234375 599.28125 196.618164062 604.57421875 c 0,57,58
 327.362304688 615.736328125 327.362304688 615.736328125 390.43359375 621.1875 c 1,59,-1
 393.59765625 627.515625 l 1,60,61
 444.259765625 749.418945312 444.259765625 749.418945312 470.333007812 811.047851562 c 0,62,63
 492.100585938 859.703125 492.100585938 859.703125 540.739257812 875.916992188 c 0,64,65
 554.854492188 881.345703125 554.854492188 881.345703125 575.547851562 882.245117188 c 2,0,1
579.502929688 777.03125 m 128,-1,67
 571.909179688 777.03125 571.909179688 777.03125 567.63671875 769.911132812 c 2,68,-1
 562.889648438 758.8359375 l 2,69,70
 549.73046875 728.022460938 549.73046875 728.022460938 516.857421875 649.572265625 c 128,-1,71
 483.985351562 571.122070312 483.985351562 571.122070312 465.586914062 528.630859375 c 0,72,73
 461.638671875 519.9453125 461.638671875 519.9453125 449.764648438 519.928710938 c 0,74,75
 201.2421875 499.217773438 201.2421875 499.217773438 194.244140625 498.569335938 c 0,76,77
 187.14453125 496.793945312 187.14453125 496.793945312 184.751953125 489.2734375 c 128,-1,78
 182.358398438 481.75390625 182.358398438 481.75390625 187.125 476.418945312 c 0,79,80
 215.665039062 451.317382812 215.665039062 451.317382812 282.671875 393.711914062 c 128,-1,81
 349.678710938 336.106445312 349.678710938 336.106445312 384.896484375 304.75390625 c 0,82,83
 389.885742188 299.763671875 389.885742188 299.763671875 386.478515625 281.020507812 c 0,84,85
 379.485351562 248.9140625 379.485351562 248.9140625 359.903320312 167.157226562 c 128,-1,86
 340.322265625 85.400390625 340.322265625 85.400390625 331.102539062 39.740234375 c 0,87,88
 329.298828125 30.7197265625 329.298828125 30.7197265625 332.544921875 24.072265625 c 128,-1,89
 335.791992188 17.4248046875 335.791992188 17.4248046875 347.71484375 23.126953125 c 0,90,91
 389.125 46.474609375 389.125 46.474609375 462.400390625 91.6142578125 c 128,-1,92
 535.674804688 136.75390625 535.674804688 136.75390625 564.47265625 153.65625 c 0,93,94
 579.701171875 161.962890625 579.701171875 161.962890625 590.578125 156.029296875 c 0,95,96
 627.795898438 134.526367188 627.795898438 134.526367188 697.3828125 91.703125 c 128,-1,97
 766.969726562 48.880859375 766.969726562 48.880859375 800.215820312 29.4560546875 c 0,98,99
 811.201171875 21.869140625 811.201171875 21.869140625 821.278320312 22.0400390625 c 128,-1,100
 831.354492188 22.2109375 831.354492188 22.2109375 828.694335938 36.576171875 c 0,101,102
 821.216796875 72.9453125 821.216796875 72.9453125 810.842773438 116.94921875 c 128,-1,103
 800.46875 160.953125 800.46875 160.953125 789.325195312 207.239257812 c 128,-1,104
 778.180664062 253.526367188 778.180664062 253.526367188 770.9453125 286.55859375 c 0,105,106
 768.94140625 299.584960938 768.94140625 299.584960938 778.065429688 308.708984375 c 0,107,108
 803.130859375 330.989257812 803.130859375 330.989257812 869.66796875 387.586914062 c 128,-1,109
 936.206054688 444.184570312 936.206054688 444.184570312 971.08984375 476.418945312 c 0,110,111
 976.357421875 481.182617188 976.357421875 481.182617188 973.759765625 488.977539062 c 128,-1,112
 971.161132812 496.771484375 971.161132812 496.771484375 963.969726562 498.569335938 c 0,113,114
 921.370117188 502.442382812 921.370117188 502.442382812 834.509765625 509.565429688 c 128,-1,115
 747.649414062 516.6875 747.649414062 516.6875 703.703125 520.719726562 c 0,116,117
 694.228515625 523.087890625 694.228515625 523.087890625 690.254882812 533.376953125 c 0,118,119
 677.127929688 563.793945312 677.127929688 563.793945312 645.430664062 640.713867188 c 128,-1,120
 613.733398438 717.634765625 613.733398438 717.634765625 595.32421875 758.8359375 c 0,121,66
 587.0546875 777.03125 587.0546875 777.03125 579.502929688 777.03125 c 128,-1,67
522.544921875 504.106445312 m 0,122,123
 532.051757812 526.684570312 532.051757812 526.684570312 551.037109375 571.381835938 c 128,-1,124
 570.0234375 616.078125 570.0234375 616.078125 579.502929688 638.590820312 c 1,125,-1
 585.040039062 625.93359375 l 2,126,127
 628.600585938 521.392578125 628.600585938 521.392578125 633.296875 510.435546875 c 0,128,129
 653.307617188 465.077148438 653.307617188 465.077148438 698.165039062 459.014648438 c 2,130,-1
 842.142578125 446.357421875 l 1,131,132
 824.291015625 429.587890625 824.291015625 429.587890625 759.870117188 374.369140625 c 0,133,134
 735.31640625 352.884765625 735.31640625 352.884765625 721.751953125 335.073242188 c 128,-1,135
 708.188476562 317.262695312 708.188476562 317.262695312 707.658203125 296.051757812 c 0,136,137
 707.658203125 287.349609375 707.658203125 287.349609375 709.240234375 278.647460938 c 2,138,-1
 742.465820312 137.043945312 l 1,139,-1
 740.883789062 137.834960938 l 2,140,141
 728.029296875 145.202148438 728.029296875 145.202148438 707.9296875 158.329101562 c 128,-1,142
 687.830078125 171.455078125 687.830078125 171.455078125 673.07421875 181.220703125 c 128,-1,143
 658.317382812 190.985351562 658.317382812 190.985351562 639.010742188 201.090820312 c 128,-1,144
 619.704101562 211.197265625 619.704101562 211.197265625 604.307617188 215.940429688 c 128,-1,145
 588.912109375 220.68359375 588.912109375 220.68359375 571.936523438 220.12109375 c 128,-1,146
 554.9609375 219.55859375 554.9609375 219.55859375 540.739257812 211.405273438 c 2,147,-1
 416.5390625 137.043945312 l 1,148,149
 429.23046875 192.564453125 429.23046875 192.564453125 435.525390625 219.31640625 c 0,150,151
 436.275390625 222.692382812 436.275390625 222.692382812 439.662109375 237.225585938 c 128,-1,152
 443.048828125 251.758789062 443.048828125 251.758789062 443.947265625 256.663085938 c 128,-1,153
 444.844726562 261.568359375 444.844726562 261.568359375 446.9453125 273.864257812 c 128,-1,154
 449.045898438 286.161132812 449.045898438 286.161132812 448.725585938 292.569335938 c 128,-1,155
 448.405273438 298.9765625 448.405273438 298.9765625 447.752929688 308.510742188 c 128,-1,156
 447.100585938 318.044921875 447.100585938 318.044921875 444.094726562 325.430664062 c 128,-1,157
 441.087890625 332.815429688 441.087890625 332.815429688 436.31640625 339.561523438 c 0,158,159
 430.515625 346.8125 430.515625 346.8125 425.241210938 351.427734375 c 2,160,-1
 316.071289062 447.1484375 l 1,161,-1
 318.4453125 447.1484375 l 2,162,163
 339.540039062 448.5546875 339.540039062 448.5546875 363.274414062 450.533203125 c 128,-1,164
 387.008789062 452.510742188 387.008789062 452.510742188 416.010742188 455.103515625 c 128,-1,165
 445.01171875 457.6953125 445.01171875 457.6953125 460.83984375 459.014648438 c 0,166,167
 480.995117188 461.38671875 480.995117188 461.38671875 497.61328125 473.541992188 c 128,-1,168
 514.231445312 485.697265625 514.231445312 485.697265625 522.544921875 504.106445312 c 0,122,123
EndSplineSet
EndChar

StartChar: uni0297
Encoding: 663 663 35
Width: 1001
VWidth: 1100
Flags: W
LayerCount: 2
Fore
SplineSet
571.254882812 819.981445312 m 2,0,1
 619.221679688 818.782226562 619.221679688 818.782226562 654.567382812 783.275390625 c 128,-1,2
 689.912109375 747.76953125 689.912109375 747.76953125 690.504882812 699.141601562 c 2,3,-1
 690.504882812 590.2265625 l 1,4,-1
 799.419921875 590.2265625 l 2,5,6
 844.797851562 588.583984375 844.797851562 588.583984375 876.53515625 562.401367188 c 0,7,8
 921.055664062 526.784179688 921.055664062 526.784179688 921.055664062 469.385742188 c 2,9,-1
 921.055664062 331.055664062 l 2,10,11
 920.452148438 282.798828125 920.452148438 282.798828125 884.705078125 246.404296875 c 128,-1,12
 848.958007812 210.010742188 848.958007812 210.010742188 799.419921875 209.420898438 c 2,13,-1
 690.504882812 209.420898438 l 1,14,-1
 690.504882812 100.505859375 l 2,15,16
 689.696289062 75.8232421875 689.696289062 75.8232421875 682.555664062 56.7802734375 c 0,17,18
 668.811523438 22.7197265625 668.811523438 22.7197265625 637.384765625 1.1923828125 c 128,-1,19
 605.958007812 -20.3349609375 605.958007812 -20.3349609375 569.665039062 -20.3349609375 c 2,20,-1
 431.334960938 -20.3349609375 l 2,21,22
 386.2265625 -20.3349609375 386.2265625 -20.3349609375 352.629882812 8.28515625 c 2,23,-1
 342.294921875 18.6201171875 l 2,24,25
 331.100585938 30.67578125 331.100585938 30.67578125 325.599609375 41.67578125 c 0,26,27
 309.224609375 68.5771484375 309.224609375 68.5771484375 310.495117188 102.890625 c 2,28,-1
 310.495117188 109.232421875 l 1,29,-1
 310.495117188 106.865234375 l 1,30,-1
 310.495117188 209.420898438 l 1,31,-1
 200.784179688 209.420898438 l 2,32,33
 152.744140625 210.021484375 152.744140625 210.021484375 116.640625 245.962890625 c 128,-1,34
 80.5361328125 281.905273438 80.5361328125 281.905273438 79.9443359375 331.055664062 c 2,35,-1
 79.9443359375 469.385742188 l 2,36,37
 80.5478515625 517.045898438 80.5478515625 517.045898438 116.194335938 553.340820312 c 128,-1,38
 151.841796875 589.635742188 151.841796875 589.635742188 200.784179688 590.2265625 c 2,39,-1
 310.495117188 590.2265625 l 1,40,-1
 310.495117188 699.141601562 l 2,41,42
 310.540039062 739.747070312 310.540039062 739.747070312 333.549804688 770.69140625 c 0,43,44
 350.296875 793.419921875 350.296875 793.419921875 376.549804688 806.700195312 c 128,-1,45
 402.802734375 819.981445312 402.802734375 819.981445312 431.334960938 819.981445312 c 2,46,-1
 571.254882812 819.981445312 l 2,0,1
348.655273438 12.2607421875 m 2,47,48
 348.66015625 12.255859375 348.66015625 12.255859375 356.604492188 5.900390625 c 2,49,-1
 348.655273438 12.2607421875 l 2,47,48
344.6796875 16.2353515625 m 1,50,-1
 341.5 19.4150390625 l 2,51,52
 348.654296875 12.2607421875 348.654296875 12.2607421875 348.655273438 12.2607421875 c 2,53,-1
 344.6796875 16.2353515625 l 1,50,-1
432.129882812 714.24609375 m 2,54,55
 425.571289062 714.24609375 425.571289062 714.24609375 420.900390625 709.575195312 c 128,-1,56
 416.229492188 704.905273438 416.229492188 704.905273438 416.229492188 698.346679688 c 2,57,-1
 416.229492188 484.491210938 l 1,58,-1
 201.580078125 484.491210938 l 2,59,60
 195.021484375 484.491210938 195.021484375 484.491210938 190.350585938 479.8203125 c 128,-1,61
 185.6796875 475.149414062 185.6796875 475.149414062 185.6796875 468.590820312 c 0,62,63
 184.483398438 400.420898438 184.483398438 400.420898438 185.6796875 331.055664062 c 0,64,65
 185.6796875 324.956054688 185.6796875 324.956054688 190.416992188 320.055664062 c 128,-1,66
 195.153320312 315.155273438 195.153320312 315.155273438 201.580078125 315.155273438 c 2,67,-1
 416.229492188 315.155273438 l 1,68,-1
 416.229492188 101.30078125 l 2,69,70
 415.638671875 95.396484375 415.638671875 95.396484375 420.173828125 90.69921875 c 128,-1,71
 424.708984375 86.0029296875 424.708984375 86.0029296875 431.334960938 85.400390625 c 0,72,73
 477.712890625 83.8017578125 477.712890625 83.8017578125 568.870117188 85.400390625 c 0,74,75
 575.296875 85.400390625 575.296875 85.400390625 580.033203125 90.30078125 c 128,-1,76
 584.770507812 95.201171875 584.770507812 95.201171875 584.770507812 101.30078125 c 2,77,-1
 584.770507812 315.155273438 l 1,78,-1
 799.419921875 315.155273438 l 2,79,80
 805.846679688 315.155273438 805.846679688 315.155273438 810.583007812 320.055664062 c 128,-1,81
 815.3203125 324.956054688 815.3203125 324.956054688 815.3203125 331.055664062 c 0,82,83
 816.516601562 400.420898438 816.516601562 400.420898438 815.3203125 468.590820312 c 0,84,85
 815.3203125 475.079101562 815.3203125 475.079101562 810.290039062 479.78515625 c 128,-1,86
 805.258789062 484.491210938 805.258789062 484.491210938 798.625 484.491210938 c 2,87,-1
 584.770507812 484.491210938 l 1,88,-1
 584.770507812 699.141601562 l 2,89,90
 584.770507812 705.165039062 584.770507812 705.165039062 580.067382812 709.706054688 c 128,-1,91
 575.365234375 714.24609375 575.365234375 714.24609375 568.870117188 714.24609375 c 2,92,-1
 432.129882812 714.24609375 l 2,54,55
EndSplineSet
EndChar

StartChar: uni0298
Encoding: 664 664 36
Width: 1001
VWidth: 1100
Flags: W
LayerCount: 2
Fore
SplineSet
799.419921875 590.2265625 m 1,0,1
 844.797851562 588.583984375 844.797851562 588.583984375 876.53515625 562.401367188 c 0,2,3
 921.055664062 526.784179688 921.055664062 526.784179688 921.055664062 469.385742188 c 2,4,-1
 921.055664062 331.055664062 l 2,5,6
 920.452148438 282.798828125 920.452148438 282.798828125 884.705078125 246.404296875 c 128,-1,7
 848.958007812 210.010742188 848.958007812 210.010742188 799.419921875 209.420898438 c 2,8,-1
 200.784179688 209.420898438 l 2,9,10
 152.744140625 210.021484375 152.744140625 210.021484375 116.640625 245.962890625 c 128,-1,11
 80.5361328125 281.905273438 80.5361328125 281.905273438 79.9443359375 331.055664062 c 2,12,-1
 79.9443359375 469.385742188 l 2,13,14
 80.5478515625 517.045898438 80.5478515625 517.045898438 116.194335938 553.340820312 c 128,-1,15
 151.841796875 589.635742188 151.841796875 589.635742188 200.784179688 590.2265625 c 2,16,-1
 799.419921875 590.2265625 l 1,0,1
201.580078125 484.491210938 m 2,17,18
 195.021484375 484.491210938 195.021484375 484.491210938 190.350585938 479.8203125 c 128,-1,19
 185.6796875 475.149414062 185.6796875 475.149414062 185.6796875 468.590820312 c 0,20,21
 184.483398438 400.420898438 184.483398438 400.420898438 185.6796875 331.055664062 c 0,22,23
 185.6796875 324.956054688 185.6796875 324.956054688 190.416992188 320.055664062 c 128,-1,24
 195.153320312 315.155273438 195.153320312 315.155273438 201.580078125 315.155273438 c 2,25,-1
 799.419921875 315.155273438 l 2,26,27
 805.846679688 315.155273438 805.846679688 315.155273438 810.583007812 320.055664062 c 128,-1,28
 815.3203125 324.956054688 815.3203125 324.956054688 815.3203125 331.055664062 c 0,29,30
 816.516601562 400.420898438 816.516601562 400.420898438 815.3203125 468.590820312 c 0,31,32
 815.3203125 475.079101562 815.3203125 475.079101562 810.290039062 479.78515625 c 128,-1,33
 805.258789062 484.491210938 805.258789062 484.491210938 798.625 484.491210938 c 2,34,-1
 201.580078125 484.491210938 l 2,17,18
EndSplineSet
EndChar

